%TF.GenerationSoftware,KiCad,Pcbnew,9.0.2*%
%TF.CreationDate,2025-06-25T22:06:46+02:00*%
%TF.ProjectId,baseboard,62617365-626f-4617-9264-2e6b69636164,rev?*%
%TF.SameCoordinates,Original*%
%TF.FileFunction,Soldermask,Bot*%
%TF.FilePolarity,Negative*%
%FSLAX46Y46*%
G04 Gerber Fmt 4.6, Leading zero omitted, Abs format (unit mm)*
G04 Created by KiCad (PCBNEW 9.0.2) date 2025-06-25 22:06:46*
%MOMM*%
%LPD*%
G01*
G04 APERTURE LIST*
%ADD10C,1.600000*%
%ADD11O,1.600000X1.600000*%
%ADD12R,1.700000X1.700000*%
%ADD13C,1.700000*%
%ADD14C,2.000000*%
%ADD15C,3.200000*%
%ADD16O,1.800000X1.800000*%
%ADD17O,1.500000X1.500000*%
%ADD18O,1.700000X1.700000*%
%ADD19R,2.000000X2.000000*%
%ADD20C,3.500000*%
%ADD21R,1.905000X2.000000*%
%ADD22O,1.905000X2.000000*%
%ADD23O,4.604000X2.404000*%
%ADD24O,4.204000X2.204000*%
%ADD25O,2.204000X4.204000*%
%ADD26O,3.400000X2.100000*%
%ADD27O,3.800000X2.100000*%
G04 APERTURE END LIST*
D10*
%TO.C,R1*%
X183000000Y-74000000D03*
D11*
X175380000Y-74000000D03*
%TD*%
D12*
%TO.C,J4*%
X224000000Y-78080000D03*
D13*
X224000000Y-75540000D03*
X224000000Y-73000000D03*
%TD*%
D14*
%TO.C,ADC1*%
X164350000Y-33935000D03*
X161810000Y-33935000D03*
X159270000Y-33935000D03*
X156730000Y-33935000D03*
X154190000Y-33935000D03*
X151650000Y-33935000D03*
X164350000Y-58065000D03*
X161810000Y-58065000D03*
X159270000Y-58065000D03*
X156730000Y-58065000D03*
X154190000Y-58065000D03*
X151650000Y-58065000D03*
X172630400Y-43485400D03*
X172605000Y-46000000D03*
X172630400Y-48565400D03*
%TD*%
D10*
%TO.C,R2*%
X175380000Y-78950000D03*
D11*
X183000000Y-78950000D03*
%TD*%
D15*
%TO.C,H3*%
X144000000Y-128000000D03*
%TD*%
D12*
%TO.C,J3*%
X223290000Y-30950000D03*
D13*
X220750000Y-30950000D03*
X223290000Y-33490000D03*
X220750000Y-33490000D03*
X223290000Y-36030000D03*
X220750000Y-36030000D03*
X223290000Y-38570000D03*
X220750000Y-38570000D03*
X223290000Y-41110000D03*
X220750000Y-41110000D03*
X223290000Y-43650000D03*
X220750000Y-43650000D03*
X223290000Y-46190000D03*
X220750000Y-46190000D03*
X223290000Y-48730000D03*
X220750000Y-48730000D03*
X223290000Y-51270000D03*
X220750000Y-51270000D03*
X223290000Y-53810000D03*
X220750000Y-53810000D03*
X223290000Y-56350000D03*
X220750000Y-56350000D03*
X223290000Y-58890000D03*
X220750000Y-58890000D03*
X223290000Y-61430000D03*
X220750000Y-61430000D03*
X223290000Y-63970000D03*
X220750000Y-63970000D03*
X223290000Y-66510000D03*
X220750000Y-66510000D03*
X223290000Y-69050000D03*
X220750000Y-69050000D03*
%TD*%
D16*
%TO.C,U1*%
X201275000Y-22000000D03*
D17*
X201575000Y-25030000D03*
X206425000Y-25030000D03*
D16*
X206725000Y-22000000D03*
D18*
X195110000Y-21870000D03*
X195110000Y-24410000D03*
D12*
X195110000Y-26950000D03*
D18*
X195110000Y-29490000D03*
X195110000Y-32030000D03*
X195110000Y-34570000D03*
X195110000Y-37110000D03*
D12*
X195110000Y-39650000D03*
D18*
X195110000Y-42190000D03*
X195110000Y-44730000D03*
X195110000Y-47270000D03*
X195110000Y-49810000D03*
D12*
X195110000Y-52350000D03*
D18*
X195110000Y-54890000D03*
X195110000Y-57430000D03*
X195110000Y-59970000D03*
X195110000Y-62510000D03*
D12*
X195110000Y-65050000D03*
D18*
X195110000Y-67590000D03*
X195110000Y-70130000D03*
X212890000Y-70130000D03*
X212890000Y-67590000D03*
D12*
X212890000Y-65050000D03*
D18*
X212890000Y-62510000D03*
X212890000Y-59970000D03*
X212890000Y-57430000D03*
X212890000Y-54890000D03*
D12*
X212890000Y-52350000D03*
D18*
X212890000Y-49810000D03*
X212890000Y-47270000D03*
X212890000Y-44730000D03*
X212890000Y-42190000D03*
D12*
X212890000Y-39650000D03*
D18*
X212890000Y-37110000D03*
X212890000Y-34570000D03*
X212890000Y-32030000D03*
X212890000Y-29490000D03*
D12*
X212890000Y-26950000D03*
D18*
X212890000Y-24410000D03*
X212890000Y-21870000D03*
X201460000Y-69900000D03*
D12*
X204000000Y-69900000D03*
D18*
X206540000Y-69900000D03*
%TD*%
D10*
%TO.C,C2*%
X172000000Y-89000000D03*
X172000000Y-91000000D03*
%TD*%
D14*
%TO.C,DAC1*%
X193606000Y-97650000D03*
X193606000Y-100190000D03*
X193606000Y-102730000D03*
X193606000Y-105270000D03*
D19*
X193606000Y-107810000D03*
D14*
X193606000Y-110350000D03*
X200210000Y-96888000D03*
X202750000Y-96888000D03*
X205290000Y-96888000D03*
X207830000Y-96888000D03*
X210370000Y-96888000D03*
X212910000Y-96888000D03*
X215450000Y-96888000D03*
X217990000Y-96888000D03*
X220530000Y-96888000D03*
%TD*%
D10*
%TO.C,R3*%
X175380000Y-84000000D03*
D11*
X183000000Y-84000000D03*
%TD*%
D20*
%TO.C,POWER1*%
X184000000Y-39660000D03*
D21*
X186540000Y-23000000D03*
D22*
X184000000Y-23000000D03*
X181460000Y-23000000D03*
%TD*%
D10*
%TO.C,C1*%
X172000000Y-64000000D03*
X172000000Y-62000000D03*
%TD*%
D15*
%TO.C,H2*%
X222000000Y-24000000D03*
%TD*%
%TO.C,H4*%
X222000000Y-128000000D03*
%TD*%
%TO.C,H1*%
X144000000Y-24000000D03*
%TD*%
D14*
%TO.C,ADC2*%
X164350000Y-97935000D03*
X161810000Y-97935000D03*
X159270000Y-97935000D03*
X156730000Y-97935000D03*
X154190000Y-97935000D03*
X151650000Y-97935000D03*
X164350000Y-122065000D03*
X161810000Y-122065000D03*
X159270000Y-122065000D03*
X156730000Y-122065000D03*
X154190000Y-122065000D03*
X151650000Y-122065000D03*
X172630400Y-107485400D03*
X172605000Y-110000000D03*
X172630400Y-112565400D03*
%TD*%
D12*
%TO.C,J1*%
X150000000Y-23000000D03*
D13*
X150000000Y-25540000D03*
%TD*%
D12*
%TO.C,SW1*%
X161080000Y-23000000D03*
D13*
X158540000Y-23000000D03*
X156000000Y-23000000D03*
%TD*%
D23*
%TO.C,J5*%
X172200000Y-28337500D03*
D24*
X172200000Y-22037500D03*
D25*
X177000000Y-25437500D03*
%TD*%
D26*
%TO.C,JACK2*%
X147500000Y-87000000D03*
D27*
X162500000Y-89500000D03*
X163500000Y-84500000D03*
%TD*%
D26*
%TO.C,JACK3*%
X218512500Y-87000000D03*
D27*
X203512500Y-84500000D03*
X202512500Y-89500000D03*
%TD*%
D26*
%TO.C,JACK1*%
X147500000Y-67000000D03*
D27*
X162500000Y-69500000D03*
X163500000Y-64500000D03*
%TD*%
M02*
