%TF.GenerationSoftware,KiCad,Pcbnew,9.0.2*%
%TF.CreationDate,2025-06-25T22:06:46+02:00*%
%TF.ProjectId,baseboard,62617365-626f-4617-9264-2e6b69636164,rev?*%
%TF.SameCoordinates,Original*%
%TF.FileFunction,Legend,Bot*%
%TF.FilePolarity,Positive*%
%FSLAX46Y46*%
G04 Gerber Fmt 4.6, Leading zero omitted, Abs format (unit mm)*
G04 Created by KiCad (PCBNEW 9.0.2) date 2025-06-25 22:06:46*
%MOMM*%
%LPD*%
G01*
G04 APERTURE LIST*
%ADD10C,0.300000*%
%ADD11C,0.100000*%
%ADD12C,0.200000*%
G04 APERTURE END LIST*
D10*
G36*
X195702312Y-130575000D02*
G01*
X195348075Y-130575000D01*
X195311133Y-130386017D01*
X195298774Y-130386017D01*
X195237751Y-130451761D01*
X195174184Y-130506895D01*
X195110136Y-130550334D01*
X195044868Y-130583142D01*
X194981137Y-130604543D01*
X194917369Y-130615567D01*
X194883012Y-130617131D01*
X194883012Y-130614078D01*
X194743657Y-130594771D01*
X194610551Y-130537245D01*
X194548109Y-130494513D01*
X194489291Y-130442729D01*
X194434899Y-130382320D01*
X194385296Y-130313282D01*
X194341401Y-130236428D01*
X194303390Y-130151425D01*
X194272108Y-130059357D01*
X194247736Y-129959630D01*
X194230956Y-129853397D01*
X194222070Y-129739970D01*
X194220956Y-129684582D01*
X194685944Y-129684582D01*
X194690132Y-129789195D01*
X194702254Y-129880987D01*
X194720677Y-129957152D01*
X194745179Y-130022160D01*
X194773930Y-130074414D01*
X194807246Y-130116879D01*
X194843956Y-130149339D01*
X194884087Y-130172827D01*
X194974763Y-130193949D01*
X194984702Y-130194133D01*
X194984702Y-130197034D01*
X195045557Y-130189592D01*
X195110269Y-130170136D01*
X195168014Y-130141682D01*
X195224985Y-130101151D01*
X195249474Y-130079034D01*
X195249474Y-129377446D01*
X195191476Y-129316637D01*
X195134211Y-129270914D01*
X195083362Y-129242392D01*
X195031914Y-129224689D01*
X194966164Y-129217009D01*
X194910971Y-129221890D01*
X194862032Y-129236518D01*
X194822497Y-129258538D01*
X194788115Y-129288754D01*
X194734881Y-129372961D01*
X194699588Y-129498621D01*
X194685944Y-129684582D01*
X194220956Y-129684582D01*
X194220747Y-129674201D01*
X194225005Y-129553097D01*
X194237611Y-129439225D01*
X194257587Y-129336100D01*
X194284961Y-129240646D01*
X194318137Y-129156297D01*
X194357775Y-129079852D01*
X194401888Y-129014028D01*
X194451630Y-128956237D01*
X194505135Y-128908137D01*
X194563609Y-128868241D01*
X194625896Y-128837271D01*
X194692684Y-128814861D01*
X194836801Y-128796912D01*
X194969863Y-128815892D01*
X195105467Y-128874038D01*
X195169509Y-128917074D01*
X195228955Y-128968629D01*
X195255653Y-128996427D01*
X195264922Y-128996427D01*
X195249474Y-128723639D01*
X195249474Y-128122801D01*
X195702312Y-128122801D01*
X195702312Y-130575000D01*
G37*
G36*
X193318411Y-128815434D02*
G01*
X193520715Y-128871557D01*
X193726884Y-128966687D01*
X193834404Y-129031537D01*
X193674278Y-129365997D01*
X193521581Y-129286823D01*
X193379297Y-129232355D01*
X193296866Y-129213602D01*
X193215072Y-129206509D01*
X193209215Y-129206476D01*
X193132834Y-129211290D01*
X193066890Y-129225447D01*
X193015523Y-129246238D01*
X192972637Y-129274175D01*
X192939956Y-129306645D01*
X192914543Y-129344863D01*
X192885124Y-129437304D01*
X192882785Y-129456215D01*
X193079285Y-129474443D01*
X193252241Y-129501055D01*
X193384758Y-129531367D01*
X193500491Y-129568433D01*
X193589712Y-129607178D01*
X193666508Y-129651504D01*
X193725841Y-129696715D01*
X193775533Y-129746715D01*
X193813788Y-129798274D01*
X193843993Y-129854232D01*
X193881056Y-129978538D01*
X193889884Y-130090635D01*
X193885636Y-130165143D01*
X193873097Y-130236204D01*
X193852646Y-130302980D01*
X193824562Y-130365061D01*
X193789379Y-130421492D01*
X193747248Y-130472033D01*
X193698828Y-130515782D01*
X193644141Y-130552498D01*
X193583832Y-130581432D01*
X193517900Y-130602208D01*
X193387879Y-130617131D01*
X193387879Y-130614078D01*
X193242093Y-130595725D01*
X193088260Y-130539105D01*
X192928041Y-130441675D01*
X192845709Y-130376094D01*
X192833484Y-130376094D01*
X192799498Y-130575000D01*
X192429946Y-130575000D01*
X192429946Y-130050793D01*
X192882785Y-130050793D01*
X192965732Y-130116530D01*
X193053054Y-130168703D01*
X193119285Y-130195511D01*
X193188581Y-130211407D01*
X193243068Y-130215199D01*
X193243068Y-130217031D01*
X193307582Y-130211180D01*
X193362049Y-130195388D01*
X193398836Y-130174440D01*
X193427064Y-130146223D01*
X193444123Y-130115565D01*
X193453651Y-130079142D01*
X193455583Y-130050793D01*
X193451030Y-130003700D01*
X193436349Y-129959815D01*
X193414551Y-129924981D01*
X193383231Y-129892898D01*
X193286174Y-129836898D01*
X193120541Y-129791298D01*
X192882785Y-129764113D01*
X192882785Y-130050793D01*
X192429946Y-130050793D01*
X192429946Y-129578641D01*
X192434206Y-129465630D01*
X192446832Y-129361674D01*
X192466426Y-129271012D01*
X192493199Y-129188458D01*
X192525645Y-129116448D01*
X192564406Y-129051884D01*
X192658651Y-128946198D01*
X192777057Y-128868081D01*
X192923052Y-128817368D01*
X193101301Y-128797072D01*
X193119884Y-128796912D01*
X193318411Y-128815434D01*
G37*
G36*
X191319814Y-130614078D02*
G01*
X191204561Y-130609288D01*
X191098519Y-130595299D01*
X191003727Y-130573237D01*
X190917970Y-130543437D01*
X190843280Y-130507513D01*
X190777342Y-130465259D01*
X190721779Y-130418639D01*
X190674642Y-130366967D01*
X190636860Y-130312120D01*
X190607260Y-130253314D01*
X190573134Y-130127037D01*
X190568352Y-130054610D01*
X190572899Y-129969592D01*
X190587534Y-129892664D01*
X190607918Y-129835530D01*
X190636772Y-129782871D01*
X190717564Y-129693926D01*
X190843760Y-129613592D01*
X191042040Y-129535749D01*
X191168823Y-129499568D01*
X191195030Y-129492865D01*
X191347112Y-129452520D01*
X191448670Y-129416231D01*
X191505415Y-129373681D01*
X191518768Y-129346834D01*
X191523061Y-129314554D01*
X191518761Y-129281865D01*
X191505863Y-129252700D01*
X191456068Y-129208052D01*
X191365449Y-129181677D01*
X191310545Y-129178541D01*
X191141001Y-129197579D01*
X190966206Y-129255910D01*
X190811630Y-129342489D01*
X190608383Y-129035048D01*
X190720682Y-128960923D01*
X190850440Y-128892554D01*
X190952595Y-128851684D01*
X191062476Y-128820376D01*
X191160950Y-128803426D01*
X191264335Y-128796932D01*
X191270513Y-128796912D01*
X191378708Y-128801721D01*
X191479149Y-128815844D01*
X191569219Y-128838139D01*
X191651197Y-128868428D01*
X191722197Y-128904781D01*
X191785032Y-128947788D01*
X191837258Y-128994863D01*
X191881420Y-129047363D01*
X191916031Y-129102681D01*
X191942668Y-129162417D01*
X191960765Y-129224831D01*
X191970759Y-129290914D01*
X191972809Y-129338978D01*
X191968444Y-129411304D01*
X191955085Y-129478718D01*
X191934586Y-129536338D01*
X191905880Y-129590041D01*
X191824168Y-129684745D01*
X191700863Y-129768802D01*
X191519763Y-129843866D01*
X191390608Y-129880129D01*
X191166226Y-129942343D01*
X191096680Y-129970837D01*
X191050733Y-130000958D01*
X191029571Y-130026157D01*
X191018132Y-130054766D01*
X191014877Y-130086056D01*
X191019207Y-130119077D01*
X191032322Y-130149109D01*
X191083399Y-130196400D01*
X191176912Y-130226739D01*
X191258155Y-130232602D01*
X191450966Y-130213430D01*
X191640260Y-130156015D01*
X191824393Y-130060121D01*
X191874208Y-130026674D01*
X192068186Y-130348159D01*
X191880399Y-130466487D01*
X191774315Y-130516295D01*
X191662424Y-130557608D01*
X191553374Y-130587235D01*
X191442087Y-130606500D01*
X191319814Y-130614078D01*
G37*
G36*
X189589005Y-128816165D02*
G01*
X189670597Y-128840100D01*
X189749280Y-128873281D01*
X189823729Y-128915114D01*
X189893880Y-128965617D01*
X189957710Y-129023255D01*
X190016065Y-129088799D01*
X190066885Y-129159865D01*
X190111289Y-129238023D01*
X190147683Y-129320525D01*
X190176886Y-129409371D01*
X190197914Y-129502036D01*
X190211033Y-129600428D01*
X190215726Y-129707937D01*
X190211491Y-129812274D01*
X190199037Y-129910867D01*
X190178865Y-130003132D01*
X190151307Y-130089451D01*
X190116620Y-130169924D01*
X190075255Y-130244152D01*
X189972599Y-130374778D01*
X189844409Y-130480028D01*
X189691775Y-130557309D01*
X189516590Y-130602985D01*
X189368753Y-130614078D01*
X189186970Y-130595227D01*
X188991659Y-130536523D01*
X188896210Y-130492914D01*
X188805879Y-130440925D01*
X188762103Y-130411204D01*
X188912959Y-130100863D01*
X189012929Y-130153757D01*
X189110278Y-130191848D01*
X189189698Y-130211655D01*
X189271280Y-130221269D01*
X189307228Y-130222221D01*
X189394022Y-130217288D01*
X189472862Y-130202291D01*
X189536240Y-130180159D01*
X189592733Y-130149564D01*
X189638349Y-130113813D01*
X189677736Y-130070581D01*
X189709599Y-130021713D01*
X189735322Y-129965608D01*
X189763022Y-129861810D01*
X188722071Y-129861810D01*
X188720360Y-129850331D01*
X188707807Y-129755784D01*
X188700444Y-129630848D01*
X188704730Y-129525270D01*
X188705976Y-129515443D01*
X189103982Y-129515443D01*
X189756843Y-129515443D01*
X189736888Y-129442051D01*
X189710353Y-129377988D01*
X189679320Y-129325786D01*
X189642850Y-129281999D01*
X189556702Y-129220668D01*
X189450343Y-129191307D01*
X189405695Y-129188921D01*
X189345428Y-129193788D01*
X189291437Y-129208314D01*
X189247104Y-129230314D01*
X189208385Y-129260433D01*
X189149552Y-129341938D01*
X189112369Y-129457080D01*
X189103982Y-129515443D01*
X188705976Y-129515443D01*
X188717542Y-129424227D01*
X188737998Y-129331339D01*
X188766310Y-129243896D01*
X188800964Y-129165329D01*
X188842795Y-129092889D01*
X188889986Y-129029193D01*
X188943772Y-128972183D01*
X189002580Y-128923441D01*
X189067571Y-128881962D01*
X189137912Y-128848503D01*
X189214211Y-128823014D01*
X189296636Y-128805889D01*
X189384954Y-128797634D01*
X189421143Y-128796912D01*
X189589005Y-128816165D01*
G37*
G36*
X188317190Y-130575000D02*
G01*
X187962952Y-130575000D01*
X187926011Y-130386017D01*
X187913652Y-130386017D01*
X187852629Y-130451761D01*
X187789062Y-130506895D01*
X187725014Y-130550334D01*
X187659746Y-130583142D01*
X187596014Y-130604543D01*
X187532247Y-130615567D01*
X187497890Y-130617131D01*
X187497890Y-130614078D01*
X187358535Y-130594771D01*
X187225429Y-130537245D01*
X187162987Y-130494513D01*
X187104169Y-130442729D01*
X187049777Y-130382320D01*
X187000174Y-130313282D01*
X186956279Y-130236428D01*
X186918267Y-130151425D01*
X186886986Y-130059357D01*
X186862614Y-129959630D01*
X186845834Y-129853397D01*
X186836948Y-129739970D01*
X186835834Y-129684582D01*
X187300822Y-129684582D01*
X187305010Y-129789195D01*
X187317132Y-129880987D01*
X187335555Y-129957152D01*
X187360057Y-130022160D01*
X187388808Y-130074414D01*
X187422124Y-130116879D01*
X187458834Y-130149339D01*
X187498964Y-130172827D01*
X187589640Y-130193949D01*
X187599580Y-130194133D01*
X187599580Y-130197034D01*
X187660435Y-130189592D01*
X187725147Y-130170136D01*
X187782892Y-130141682D01*
X187839863Y-130101151D01*
X187864352Y-130079034D01*
X187864352Y-129377446D01*
X187806354Y-129316637D01*
X187749089Y-129270914D01*
X187698240Y-129242392D01*
X187646792Y-129224689D01*
X187581042Y-129217009D01*
X187525849Y-129221890D01*
X187476909Y-129236518D01*
X187437375Y-129258538D01*
X187402993Y-129288754D01*
X187349759Y-129372961D01*
X187314466Y-129498621D01*
X187300822Y-129684582D01*
X186835834Y-129684582D01*
X186835625Y-129674201D01*
X186839882Y-129553097D01*
X186852489Y-129439225D01*
X186872464Y-129336100D01*
X186899839Y-129240646D01*
X186933015Y-129156297D01*
X186972653Y-129079852D01*
X187016766Y-129014028D01*
X187066508Y-128956237D01*
X187120013Y-128908137D01*
X187178487Y-128868241D01*
X187240774Y-128837271D01*
X187307562Y-128814861D01*
X187451679Y-128796912D01*
X187584741Y-128815892D01*
X187720345Y-128874038D01*
X187784387Y-128917074D01*
X187843833Y-128968629D01*
X187870531Y-128996427D01*
X187879800Y-128996427D01*
X187864352Y-128723639D01*
X187864352Y-128122801D01*
X188317190Y-128122801D01*
X188317190Y-130575000D01*
G37*
G36*
X185935430Y-128816207D02*
G01*
X186016005Y-128840116D01*
X186093604Y-128873286D01*
X186166674Y-128914994D01*
X186235438Y-128965391D01*
X186297816Y-129022874D01*
X186354767Y-129088321D01*
X186404311Y-129159419D01*
X186447518Y-129237734D01*
X186482916Y-129320739D01*
X186511197Y-129410295D01*
X186531463Y-129504201D01*
X186543861Y-129604120D01*
X186547883Y-129705648D01*
X186543666Y-129809544D01*
X186531343Y-129907744D01*
X186511199Y-130000907D01*
X186483811Y-130088016D01*
X186407858Y-130245958D01*
X186305622Y-130380062D01*
X186179484Y-130487549D01*
X186032968Y-130564538D01*
X185871448Y-130606821D01*
X185768614Y-130614078D01*
X185601801Y-130594783D01*
X185521217Y-130570872D01*
X185443606Y-130537699D01*
X185370524Y-130495988D01*
X185301747Y-130445586D01*
X185239361Y-130388102D01*
X185182403Y-130322653D01*
X185132859Y-130251561D01*
X185089654Y-130173253D01*
X185054263Y-130090264D01*
X185025991Y-130000725D01*
X185005737Y-129906846D01*
X184993352Y-129806956D01*
X184989345Y-129705648D01*
X185454542Y-129705648D01*
X185458841Y-129806422D01*
X185471738Y-129897500D01*
X185490891Y-129971104D01*
X185517132Y-130035454D01*
X185547066Y-130085319D01*
X185582833Y-130126626D01*
X185621579Y-130157126D01*
X185665432Y-130179374D01*
X185766971Y-130197640D01*
X185768614Y-130197644D01*
X185823825Y-130192825D01*
X185873709Y-130178628D01*
X185916815Y-130156391D01*
X185954953Y-130126131D01*
X186017033Y-130041596D01*
X186060623Y-129920412D01*
X186081818Y-129755424D01*
X186082820Y-129705648D01*
X186078521Y-129604887D01*
X186065627Y-129513821D01*
X186046474Y-129440204D01*
X186020236Y-129375840D01*
X185990299Y-129325948D01*
X185954531Y-129284616D01*
X185915783Y-129254090D01*
X185871931Y-129231817D01*
X185770406Y-129213503D01*
X185768614Y-129213498D01*
X185713405Y-129218318D01*
X185663530Y-129232516D01*
X185620443Y-129254751D01*
X185582326Y-129285008D01*
X185520287Y-129369539D01*
X185476726Y-129490745D01*
X185455543Y-129655828D01*
X185454542Y-129705648D01*
X184989345Y-129705648D01*
X184993561Y-129601741D01*
X185005883Y-129503529D01*
X185026028Y-129410346D01*
X185053416Y-129323218D01*
X185129373Y-129165226D01*
X185231614Y-129031066D01*
X185357752Y-128923527D01*
X185504254Y-128846496D01*
X185665732Y-128804183D01*
X185768614Y-128796912D01*
X185935430Y-128816207D01*
G37*
G36*
X184087008Y-128815434D02*
G01*
X184289312Y-128871557D01*
X184495481Y-128966687D01*
X184603001Y-129031537D01*
X184442876Y-129365997D01*
X184290178Y-129286823D01*
X184147894Y-129232355D01*
X184065464Y-129213602D01*
X183983670Y-129206509D01*
X183977813Y-129206476D01*
X183901432Y-129211290D01*
X183835487Y-129225447D01*
X183784120Y-129246238D01*
X183741234Y-129274175D01*
X183708553Y-129306645D01*
X183683141Y-129344863D01*
X183653721Y-129437304D01*
X183651382Y-129456215D01*
X183847882Y-129474443D01*
X184020838Y-129501055D01*
X184153355Y-129531367D01*
X184269088Y-129568433D01*
X184358309Y-129607178D01*
X184435105Y-129651504D01*
X184494439Y-129696715D01*
X184544131Y-129746715D01*
X184582385Y-129798274D01*
X184612591Y-129854232D01*
X184649653Y-129978538D01*
X184658481Y-130090635D01*
X184654233Y-130165143D01*
X184641694Y-130236204D01*
X184621244Y-130302980D01*
X184593160Y-130365061D01*
X184557976Y-130421492D01*
X184515846Y-130472033D01*
X184467425Y-130515782D01*
X184412739Y-130552498D01*
X184352429Y-130581432D01*
X184286498Y-130602208D01*
X184156476Y-130617131D01*
X184156476Y-130614078D01*
X184010691Y-130595725D01*
X183856857Y-130539105D01*
X183696638Y-130441675D01*
X183614306Y-130376094D01*
X183602082Y-130376094D01*
X183568095Y-130575000D01*
X183198544Y-130575000D01*
X183198544Y-130050793D01*
X183651382Y-130050793D01*
X183734330Y-130116530D01*
X183821652Y-130168703D01*
X183887882Y-130195511D01*
X183957178Y-130211407D01*
X184011665Y-130215199D01*
X184011665Y-130217031D01*
X184076179Y-130211180D01*
X184130646Y-130195388D01*
X184167433Y-130174440D01*
X184195661Y-130146223D01*
X184212720Y-130115565D01*
X184222248Y-130079142D01*
X184224181Y-130050793D01*
X184219627Y-130003700D01*
X184204946Y-129959815D01*
X184183149Y-129924981D01*
X184151828Y-129892898D01*
X184054772Y-129836898D01*
X183889138Y-129791298D01*
X183651382Y-129764113D01*
X183651382Y-130050793D01*
X183198544Y-130050793D01*
X183198544Y-129578641D01*
X183202804Y-129465630D01*
X183215429Y-129361674D01*
X183235023Y-129271012D01*
X183261796Y-129188458D01*
X183294242Y-129116448D01*
X183333003Y-129051884D01*
X183427248Y-128946198D01*
X183545654Y-128868081D01*
X183691649Y-128817368D01*
X183869898Y-128797072D01*
X183888481Y-128796912D01*
X184087008Y-128815434D01*
G37*
G36*
X182642806Y-130575000D02*
G01*
X182190102Y-130575000D01*
X182190102Y-129672064D01*
X182148249Y-129582419D01*
X182102617Y-129504795D01*
X182053918Y-129438884D01*
X182002460Y-129383773D01*
X181891744Y-129302907D01*
X181771489Y-129258500D01*
X181675738Y-129248456D01*
X181583707Y-129253237D01*
X181506245Y-129267167D01*
X181404653Y-129297457D01*
X181312232Y-128866979D01*
X181414377Y-128823142D01*
X181529872Y-128800168D01*
X181607900Y-128796912D01*
X181686846Y-128801810D01*
X181764042Y-128816557D01*
X181837370Y-128840559D01*
X181908209Y-128874116D01*
X181975071Y-128916518D01*
X182038750Y-128968308D01*
X182098437Y-129029075D01*
X182154232Y-129099232D01*
X182227043Y-129217009D01*
X182236178Y-129217009D01*
X182273254Y-128835990D01*
X182642806Y-128835990D01*
X182642806Y-130575000D01*
G37*
G36*
X179980315Y-128713106D02*
G01*
X179958821Y-128982536D01*
X179971046Y-128982536D01*
X180029674Y-128921326D01*
X180092567Y-128871690D01*
X180149845Y-128839387D01*
X180212320Y-128815939D01*
X180350268Y-128796938D01*
X180356046Y-128796912D01*
X180492042Y-128816140D01*
X180623877Y-128873818D01*
X180686336Y-128916891D01*
X180745211Y-128969001D01*
X180799812Y-129029853D01*
X180849530Y-129099227D01*
X180893335Y-129176125D01*
X180931073Y-129260899D01*
X180961721Y-129351949D01*
X180985248Y-129450183D01*
X181000868Y-129553716D01*
X181008412Y-129663765D01*
X181009041Y-129707021D01*
X181004794Y-129830576D01*
X180992260Y-129946295D01*
X180972372Y-130051221D01*
X180945199Y-130148147D01*
X180912106Y-130234362D01*
X180872674Y-130312515D01*
X180828488Y-130380560D01*
X180778794Y-130440504D01*
X180724982Y-130491170D01*
X180666339Y-130533611D01*
X180603592Y-130567382D01*
X180536535Y-130592622D01*
X180389400Y-130616686D01*
X180365315Y-130617131D01*
X180365315Y-130614078D01*
X180244237Y-130595680D01*
X180115451Y-130538426D01*
X179987267Y-130441469D01*
X179940283Y-130393649D01*
X179931014Y-130393649D01*
X179897162Y-130575000D01*
X179527610Y-130575000D01*
X179527610Y-129332109D01*
X179980315Y-129332109D01*
X179980315Y-130033696D01*
X180024878Y-130089952D01*
X180071018Y-130133126D01*
X180115705Y-130162355D01*
X180162327Y-130181737D01*
X180248310Y-130194133D01*
X180248310Y-130197034D01*
X180304042Y-130191245D01*
X180354446Y-130175515D01*
X180395588Y-130152305D01*
X180432009Y-130120438D01*
X180489022Y-130032446D01*
X180527588Y-129903034D01*
X180543865Y-129717664D01*
X180543978Y-129698626D01*
X180539799Y-129604939D01*
X180527736Y-129521710D01*
X180509039Y-129450422D01*
X180484175Y-129388860D01*
X180454400Y-129337755D01*
X180419947Y-129295804D01*
X180339648Y-129238963D01*
X180246042Y-129217199D01*
X180235951Y-129217009D01*
X180175711Y-129222146D01*
X180116960Y-129238563D01*
X180065889Y-129263693D01*
X180015335Y-129299874D01*
X179980315Y-129332109D01*
X179527610Y-129332109D01*
X179527610Y-128122801D01*
X179980315Y-128122801D01*
X179980315Y-128713106D01*
G37*
G36*
X176789758Y-130575000D02*
G01*
X176269215Y-130575000D01*
X175708776Y-128835990D01*
X176142942Y-128835990D01*
X176383265Y-129656952D01*
X176472698Y-130006583D01*
X176518807Y-130193523D01*
X176531032Y-130193523D01*
X176563557Y-130064152D01*
X176669664Y-129656952D01*
X176909852Y-128835990D01*
X177365780Y-128835990D01*
X176789758Y-130575000D01*
G37*
G36*
X174737823Y-129182721D02*
G01*
X174781285Y-129196713D01*
X174820370Y-129219277D01*
X174854336Y-129249871D01*
X174881942Y-129287280D01*
X174902951Y-129331387D01*
X174916369Y-129380658D01*
X174921886Y-129435353D01*
X174921984Y-129444002D01*
X174917809Y-129498903D01*
X174905780Y-129548576D01*
X174860590Y-129630920D01*
X174791104Y-129686630D01*
X174748755Y-129702703D01*
X174702793Y-129709778D01*
X174690930Y-129710075D01*
X174644043Y-129705284D01*
X174600597Y-129691292D01*
X174561538Y-129668732D01*
X174527601Y-129638144D01*
X174500017Y-129600736D01*
X174479027Y-129556631D01*
X174465619Y-129507343D01*
X174460109Y-129452628D01*
X174460011Y-129444002D01*
X174464186Y-129389067D01*
X174476217Y-129339367D01*
X174521402Y-129257013D01*
X174590868Y-129201331D01*
X174633202Y-129185279D01*
X174679157Y-129178223D01*
X174690930Y-129177930D01*
X174737823Y-129182721D01*
G37*
G36*
X174776904Y-128313305D02*
G01*
X174858767Y-128327916D01*
X174933560Y-128351175D01*
X175004106Y-128383408D01*
X175068684Y-128423505D01*
X175128815Y-128472095D01*
X175234312Y-128593702D01*
X175320748Y-128750307D01*
X175386593Y-128945629D01*
X175428665Y-129184140D01*
X175442527Y-129451024D01*
X175438276Y-129602629D01*
X175425716Y-129744197D01*
X175405911Y-129871582D01*
X175378847Y-129989320D01*
X175346064Y-130093767D01*
X175306990Y-130188997D01*
X175263427Y-130272252D01*
X175214410Y-130346686D01*
X175161614Y-130410632D01*
X175104041Y-130466024D01*
X175042747Y-130512208D01*
X174977185Y-130549893D01*
X174833636Y-130599505D01*
X174690930Y-130614078D01*
X174607155Y-130609210D01*
X174527271Y-130594670D01*
X174453592Y-130571373D01*
X174383992Y-130539130D01*
X174319676Y-130498752D01*
X174259693Y-130449882D01*
X174153490Y-130327006D01*
X174065735Y-130168530D01*
X173998354Y-129971194D01*
X173954757Y-129731364D01*
X173939468Y-129451024D01*
X174342872Y-129451024D01*
X174347068Y-129607553D01*
X174359248Y-129743301D01*
X174377388Y-129852767D01*
X174401507Y-129945834D01*
X174429135Y-130019086D01*
X174461165Y-130079457D01*
X174495443Y-130125745D01*
X174532982Y-130161656D01*
X174616004Y-130204872D01*
X174690930Y-130215199D01*
X174744278Y-130210145D01*
X174794955Y-130194307D01*
X174837367Y-130170312D01*
X174876825Y-130136252D01*
X174911680Y-130093246D01*
X174943074Y-130039590D01*
X174995026Y-129893978D01*
X175029168Y-129683443D01*
X175038989Y-129451024D01*
X175034792Y-129295440D01*
X175022611Y-129161392D01*
X175004588Y-129054603D01*
X174980647Y-128964368D01*
X174953309Y-128893952D01*
X174921627Y-128836254D01*
X174887593Y-128792118D01*
X174850309Y-128758088D01*
X174766669Y-128717090D01*
X174690930Y-128707458D01*
X174634796Y-128712574D01*
X174581648Y-128728853D01*
X174538827Y-128752846D01*
X174499120Y-128787012D01*
X174464732Y-128829603D01*
X174433877Y-128882891D01*
X174383501Y-129027411D01*
X174351139Y-129237936D01*
X174342872Y-129451024D01*
X173939468Y-129451024D01*
X173943719Y-129299618D01*
X173956278Y-129158779D01*
X173976006Y-129032928D01*
X174002942Y-128917001D01*
X174035502Y-128814650D01*
X174074292Y-128721602D01*
X174117557Y-128640424D01*
X174166231Y-128568032D01*
X174218836Y-128505790D01*
X174276211Y-128452005D01*
X174403445Y-128370427D01*
X174548675Y-128322222D01*
X174690930Y-128308426D01*
X174776904Y-128313305D01*
G37*
G36*
X172844650Y-130614078D02*
G01*
X172785674Y-130609303D01*
X172730813Y-130595417D01*
X172634210Y-130542283D01*
X172558426Y-130458709D01*
X172507984Y-130349268D01*
X172493777Y-130286623D01*
X172487668Y-130219915D01*
X172487457Y-130204666D01*
X172491680Y-130137294D01*
X172504046Y-130073612D01*
X172524239Y-130014078D01*
X172551749Y-129959877D01*
X172585875Y-129912094D01*
X172626316Y-129871156D01*
X172671799Y-129838339D01*
X172722518Y-129813650D01*
X172776934Y-129798053D01*
X172835564Y-129791702D01*
X172844650Y-129791591D01*
X172903053Y-129796363D01*
X172957433Y-129810229D01*
X173053678Y-129863425D01*
X173129734Y-129947356D01*
X173180778Y-130057426D01*
X173195298Y-130120350D01*
X173201700Y-130187213D01*
X173201977Y-130204666D01*
X173197754Y-130271907D01*
X173185390Y-130335286D01*
X173165245Y-130394280D01*
X173137815Y-130447881D01*
X173103762Y-130495097D01*
X173063410Y-130535492D01*
X173017856Y-130567947D01*
X172967046Y-130592328D01*
X172912269Y-130607759D01*
X172853229Y-130613981D01*
X172844650Y-130614078D01*
G37*
G36*
X171679038Y-130575000D02*
G01*
X170256176Y-130575000D01*
X170256176Y-130158565D01*
X170699611Y-130158565D01*
X170699611Y-128357274D01*
X171032221Y-128357274D01*
X171134103Y-128419428D01*
X171241750Y-128470101D01*
X171457328Y-128535011D01*
X171586616Y-128560301D01*
X171586616Y-128878886D01*
X171152450Y-128878886D01*
X171152450Y-130158565D01*
X171679038Y-130158565D01*
X171679038Y-130575000D01*
G37*
D11*
X155738095Y-88042580D02*
X155738095Y-87328295D01*
X155738095Y-87328295D02*
X155690476Y-87185438D01*
X155690476Y-87185438D02*
X155595238Y-87090200D01*
X155595238Y-87090200D02*
X155452381Y-87042580D01*
X155452381Y-87042580D02*
X155357143Y-87042580D01*
X156166667Y-87328295D02*
X156642857Y-87328295D01*
X156071429Y-87042580D02*
X156404762Y-88042580D01*
X156404762Y-88042580D02*
X156738095Y-87042580D01*
X157642857Y-87137819D02*
X157595238Y-87090200D01*
X157595238Y-87090200D02*
X157452381Y-87042580D01*
X157452381Y-87042580D02*
X157357143Y-87042580D01*
X157357143Y-87042580D02*
X157214286Y-87090200D01*
X157214286Y-87090200D02*
X157119048Y-87185438D01*
X157119048Y-87185438D02*
X157071429Y-87280676D01*
X157071429Y-87280676D02*
X157023810Y-87471152D01*
X157023810Y-87471152D02*
X157023810Y-87614009D01*
X157023810Y-87614009D02*
X157071429Y-87804485D01*
X157071429Y-87804485D02*
X157119048Y-87899723D01*
X157119048Y-87899723D02*
X157214286Y-87994961D01*
X157214286Y-87994961D02*
X157357143Y-88042580D01*
X157357143Y-88042580D02*
X157452381Y-88042580D01*
X157452381Y-88042580D02*
X157595238Y-87994961D01*
X157595238Y-87994961D02*
X157642857Y-87947342D01*
X158071429Y-87042580D02*
X158071429Y-88042580D01*
X158642857Y-87042580D02*
X158214286Y-87614009D01*
X158642857Y-88042580D02*
X158071429Y-87471152D01*
X159023810Y-87947342D02*
X159071429Y-87994961D01*
X159071429Y-87994961D02*
X159166667Y-88042580D01*
X159166667Y-88042580D02*
X159404762Y-88042580D01*
X159404762Y-88042580D02*
X159500000Y-87994961D01*
X159500000Y-87994961D02*
X159547619Y-87947342D01*
X159547619Y-87947342D02*
X159595238Y-87852104D01*
X159595238Y-87852104D02*
X159595238Y-87756866D01*
X159595238Y-87756866D02*
X159547619Y-87614009D01*
X159547619Y-87614009D02*
X158976191Y-87042580D01*
X158976191Y-87042580D02*
X159595238Y-87042580D01*
X210274404Y-85957419D02*
X210274404Y-86671704D01*
X210274404Y-86671704D02*
X210322023Y-86814561D01*
X210322023Y-86814561D02*
X210417261Y-86909800D01*
X210417261Y-86909800D02*
X210560118Y-86957419D01*
X210560118Y-86957419D02*
X210655356Y-86957419D01*
X209845832Y-86671704D02*
X209369642Y-86671704D01*
X209941070Y-86957419D02*
X209607737Y-85957419D01*
X209607737Y-85957419D02*
X209274404Y-86957419D01*
X208369642Y-86862180D02*
X208417261Y-86909800D01*
X208417261Y-86909800D02*
X208560118Y-86957419D01*
X208560118Y-86957419D02*
X208655356Y-86957419D01*
X208655356Y-86957419D02*
X208798213Y-86909800D01*
X208798213Y-86909800D02*
X208893451Y-86814561D01*
X208893451Y-86814561D02*
X208941070Y-86719323D01*
X208941070Y-86719323D02*
X208988689Y-86528847D01*
X208988689Y-86528847D02*
X208988689Y-86385990D01*
X208988689Y-86385990D02*
X208941070Y-86195514D01*
X208941070Y-86195514D02*
X208893451Y-86100276D01*
X208893451Y-86100276D02*
X208798213Y-86005038D01*
X208798213Y-86005038D02*
X208655356Y-85957419D01*
X208655356Y-85957419D02*
X208560118Y-85957419D01*
X208560118Y-85957419D02*
X208417261Y-86005038D01*
X208417261Y-86005038D02*
X208369642Y-86052657D01*
X207941070Y-86957419D02*
X207941070Y-85957419D01*
X207369642Y-86957419D02*
X207798213Y-86385990D01*
X207369642Y-85957419D02*
X207941070Y-86528847D01*
X207036308Y-85957419D02*
X206417261Y-85957419D01*
X206417261Y-85957419D02*
X206750594Y-86338371D01*
X206750594Y-86338371D02*
X206607737Y-86338371D01*
X206607737Y-86338371D02*
X206512499Y-86385990D01*
X206512499Y-86385990D02*
X206464880Y-86433609D01*
X206464880Y-86433609D02*
X206417261Y-86528847D01*
X206417261Y-86528847D02*
X206417261Y-86766942D01*
X206417261Y-86766942D02*
X206464880Y-86862180D01*
X206464880Y-86862180D02*
X206512499Y-86909800D01*
X206512499Y-86909800D02*
X206607737Y-86957419D01*
X206607737Y-86957419D02*
X206893451Y-86957419D01*
X206893451Y-86957419D02*
X206988689Y-86909800D01*
X206988689Y-86909800D02*
X207036308Y-86862180D01*
X155738095Y-68042580D02*
X155738095Y-67328295D01*
X155738095Y-67328295D02*
X155690476Y-67185438D01*
X155690476Y-67185438D02*
X155595238Y-67090200D01*
X155595238Y-67090200D02*
X155452381Y-67042580D01*
X155452381Y-67042580D02*
X155357143Y-67042580D01*
X156166667Y-67328295D02*
X156642857Y-67328295D01*
X156071429Y-67042580D02*
X156404762Y-68042580D01*
X156404762Y-68042580D02*
X156738095Y-67042580D01*
X157642857Y-67137819D02*
X157595238Y-67090200D01*
X157595238Y-67090200D02*
X157452381Y-67042580D01*
X157452381Y-67042580D02*
X157357143Y-67042580D01*
X157357143Y-67042580D02*
X157214286Y-67090200D01*
X157214286Y-67090200D02*
X157119048Y-67185438D01*
X157119048Y-67185438D02*
X157071429Y-67280676D01*
X157071429Y-67280676D02*
X157023810Y-67471152D01*
X157023810Y-67471152D02*
X157023810Y-67614009D01*
X157023810Y-67614009D02*
X157071429Y-67804485D01*
X157071429Y-67804485D02*
X157119048Y-67899723D01*
X157119048Y-67899723D02*
X157214286Y-67994961D01*
X157214286Y-67994961D02*
X157357143Y-68042580D01*
X157357143Y-68042580D02*
X157452381Y-68042580D01*
X157452381Y-68042580D02*
X157595238Y-67994961D01*
X157595238Y-67994961D02*
X157642857Y-67947342D01*
X158071429Y-67042580D02*
X158071429Y-68042580D01*
X158642857Y-67042580D02*
X158214286Y-67614009D01*
X158642857Y-68042580D02*
X158071429Y-67471152D01*
X159595238Y-67042580D02*
X159023810Y-67042580D01*
X159309524Y-67042580D02*
X159309524Y-68042580D01*
X159309524Y-68042580D02*
X159214286Y-67899723D01*
X159214286Y-67899723D02*
X159119048Y-67804485D01*
X159119048Y-67804485D02*
X159023810Y-67756866D01*
D12*
%TO.C,J5*%
X167700000Y-14637500D02*
X167700000Y-28937500D01*
X167700000Y-14637500D02*
X176700000Y-14637500D01*
X169750000Y-28937500D02*
X167700000Y-28937500D01*
X174650000Y-28937500D02*
X176700000Y-28937500D01*
X176700000Y-14637500D02*
X176700000Y-23187500D01*
X176700000Y-28937500D02*
X176700000Y-27687500D01*
X172300000Y-30437500D02*
G75*
G02*
X172100000Y-30437500I-100000J0D01*
G01*
X172100000Y-30437500D02*
G75*
G02*
X172300000Y-30437500I100000J0D01*
G01*
D11*
%TO.C,JACK2*%
X140500000Y-81000000D02*
X141500000Y-82000000D01*
X140500000Y-82000000D02*
X141500000Y-83000000D01*
X140500000Y-82500000D02*
X141500000Y-83500000D01*
X140500000Y-83500000D02*
X141500000Y-84500000D01*
X140500000Y-84500000D02*
X141500000Y-85500000D01*
X140500000Y-85000000D02*
X141500000Y-86000000D01*
X140500000Y-86000000D02*
X141500000Y-87000000D01*
X140500000Y-87000000D02*
X141500000Y-88000000D01*
X140500000Y-87500000D02*
X141500000Y-88500000D01*
X140500000Y-88500000D02*
X141500000Y-89500000D01*
X140500000Y-89500000D02*
X141500000Y-90500000D01*
X140500000Y-90000000D02*
X141500000Y-91000000D01*
X140500000Y-91000000D02*
X141500000Y-92000000D01*
X140500000Y-91500000D02*
X140500000Y-91000000D01*
X140500000Y-92000000D02*
X141500000Y-93000000D01*
X140500000Y-92500000D02*
X141500000Y-93500000D01*
X140500000Y-93000000D02*
X141000000Y-93500000D01*
X141500000Y-81000000D02*
X141000000Y-80500000D01*
X141500000Y-81500000D02*
X140500000Y-80500000D01*
X141500000Y-82500000D02*
X140500000Y-81500000D01*
X141500000Y-84000000D02*
X140500000Y-83000000D01*
X141500000Y-85000000D02*
X140500000Y-84000000D01*
X141500000Y-86500000D02*
X140500000Y-85500000D01*
X141500000Y-87500000D02*
X140500000Y-86500000D01*
X141500000Y-89000000D02*
X140500000Y-88000000D01*
X141500000Y-90000000D02*
X140500000Y-89000000D01*
X141500000Y-91500000D02*
X140500000Y-90500000D01*
X141500000Y-92500000D02*
X140500000Y-91500000D01*
X140500000Y-93500000D02*
X167000000Y-93500000D01*
X167000000Y-80500000D01*
X140500000Y-80500000D01*
X140500000Y-93500000D01*
%TO.C,JACK3*%
X224512500Y-81500000D02*
X225512500Y-82500000D01*
X224512500Y-82500000D02*
X225512500Y-83500000D01*
X224512500Y-84000000D02*
X225512500Y-85000000D01*
X224512500Y-85000000D02*
X225512500Y-86000000D01*
X224512500Y-86500000D02*
X225512500Y-87500000D01*
X224512500Y-87500000D02*
X225512500Y-88500000D01*
X224512500Y-89000000D02*
X225512500Y-90000000D01*
X224512500Y-90000000D02*
X225512500Y-91000000D01*
X224512500Y-91500000D02*
X225512500Y-92500000D01*
X224512500Y-92500000D02*
X225512500Y-93500000D01*
X224512500Y-93000000D02*
X225012500Y-93500000D01*
X225512500Y-81000000D02*
X225012500Y-80500000D01*
X225512500Y-81500000D02*
X224512500Y-80500000D01*
X225512500Y-82000000D02*
X224512500Y-81000000D01*
X225512500Y-82500000D02*
X225512500Y-83000000D01*
X225512500Y-83000000D02*
X224512500Y-82000000D01*
X225512500Y-84000000D02*
X224512500Y-83000000D01*
X225512500Y-84500000D02*
X224512500Y-83500000D01*
X225512500Y-85500000D02*
X224512500Y-84500000D01*
X225512500Y-86500000D02*
X224512500Y-85500000D01*
X225512500Y-87000000D02*
X224512500Y-86000000D01*
X225512500Y-88000000D02*
X224512500Y-87000000D01*
X225512500Y-89000000D02*
X224512500Y-88000000D01*
X225512500Y-89500000D02*
X224512500Y-88500000D01*
X225512500Y-90500000D02*
X224512500Y-89500000D01*
X225512500Y-91500000D02*
X224512500Y-90500000D01*
X225512500Y-92000000D02*
X224512500Y-91000000D01*
X225512500Y-93000000D02*
X224512500Y-92000000D01*
X225512500Y-80500000D02*
X199012500Y-80500000D01*
X199012500Y-93500000D01*
X225512500Y-93500000D01*
X225512500Y-80500000D01*
%TO.C,JACK1*%
X140500000Y-61000000D02*
X141500000Y-62000000D01*
X140500000Y-62000000D02*
X141500000Y-63000000D01*
X140500000Y-62500000D02*
X141500000Y-63500000D01*
X140500000Y-63500000D02*
X141500000Y-64500000D01*
X140500000Y-64500000D02*
X141500000Y-65500000D01*
X140500000Y-65000000D02*
X141500000Y-66000000D01*
X140500000Y-66000000D02*
X141500000Y-67000000D01*
X140500000Y-67000000D02*
X141500000Y-68000000D01*
X140500000Y-67500000D02*
X141500000Y-68500000D01*
X140500000Y-68500000D02*
X141500000Y-69500000D01*
X140500000Y-69500000D02*
X141500000Y-70500000D01*
X140500000Y-70000000D02*
X141500000Y-71000000D01*
X140500000Y-71000000D02*
X141500000Y-72000000D01*
X140500000Y-71500000D02*
X140500000Y-71000000D01*
X140500000Y-72000000D02*
X141500000Y-73000000D01*
X140500000Y-72500000D02*
X141500000Y-73500000D01*
X140500000Y-73000000D02*
X141000000Y-73500000D01*
X141500000Y-61000000D02*
X141000000Y-60500000D01*
X141500000Y-61500000D02*
X140500000Y-60500000D01*
X141500000Y-62500000D02*
X140500000Y-61500000D01*
X141500000Y-64000000D02*
X140500000Y-63000000D01*
X141500000Y-65000000D02*
X140500000Y-64000000D01*
X141500000Y-66500000D02*
X140500000Y-65500000D01*
X141500000Y-67500000D02*
X140500000Y-66500000D01*
X141500000Y-69000000D02*
X140500000Y-68000000D01*
X141500000Y-70000000D02*
X140500000Y-69000000D01*
X141500000Y-71500000D02*
X140500000Y-70500000D01*
X141500000Y-72500000D02*
X140500000Y-71500000D01*
X140500000Y-73500000D02*
X167000000Y-73500000D01*
X167000000Y-60500000D01*
X140500000Y-60500000D01*
X140500000Y-73500000D01*
%TD*%
M02*
