M48
; DRILL file {KiCad 9.0.2} date 2025-06-25T22:06:44+0200
; FORMAT={-:-/ absolute / metric / decimal}
; #@! TF.CreationDate,2025-06-25T22:06:44+02:00
; #@! TF.GenerationSoftware,Kicad,Pcbnew,9.0.2
; #@! TF.FileFunction,Plated,1,2,PTH
FMAT,2
METRIC
; #@! TA.AperFunction,Plated,PTH,ViaDrill
T1C0.300
; #@! TA.AperFunction,Plated,PTH,ComponentDrill
T2C0.800
; #@! TA.AperFunction,Plated,PTH,ComponentDrill
T3C1.000
; #@! TA.AperFunction,Plated,PTH,ComponentDrill
T4C1.020
; #@! TA.AperFunction,Plated,PTH,ComponentDrill
T5C1.100
; #@! TA.AperFunction,Plated,PTH,ComponentDrill
T6C1.200
; #@! TA.AperFunction,Plated,PTH,ComponentDrill
T7C1.300
%
G90
G05
T1
X144.133Y-59.759
X148.0Y-94.0
X158.0Y-28.5
X166.0Y-22.0
X166.5Y-27.0
X171.0Y-98.0
X182.0Y-122.0
X183.0Y-53.0
X184.0Y-59.0
X185.0Y-118.811
X190.0Y-23.0
X194.0Y-82.0
X197.381Y-98.144
X198.0Y-21.5
X198.0Y-23.5
X198.071Y-101.097
X199.5Y-25.0
X202.0Y-37.0
X203.0Y-45.0
X203.0Y-57.0
X204.0Y-35.0
X206.0Y-32.0
X206.0Y-42.0
X206.0Y-64.0
X207.0Y-30.0
X207.0Y-50.0
X209.0Y-25.0
X209.0Y-29.0
X209.0Y-58.0
X209.5Y-22.0
X209.754Y-65.664
X212.0Y-84.0
X212.726Y-72.247
X213.0Y-77.0
X216.0Y-91.0
X216.0Y-94.5
X216.053Y-55.576
X216.81Y-49.811
X217.44Y-58.993
X218.0Y-30.0
X218.177Y-39.044
X218.542Y-63.438
X220.0Y-72.0
X220.0Y-74.0
X220.417Y-29.255
X225.062Y-68.617
T2
X172.0Y-62.0
X172.0Y-64.0
X172.0Y-89.0
X172.0Y-91.0
X175.38Y-74.0
X175.38Y-78.95
X175.38Y-84.0
X183.0Y-74.0
X183.0Y-78.95
X183.0Y-84.0
T3
X150.0Y-23.0
X150.0Y-25.54
X156.0Y-23.0
X158.54Y-23.0
X161.08Y-23.0
X193.606Y-97.65
X193.606Y-100.19
X200.21Y-96.888
X202.75Y-96.888
X205.29Y-96.888
X207.83Y-96.888
X210.37Y-96.888
X212.91Y-96.888
X215.45Y-96.888
X217.99Y-96.888
X220.53Y-96.888
X220.75Y-30.95
X220.75Y-33.49
X220.75Y-36.03
X220.75Y-38.57
X220.75Y-41.11
X220.75Y-43.65
X220.75Y-46.19
X220.75Y-48.73
X220.75Y-51.27
X220.75Y-53.81
X220.75Y-56.35
X220.75Y-58.89
X220.75Y-61.43
X220.75Y-63.97
X220.75Y-66.51
X220.75Y-69.05
X223.29Y-30.95
X223.29Y-33.49
X223.29Y-36.03
X223.29Y-38.57
X223.29Y-41.11
X223.29Y-43.65
X223.29Y-46.19
X223.29Y-48.73
X223.29Y-51.27
X223.29Y-53.81
X223.29Y-56.35
X223.29Y-58.89
X223.29Y-61.43
X223.29Y-63.97
X223.29Y-66.51
X223.29Y-69.05
X224.0Y-73.0
X224.0Y-75.54
X224.0Y-78.08
T4
X195.11Y-21.87
X195.11Y-24.41
X195.11Y-26.95
X195.11Y-29.49
X195.11Y-32.03
X195.11Y-34.57
X195.11Y-37.11
X195.11Y-39.65
X195.11Y-42.19
X195.11Y-44.73
X195.11Y-47.27
X195.11Y-49.81
X195.11Y-52.35
X195.11Y-54.89
X195.11Y-57.43
X195.11Y-59.97
X195.11Y-62.51
X195.11Y-65.05
X195.11Y-67.59
X195.11Y-70.13
X201.46Y-69.9
X204.0Y-69.9
X206.54Y-69.9
X212.89Y-21.87
X212.89Y-24.41
X212.89Y-26.95
X212.89Y-29.49
X212.89Y-32.03
X212.89Y-34.57
X212.89Y-37.11
X212.89Y-39.65
X212.89Y-42.19
X212.89Y-44.73
X212.89Y-47.27
X212.89Y-49.81
X212.89Y-52.35
X212.89Y-54.89
X212.89Y-57.43
X212.89Y-59.97
X212.89Y-62.51
X212.89Y-65.05
X212.89Y-67.59
X212.89Y-70.13
T5
X181.46Y-23.0
X184.0Y-23.0
X186.54Y-23.0
T6
X193.606Y-102.73
X193.606Y-105.27
X193.606Y-110.35
T7
X151.65Y-33.935
X151.65Y-58.065
X151.65Y-97.935
X151.65Y-122.065
X154.19Y-33.935
X154.19Y-58.065
X154.19Y-97.935
X154.19Y-122.065
X156.73Y-33.935
X156.73Y-58.065
X156.73Y-97.935
X156.73Y-122.065
X159.27Y-33.935
X159.27Y-58.065
X159.27Y-97.935
X159.27Y-122.065
X161.81Y-33.935
X161.81Y-58.065
X161.81Y-97.935
X161.81Y-122.065
X164.35Y-33.935
X164.35Y-58.065
X164.35Y-97.935
X164.35Y-122.065
X172.605Y-46.0
X172.605Y-110.0
X172.63Y-43.485
X172.63Y-48.565
X172.63Y-107.485
X172.63Y-112.565
X193.606Y-107.81
T3
G00X171.1Y-22.037
M15
G01X173.3Y-22.037
M16
G05
G00X170.9Y-28.337
M15
G01X173.5Y-28.337
M16
G05
G00X177.0Y-24.337
M15
G01X177.0Y-26.537
M16
G05
T7
G00X146.85Y-67.0
M15
G01X148.15Y-67.0
M16
G05
G00X146.85Y-87.0
M15
G01X148.15Y-87.0
M16
G05
G00X161.75Y-69.5
M15
G01X163.25Y-69.5
M16
G05
G00X161.75Y-89.5
M15
G01X163.25Y-89.5
M16
G05
G00X162.75Y-64.5
M15
G01X164.25Y-64.5
M16
G05
G00X162.75Y-84.5
M15
G01X164.25Y-84.5
M16
G05
G00X203.262Y-89.5
M15
G01X201.762Y-89.5
M16
G05
G00X204.262Y-84.5
M15
G01X202.762Y-84.5
M16
G05
G00X219.162Y-87.0
M15
G01X217.862Y-87.0
M16
G05
M30
