%TF.GenerationSoftware,KiCad,Pcbnew,9.0.2*%
%TF.CreationDate,2025-06-25T22:06:45+02:00*%
%TF.ProjectId,baseboard,62617365-626f-4617-9264-2e6b69636164,rev?*%
%TF.SameCoordinates,Original*%
%TF.FileFunction,Legend,Top*%
%TF.FilePolarity,Positive*%
%FSLAX46Y46*%
G04 Gerber Fmt 4.6, Leading zero omitted, Abs format (unit mm)*
G04 Created by KiCad (PCBNEW 9.0.2) date 2025-06-25 22:06:45*
%MOMM*%
%LPD*%
G01*
G04 APERTURE LIST*
%ADD10C,0.300000*%
%ADD11C,0.150000*%
%ADD12C,0.800000*%
%ADD13C,0.100000*%
%ADD14C,0.120000*%
G04 APERTURE END LIST*
D10*
G36*
X170750525Y-128723639D02*
G01*
X170735077Y-128996427D01*
X170744346Y-128996427D01*
X170771044Y-128968629D01*
X170830490Y-128917074D01*
X170894532Y-128874038D01*
X171030136Y-128815892D01*
X171163198Y-128796912D01*
X171307315Y-128814861D01*
X171374103Y-128837271D01*
X171436390Y-128868241D01*
X171494864Y-128908137D01*
X171548369Y-128956237D01*
X171598111Y-129014028D01*
X171642224Y-129079852D01*
X171681862Y-129156297D01*
X171715038Y-129240646D01*
X171742412Y-129336100D01*
X171762388Y-129439225D01*
X171774994Y-129553097D01*
X171779252Y-129674201D01*
X171777929Y-129739970D01*
X171769043Y-129853397D01*
X171752263Y-129959630D01*
X171727891Y-130059357D01*
X171696609Y-130151425D01*
X171658598Y-130236428D01*
X171614703Y-130313282D01*
X171565100Y-130382320D01*
X171510708Y-130442729D01*
X171451890Y-130494513D01*
X171389448Y-130537245D01*
X171256342Y-130594771D01*
X171116987Y-130614078D01*
X171116987Y-130617131D01*
X171082630Y-130615567D01*
X171018862Y-130604543D01*
X170955131Y-130583142D01*
X170889863Y-130550334D01*
X170825815Y-130506895D01*
X170762248Y-130451761D01*
X170701225Y-130386017D01*
X170688866Y-130386017D01*
X170651924Y-130575000D01*
X170297687Y-130575000D01*
X170297687Y-129377446D01*
X170750525Y-129377446D01*
X170750525Y-130079034D01*
X170775014Y-130101151D01*
X170831985Y-130141682D01*
X170889730Y-130170136D01*
X170954442Y-130189592D01*
X171015297Y-130197034D01*
X171015297Y-130194133D01*
X171025236Y-130193949D01*
X171115912Y-130172827D01*
X171156043Y-130149339D01*
X171192753Y-130116879D01*
X171226069Y-130074414D01*
X171254820Y-130022160D01*
X171279322Y-129957152D01*
X171297745Y-129880987D01*
X171309867Y-129789195D01*
X171314055Y-129684582D01*
X171300411Y-129498621D01*
X171265118Y-129372961D01*
X171211884Y-129288754D01*
X171177502Y-129258538D01*
X171137967Y-129236518D01*
X171089028Y-129221890D01*
X171033835Y-129217009D01*
X170968085Y-129224689D01*
X170916637Y-129242392D01*
X170865788Y-129270914D01*
X170808523Y-129316637D01*
X170750525Y-129377446D01*
X170297687Y-129377446D01*
X170297687Y-128122801D01*
X170750525Y-128122801D01*
X170750525Y-128723639D01*
G37*
G36*
X172898698Y-128797072D02*
G01*
X173076947Y-128817368D01*
X173222942Y-128868081D01*
X173341348Y-128946198D01*
X173435593Y-129051884D01*
X173474354Y-129116448D01*
X173506800Y-129188458D01*
X173533573Y-129271012D01*
X173553167Y-129361674D01*
X173565793Y-129465630D01*
X173570053Y-129578641D01*
X173570053Y-130575000D01*
X173200501Y-130575000D01*
X173166515Y-130376094D01*
X173154290Y-130376094D01*
X173071958Y-130441675D01*
X172911739Y-130539105D01*
X172757906Y-130595725D01*
X172612120Y-130614078D01*
X172612120Y-130617131D01*
X172482099Y-130602208D01*
X172416167Y-130581432D01*
X172355858Y-130552498D01*
X172301171Y-130515782D01*
X172252751Y-130472033D01*
X172210620Y-130421492D01*
X172175437Y-130365061D01*
X172147353Y-130302980D01*
X172126902Y-130236204D01*
X172114363Y-130165143D01*
X172110115Y-130090635D01*
X172113253Y-130050793D01*
X172544416Y-130050793D01*
X172546348Y-130079142D01*
X172555876Y-130115565D01*
X172572935Y-130146223D01*
X172601163Y-130174440D01*
X172637950Y-130195388D01*
X172692417Y-130211180D01*
X172756931Y-130217031D01*
X172756931Y-130215199D01*
X172811418Y-130211407D01*
X172880714Y-130195511D01*
X172946945Y-130168703D01*
X173034267Y-130116530D01*
X173117214Y-130050793D01*
X173117214Y-129764113D01*
X172879458Y-129791298D01*
X172713825Y-129836898D01*
X172616768Y-129892898D01*
X172585448Y-129924981D01*
X172563650Y-129959815D01*
X172548969Y-130003700D01*
X172544416Y-130050793D01*
X172113253Y-130050793D01*
X172118943Y-129978538D01*
X172156006Y-129854232D01*
X172186211Y-129798274D01*
X172224466Y-129746715D01*
X172274158Y-129696715D01*
X172333491Y-129651504D01*
X172410287Y-129607178D01*
X172499508Y-129568433D01*
X172615241Y-129531367D01*
X172747758Y-129501055D01*
X172920714Y-129474443D01*
X173117214Y-129456215D01*
X173114875Y-129437304D01*
X173085456Y-129344863D01*
X173060043Y-129306645D01*
X173027362Y-129274175D01*
X172984476Y-129246238D01*
X172933109Y-129225447D01*
X172867165Y-129211290D01*
X172790784Y-129206476D01*
X172784927Y-129206509D01*
X172703133Y-129213602D01*
X172620702Y-129232355D01*
X172478418Y-129286823D01*
X172325721Y-129365997D01*
X172165595Y-129031537D01*
X172273115Y-128966687D01*
X172479284Y-128871557D01*
X172681588Y-128815434D01*
X172880115Y-128796912D01*
X172898698Y-128797072D01*
G37*
G36*
X174680185Y-130614078D02*
G01*
X174795438Y-130609288D01*
X174901480Y-130595299D01*
X174996272Y-130573237D01*
X175082029Y-130543437D01*
X175156719Y-130507513D01*
X175222657Y-130465259D01*
X175278220Y-130418639D01*
X175325357Y-130366967D01*
X175363139Y-130312120D01*
X175392739Y-130253314D01*
X175426865Y-130127037D01*
X175431647Y-130054610D01*
X175427100Y-129969592D01*
X175412465Y-129892664D01*
X175392081Y-129835530D01*
X175363227Y-129782871D01*
X175282435Y-129693926D01*
X175156239Y-129613592D01*
X174957959Y-129535749D01*
X174831176Y-129499568D01*
X174804969Y-129492865D01*
X174652887Y-129452520D01*
X174551329Y-129416231D01*
X174494584Y-129373681D01*
X174481231Y-129346834D01*
X174476938Y-129314554D01*
X174481238Y-129281865D01*
X174494136Y-129252700D01*
X174543931Y-129208052D01*
X174634550Y-129181677D01*
X174689454Y-129178541D01*
X174858998Y-129197579D01*
X175033793Y-129255910D01*
X175188369Y-129342489D01*
X175391616Y-129035048D01*
X175279317Y-128960923D01*
X175149559Y-128892554D01*
X175047404Y-128851684D01*
X174937523Y-128820376D01*
X174839049Y-128803426D01*
X174735664Y-128796932D01*
X174729486Y-128796912D01*
X174621291Y-128801721D01*
X174520850Y-128815844D01*
X174430780Y-128838139D01*
X174348802Y-128868428D01*
X174277802Y-128904781D01*
X174214967Y-128947788D01*
X174162741Y-128994863D01*
X174118579Y-129047363D01*
X174083968Y-129102681D01*
X174057331Y-129162417D01*
X174039234Y-129224831D01*
X174029240Y-129290914D01*
X174027190Y-129338978D01*
X174031555Y-129411304D01*
X174044914Y-129478718D01*
X174065413Y-129536338D01*
X174094119Y-129590041D01*
X174175831Y-129684745D01*
X174299136Y-129768802D01*
X174480236Y-129843866D01*
X174609391Y-129880129D01*
X174833773Y-129942343D01*
X174903319Y-129970837D01*
X174949266Y-130000958D01*
X174970428Y-130026157D01*
X174981867Y-130054766D01*
X174985122Y-130086056D01*
X174980792Y-130119077D01*
X174967677Y-130149109D01*
X174916600Y-130196400D01*
X174823087Y-130226739D01*
X174741844Y-130232602D01*
X174549033Y-130213430D01*
X174359739Y-130156015D01*
X174175606Y-130060121D01*
X174125791Y-130026674D01*
X173931813Y-130348159D01*
X174119600Y-130466487D01*
X174225684Y-130516295D01*
X174337575Y-130557608D01*
X174446625Y-130587235D01*
X174557912Y-130606500D01*
X174680185Y-130614078D01*
G37*
G36*
X176615045Y-128797634D02*
G01*
X176703363Y-128805889D01*
X176785788Y-128823014D01*
X176862087Y-128848503D01*
X176932428Y-128881962D01*
X176997419Y-128923441D01*
X177056227Y-128972183D01*
X177110013Y-129029193D01*
X177157204Y-129092889D01*
X177199035Y-129165329D01*
X177233689Y-129243896D01*
X177262001Y-129331339D01*
X177282457Y-129424227D01*
X177295269Y-129525270D01*
X177299555Y-129630848D01*
X177292192Y-129755784D01*
X177279639Y-129850331D01*
X177277928Y-129861810D01*
X176236977Y-129861810D01*
X176264677Y-129965608D01*
X176290400Y-130021713D01*
X176322263Y-130070581D01*
X176361650Y-130113813D01*
X176407266Y-130149564D01*
X176463759Y-130180159D01*
X176527137Y-130202291D01*
X176605977Y-130217288D01*
X176692771Y-130222221D01*
X176728719Y-130221269D01*
X176810301Y-130211655D01*
X176889721Y-130191848D01*
X176987070Y-130153757D01*
X177087040Y-130100863D01*
X177237896Y-130411204D01*
X177194120Y-130440925D01*
X177103789Y-130492914D01*
X177008340Y-130536523D01*
X176813029Y-130595227D01*
X176631246Y-130614078D01*
X176483409Y-130602985D01*
X176308224Y-130557309D01*
X176155590Y-130480028D01*
X176027400Y-130374778D01*
X175924744Y-130244152D01*
X175883379Y-130169924D01*
X175848692Y-130089451D01*
X175821134Y-130003132D01*
X175800962Y-129910867D01*
X175788508Y-129812274D01*
X175784273Y-129707937D01*
X175788966Y-129600428D01*
X175800297Y-129515443D01*
X176243156Y-129515443D01*
X176896017Y-129515443D01*
X176887630Y-129457080D01*
X176850447Y-129341938D01*
X176791614Y-129260433D01*
X176752895Y-129230314D01*
X176708562Y-129208314D01*
X176654571Y-129193788D01*
X176594304Y-129188921D01*
X176549656Y-129191307D01*
X176443297Y-129220668D01*
X176357149Y-129281999D01*
X176320679Y-129325786D01*
X176289646Y-129377988D01*
X176263111Y-129442051D01*
X176243156Y-129515443D01*
X175800297Y-129515443D01*
X175802085Y-129502036D01*
X175823113Y-129409371D01*
X175852316Y-129320525D01*
X175888710Y-129238023D01*
X175933114Y-129159865D01*
X175983934Y-129088799D01*
X176042289Y-129023255D01*
X176106119Y-128965617D01*
X176176270Y-128915114D01*
X176250719Y-128873281D01*
X176329402Y-128840100D01*
X176410994Y-128816165D01*
X176578856Y-128796912D01*
X176615045Y-128797634D01*
G37*
G36*
X178135647Y-128723639D02*
G01*
X178120199Y-128996427D01*
X178129468Y-128996427D01*
X178156166Y-128968629D01*
X178215612Y-128917074D01*
X178279654Y-128874038D01*
X178415258Y-128815892D01*
X178548320Y-128796912D01*
X178692437Y-128814861D01*
X178759225Y-128837271D01*
X178821512Y-128868241D01*
X178879986Y-128908137D01*
X178933491Y-128956237D01*
X178983233Y-129014028D01*
X179027346Y-129079852D01*
X179066984Y-129156297D01*
X179100160Y-129240646D01*
X179127535Y-129336100D01*
X179147510Y-129439225D01*
X179160117Y-129553097D01*
X179164374Y-129674201D01*
X179163051Y-129739970D01*
X179154165Y-129853397D01*
X179137385Y-129959630D01*
X179113013Y-130059357D01*
X179081732Y-130151425D01*
X179043720Y-130236428D01*
X178999825Y-130313282D01*
X178950222Y-130382320D01*
X178895830Y-130442729D01*
X178837012Y-130494513D01*
X178774570Y-130537245D01*
X178641464Y-130594771D01*
X178502109Y-130614078D01*
X178502109Y-130617131D01*
X178467752Y-130615567D01*
X178403985Y-130604543D01*
X178340253Y-130583142D01*
X178274985Y-130550334D01*
X178210937Y-130506895D01*
X178147370Y-130451761D01*
X178086347Y-130386017D01*
X178073988Y-130386017D01*
X178037047Y-130575000D01*
X177682809Y-130575000D01*
X177682809Y-129377446D01*
X178135647Y-129377446D01*
X178135647Y-130079034D01*
X178160136Y-130101151D01*
X178217107Y-130141682D01*
X178274852Y-130170136D01*
X178339564Y-130189592D01*
X178400419Y-130197034D01*
X178400419Y-130194133D01*
X178410359Y-130193949D01*
X178501035Y-130172827D01*
X178541165Y-130149339D01*
X178577875Y-130116879D01*
X178611191Y-130074414D01*
X178639942Y-130022160D01*
X178664444Y-129957152D01*
X178682867Y-129880987D01*
X178694989Y-129789195D01*
X178699177Y-129684582D01*
X178685533Y-129498621D01*
X178650240Y-129372961D01*
X178597006Y-129288754D01*
X178562624Y-129258538D01*
X178523090Y-129236518D01*
X178474150Y-129221890D01*
X178418957Y-129217009D01*
X178353207Y-129224689D01*
X178301759Y-129242392D01*
X178250910Y-129270914D01*
X178193645Y-129316637D01*
X178135647Y-129377446D01*
X177682809Y-129377446D01*
X177682809Y-128122801D01*
X178135647Y-128122801D01*
X178135647Y-128723639D01*
G37*
G36*
X180334267Y-128804183D02*
G01*
X180495745Y-128846496D01*
X180642247Y-128923527D01*
X180768385Y-129031066D01*
X180870626Y-129165226D01*
X180946583Y-129323218D01*
X180973971Y-129410346D01*
X180994116Y-129503529D01*
X181006438Y-129601741D01*
X181010654Y-129705648D01*
X181006647Y-129806956D01*
X180994262Y-129906846D01*
X180974008Y-130000725D01*
X180945736Y-130090264D01*
X180910345Y-130173253D01*
X180867140Y-130251561D01*
X180817596Y-130322653D01*
X180760638Y-130388102D01*
X180698252Y-130445586D01*
X180629475Y-130495988D01*
X180556393Y-130537699D01*
X180478782Y-130570872D01*
X180398198Y-130594783D01*
X180231385Y-130614078D01*
X180128551Y-130606821D01*
X179967031Y-130564538D01*
X179820515Y-130487549D01*
X179694377Y-130380062D01*
X179592141Y-130245958D01*
X179516188Y-130088016D01*
X179488800Y-130000907D01*
X179468656Y-129907744D01*
X179456333Y-129809544D01*
X179452116Y-129705648D01*
X179917179Y-129705648D01*
X179918181Y-129755424D01*
X179939376Y-129920412D01*
X179982966Y-130041596D01*
X180045046Y-130126131D01*
X180083184Y-130156391D01*
X180126290Y-130178628D01*
X180176174Y-130192825D01*
X180231385Y-130197644D01*
X180233028Y-130197640D01*
X180334567Y-130179374D01*
X180378420Y-130157126D01*
X180417166Y-130126626D01*
X180452933Y-130085319D01*
X180482867Y-130035454D01*
X180509108Y-129971104D01*
X180528261Y-129897500D01*
X180541158Y-129806422D01*
X180545457Y-129705648D01*
X180544456Y-129655828D01*
X180523273Y-129490745D01*
X180479712Y-129369539D01*
X180417673Y-129285008D01*
X180379556Y-129254751D01*
X180336469Y-129232516D01*
X180286594Y-129218318D01*
X180231385Y-129213498D01*
X180229593Y-129213503D01*
X180128068Y-129231817D01*
X180084216Y-129254090D01*
X180045468Y-129284616D01*
X180009700Y-129325948D01*
X179979763Y-129375840D01*
X179953525Y-129440204D01*
X179934372Y-129513821D01*
X179921478Y-129604887D01*
X179917179Y-129705648D01*
X179452116Y-129705648D01*
X179456138Y-129604120D01*
X179468536Y-129504201D01*
X179488802Y-129410295D01*
X179517083Y-129320739D01*
X179552481Y-129237734D01*
X179595688Y-129159419D01*
X179645232Y-129088321D01*
X179702183Y-129022874D01*
X179764561Y-128965391D01*
X179833325Y-128914994D01*
X179906395Y-128873286D01*
X179983994Y-128840116D01*
X180064569Y-128816207D01*
X180231385Y-128796912D01*
X180334267Y-128804183D01*
G37*
G36*
X182130101Y-128797072D02*
G01*
X182308350Y-128817368D01*
X182454345Y-128868081D01*
X182572751Y-128946198D01*
X182666996Y-129051884D01*
X182705757Y-129116448D01*
X182738203Y-129188458D01*
X182764976Y-129271012D01*
X182784570Y-129361674D01*
X182797195Y-129465630D01*
X182801455Y-129578641D01*
X182801455Y-130575000D01*
X182431904Y-130575000D01*
X182397917Y-130376094D01*
X182385693Y-130376094D01*
X182303361Y-130441675D01*
X182143142Y-130539105D01*
X181989308Y-130595725D01*
X181843523Y-130614078D01*
X181843523Y-130617131D01*
X181713501Y-130602208D01*
X181647570Y-130581432D01*
X181587260Y-130552498D01*
X181532574Y-130515782D01*
X181484153Y-130472033D01*
X181442023Y-130421492D01*
X181406839Y-130365061D01*
X181378755Y-130302980D01*
X181358305Y-130236204D01*
X181345766Y-130165143D01*
X181341518Y-130090635D01*
X181344656Y-130050793D01*
X181775818Y-130050793D01*
X181777751Y-130079142D01*
X181787279Y-130115565D01*
X181804338Y-130146223D01*
X181832566Y-130174440D01*
X181869353Y-130195388D01*
X181923820Y-130211180D01*
X181988334Y-130217031D01*
X181988334Y-130215199D01*
X182042821Y-130211407D01*
X182112117Y-130195511D01*
X182178347Y-130168703D01*
X182265669Y-130116530D01*
X182348617Y-130050793D01*
X182348617Y-129764113D01*
X182110861Y-129791298D01*
X181945227Y-129836898D01*
X181848171Y-129892898D01*
X181816850Y-129924981D01*
X181795053Y-129959815D01*
X181780372Y-130003700D01*
X181775818Y-130050793D01*
X181344656Y-130050793D01*
X181350346Y-129978538D01*
X181387408Y-129854232D01*
X181417614Y-129798274D01*
X181455868Y-129746715D01*
X181505560Y-129696715D01*
X181564894Y-129651504D01*
X181641690Y-129607178D01*
X181730911Y-129568433D01*
X181846644Y-129531367D01*
X181979161Y-129501055D01*
X182152117Y-129474443D01*
X182348617Y-129456215D01*
X182346278Y-129437304D01*
X182316858Y-129344863D01*
X182291446Y-129306645D01*
X182258765Y-129274175D01*
X182215879Y-129246238D01*
X182164512Y-129225447D01*
X182098567Y-129211290D01*
X182022186Y-129206476D01*
X182016329Y-129206509D01*
X181934535Y-129213602D01*
X181852105Y-129232355D01*
X181709821Y-129286823D01*
X181557123Y-129365997D01*
X181396998Y-129031537D01*
X181504518Y-128966687D01*
X181710687Y-128871557D01*
X181912991Y-128815434D01*
X182111518Y-128796912D01*
X182130101Y-128797072D01*
G37*
G36*
X183357193Y-130575000D02*
G01*
X183809897Y-130575000D01*
X183809897Y-129672064D01*
X183851750Y-129582419D01*
X183897382Y-129504795D01*
X183946081Y-129438884D01*
X183997539Y-129383773D01*
X184108255Y-129302907D01*
X184228510Y-129258500D01*
X184324261Y-129248456D01*
X184416292Y-129253237D01*
X184493754Y-129267167D01*
X184595346Y-129297457D01*
X184687767Y-128866979D01*
X184585622Y-128823142D01*
X184470127Y-128800168D01*
X184392099Y-128796912D01*
X184313153Y-128801810D01*
X184235957Y-128816557D01*
X184162629Y-128840559D01*
X184091790Y-128874116D01*
X184024928Y-128916518D01*
X183961249Y-128968308D01*
X183901562Y-129029075D01*
X183845767Y-129099232D01*
X183772956Y-129217009D01*
X183763821Y-129217009D01*
X183726745Y-128835990D01*
X183357193Y-128835990D01*
X183357193Y-130575000D01*
G37*
G36*
X186472389Y-130575000D02*
G01*
X186102837Y-130575000D01*
X186068985Y-130393649D01*
X186059716Y-130393649D01*
X186012732Y-130441469D01*
X185884548Y-130538426D01*
X185755762Y-130595680D01*
X185634684Y-130614078D01*
X185634684Y-130617131D01*
X185610599Y-130616686D01*
X185463464Y-130592622D01*
X185396407Y-130567382D01*
X185333660Y-130533611D01*
X185275017Y-130491170D01*
X185221205Y-130440504D01*
X185171511Y-130380560D01*
X185127325Y-130312515D01*
X185087893Y-130234362D01*
X185054800Y-130148147D01*
X185027627Y-130051221D01*
X185007739Y-129946295D01*
X184995205Y-129830576D01*
X184990958Y-129707021D01*
X184991080Y-129698626D01*
X185456021Y-129698626D01*
X185456134Y-129717664D01*
X185472411Y-129903034D01*
X185510977Y-130032446D01*
X185567990Y-130120438D01*
X185604411Y-130152305D01*
X185645553Y-130175515D01*
X185695957Y-130191245D01*
X185751689Y-130197034D01*
X185751689Y-130194133D01*
X185837672Y-130181737D01*
X185884294Y-130162355D01*
X185928981Y-130133126D01*
X185975121Y-130089952D01*
X186019684Y-130033696D01*
X186019684Y-129332109D01*
X185984664Y-129299874D01*
X185934110Y-129263693D01*
X185883039Y-129238563D01*
X185824288Y-129222146D01*
X185764048Y-129217009D01*
X185753957Y-129217199D01*
X185660351Y-129238963D01*
X185580052Y-129295804D01*
X185545599Y-129337755D01*
X185515824Y-129388860D01*
X185490960Y-129450422D01*
X185472263Y-129521710D01*
X185460200Y-129604939D01*
X185456021Y-129698626D01*
X184991080Y-129698626D01*
X184991587Y-129663765D01*
X184999131Y-129553716D01*
X185014751Y-129450183D01*
X185038278Y-129351949D01*
X185068926Y-129260899D01*
X185106664Y-129176125D01*
X185150469Y-129099227D01*
X185200187Y-129029853D01*
X185254788Y-128969001D01*
X185313663Y-128916891D01*
X185376122Y-128873818D01*
X185507957Y-128816140D01*
X185643953Y-128796912D01*
X185649731Y-128796938D01*
X185787679Y-128815939D01*
X185850154Y-128839387D01*
X185907432Y-128871690D01*
X185970325Y-128921326D01*
X186028953Y-128982536D01*
X186041178Y-128982536D01*
X186019684Y-128713106D01*
X186019684Y-128122801D01*
X186472389Y-128122801D01*
X186472389Y-130575000D01*
G37*
G36*
X189210241Y-130575000D02*
G01*
X189730784Y-130575000D01*
X190291223Y-128835990D01*
X189857057Y-128835990D01*
X189616734Y-129656952D01*
X189527301Y-130006583D01*
X189481192Y-130193523D01*
X189468967Y-130193523D01*
X189436442Y-130064152D01*
X189330335Y-129656952D01*
X189090147Y-128835990D01*
X188634219Y-128835990D01*
X189210241Y-130575000D01*
G37*
G36*
X191320842Y-129178223D02*
G01*
X191366797Y-129185279D01*
X191409131Y-129201331D01*
X191478597Y-129257013D01*
X191523782Y-129339367D01*
X191535813Y-129389067D01*
X191539988Y-129444002D01*
X191539890Y-129452628D01*
X191534380Y-129507343D01*
X191520972Y-129556631D01*
X191499982Y-129600736D01*
X191472398Y-129638144D01*
X191438461Y-129668732D01*
X191399402Y-129691292D01*
X191355956Y-129705284D01*
X191309069Y-129710075D01*
X191297206Y-129709778D01*
X191251244Y-129702703D01*
X191208895Y-129686630D01*
X191139409Y-129630920D01*
X191094219Y-129548576D01*
X191082190Y-129498903D01*
X191078015Y-129444002D01*
X191078113Y-129435353D01*
X191083630Y-129380658D01*
X191097048Y-129331387D01*
X191118057Y-129287280D01*
X191145663Y-129249871D01*
X191179629Y-129219277D01*
X191218714Y-129196713D01*
X191262176Y-129182721D01*
X191309069Y-129177930D01*
X191320842Y-129178223D01*
G37*
G36*
X191451324Y-128322222D02*
G01*
X191596554Y-128370427D01*
X191723788Y-128452005D01*
X191781163Y-128505790D01*
X191833768Y-128568032D01*
X191882442Y-128640424D01*
X191925707Y-128721602D01*
X191964497Y-128814650D01*
X191997057Y-128917001D01*
X192023993Y-129032928D01*
X192043721Y-129158779D01*
X192056280Y-129299618D01*
X192060531Y-129451024D01*
X192045242Y-129731364D01*
X192001645Y-129971194D01*
X191934264Y-130168530D01*
X191846509Y-130327006D01*
X191740306Y-130449882D01*
X191680323Y-130498752D01*
X191616007Y-130539130D01*
X191546407Y-130571373D01*
X191472728Y-130594670D01*
X191392844Y-130609210D01*
X191309069Y-130614078D01*
X191166363Y-130599505D01*
X191022814Y-130549893D01*
X190957252Y-130512208D01*
X190895958Y-130466024D01*
X190838385Y-130410632D01*
X190785589Y-130346686D01*
X190736572Y-130272252D01*
X190693009Y-130188997D01*
X190653935Y-130093767D01*
X190621152Y-129989320D01*
X190594088Y-129871582D01*
X190574283Y-129744197D01*
X190561723Y-129602629D01*
X190557472Y-129451024D01*
X190961010Y-129451024D01*
X190970831Y-129683443D01*
X191004973Y-129893978D01*
X191056925Y-130039590D01*
X191088319Y-130093246D01*
X191123174Y-130136252D01*
X191162632Y-130170312D01*
X191205044Y-130194307D01*
X191255721Y-130210145D01*
X191309069Y-130215199D01*
X191383995Y-130204872D01*
X191467017Y-130161656D01*
X191504556Y-130125745D01*
X191538834Y-130079457D01*
X191570864Y-130019086D01*
X191598492Y-129945834D01*
X191622611Y-129852767D01*
X191640751Y-129743301D01*
X191652931Y-129607553D01*
X191657127Y-129451024D01*
X191648860Y-129237936D01*
X191616498Y-129027411D01*
X191566122Y-128882891D01*
X191535267Y-128829603D01*
X191500879Y-128787012D01*
X191461172Y-128752846D01*
X191418351Y-128728853D01*
X191365203Y-128712574D01*
X191309069Y-128707458D01*
X191233330Y-128717090D01*
X191149690Y-128758088D01*
X191112406Y-128792118D01*
X191078372Y-128836254D01*
X191046690Y-128893952D01*
X191019352Y-128964368D01*
X190995411Y-129054603D01*
X190977388Y-129161392D01*
X190965207Y-129295440D01*
X190961010Y-129451024D01*
X190557472Y-129451024D01*
X190571334Y-129184140D01*
X190613406Y-128945629D01*
X190679251Y-128750307D01*
X190765687Y-128593702D01*
X190871184Y-128472095D01*
X190931315Y-128423505D01*
X190995893Y-128383408D01*
X191066439Y-128351175D01*
X191141232Y-128327916D01*
X191223095Y-128313305D01*
X191309069Y-128308426D01*
X191451324Y-128322222D01*
G37*
G36*
X193155349Y-130614078D02*
G01*
X193214325Y-130609303D01*
X193269186Y-130595417D01*
X193365789Y-130542283D01*
X193441573Y-130458709D01*
X193492015Y-130349268D01*
X193506222Y-130286623D01*
X193512331Y-130219915D01*
X193512542Y-130204666D01*
X193508319Y-130137294D01*
X193495953Y-130073612D01*
X193475760Y-130014078D01*
X193448250Y-129959877D01*
X193414124Y-129912094D01*
X193373683Y-129871156D01*
X193328200Y-129838339D01*
X193277481Y-129813650D01*
X193223065Y-129798053D01*
X193164435Y-129791702D01*
X193155349Y-129791591D01*
X193096946Y-129796363D01*
X193042566Y-129810229D01*
X192946321Y-129863425D01*
X192870265Y-129947356D01*
X192819221Y-130057426D01*
X192804701Y-130120350D01*
X192798299Y-130187213D01*
X192798022Y-130204666D01*
X192802245Y-130271907D01*
X192814609Y-130335286D01*
X192834754Y-130394280D01*
X192862184Y-130447881D01*
X192896237Y-130495097D01*
X192936589Y-130535492D01*
X192982143Y-130567947D01*
X193032953Y-130592328D01*
X193087730Y-130607759D01*
X193146770Y-130613981D01*
X193155349Y-130614078D01*
G37*
G36*
X194320961Y-130575000D02*
G01*
X195743823Y-130575000D01*
X195743823Y-130158565D01*
X195300388Y-130158565D01*
X195300388Y-128357274D01*
X194967778Y-128357274D01*
X194865896Y-128419428D01*
X194758249Y-128470101D01*
X194542671Y-128535011D01*
X194413383Y-128560301D01*
X194413383Y-128878886D01*
X194847549Y-128878886D01*
X194847549Y-130158565D01*
X194320961Y-130158565D01*
X194320961Y-130575000D01*
G37*
D11*
X179023333Y-71954819D02*
X178690000Y-71478628D01*
X178451905Y-71954819D02*
X178451905Y-70954819D01*
X178451905Y-70954819D02*
X178832857Y-70954819D01*
X178832857Y-70954819D02*
X178928095Y-71002438D01*
X178928095Y-71002438D02*
X178975714Y-71050057D01*
X178975714Y-71050057D02*
X179023333Y-71145295D01*
X179023333Y-71145295D02*
X179023333Y-71288152D01*
X179023333Y-71288152D02*
X178975714Y-71383390D01*
X178975714Y-71383390D02*
X178928095Y-71431009D01*
X178928095Y-71431009D02*
X178832857Y-71478628D01*
X178832857Y-71478628D02*
X178451905Y-71478628D01*
X179975714Y-71954819D02*
X179404286Y-71954819D01*
X179690000Y-71954819D02*
X179690000Y-70954819D01*
X179690000Y-70954819D02*
X179594762Y-71097676D01*
X179594762Y-71097676D02*
X179499524Y-71192914D01*
X179499524Y-71192914D02*
X179404286Y-71240533D01*
D12*
G36*
X159490041Y-38335324D02*
G01*
X159522149Y-38363748D01*
X159567334Y-38459491D01*
X159625315Y-38614632D01*
X159706308Y-38744522D01*
X159811744Y-38850839D01*
X159938827Y-38927460D01*
X160560181Y-39190510D01*
X161164682Y-39432799D01*
X161774068Y-39667272D01*
X162405680Y-39901257D01*
X162734431Y-40006525D01*
X162858995Y-40043894D01*
X162908576Y-40231961D01*
X162970369Y-40424669D01*
X163014901Y-40515527D01*
X163069043Y-40590998D01*
X163165519Y-40696267D01*
X163184815Y-40742429D01*
X163180143Y-40761900D01*
X163150621Y-40783950D01*
X163078569Y-40817167D01*
X162999923Y-40841592D01*
X162233000Y-41082415D01*
X161457041Y-41333008D01*
X160692561Y-41582624D01*
X159959099Y-41820028D01*
X159852628Y-41866032D01*
X159767613Y-41926030D01*
X159697683Y-42000561D01*
X159643049Y-42086009D01*
X159564403Y-42289219D01*
X159522637Y-42385451D01*
X159491505Y-42413629D01*
X159444724Y-42423552D01*
X159411137Y-42415255D01*
X159386106Y-42390091D01*
X159365833Y-42307049D01*
X159371939Y-42032031D01*
X159384152Y-41700594D01*
X159390258Y-41404571D01*
X159385617Y-41140056D01*
X159373649Y-40832066D01*
X159366322Y-40563887D01*
X159387571Y-40476204D01*
X159413766Y-40447466D01*
X159447166Y-40438347D01*
X159490831Y-40448210D01*
X159525812Y-40478158D01*
X159567334Y-40572680D01*
X159620915Y-40763830D01*
X159680907Y-40877007D01*
X159735303Y-40925644D01*
X159806168Y-40946444D01*
X159901946Y-40937090D01*
X160124940Y-40882380D01*
X160363077Y-40818633D01*
X160598039Y-40755618D01*
X160664961Y-40724843D01*
X160680774Y-40700232D01*
X160687187Y-40654746D01*
X160687187Y-39821145D01*
X160986873Y-39821145D01*
X160986873Y-40551431D01*
X160998706Y-40618530D01*
X161023998Y-40634229D01*
X161053551Y-40631298D01*
X161084570Y-40623238D01*
X162345352Y-40250524D01*
X162399008Y-40227907D01*
X162409344Y-40213887D01*
X162346329Y-40178472D01*
X161084570Y-39732973D01*
X161039630Y-39721982D01*
X161016144Y-39729292D01*
X160999330Y-39752757D01*
X160986873Y-39821145D01*
X160687187Y-39821145D01*
X160687187Y-39665318D01*
X160663007Y-39603769D01*
X160590956Y-39570063D01*
X160432930Y-39520970D01*
X160274417Y-39467726D01*
X160118590Y-39418877D01*
X159968381Y-39377111D01*
X159812018Y-39365219D01*
X159710949Y-39408130D01*
X159638425Y-39506565D01*
X159566357Y-39720273D01*
X159535008Y-39801047D01*
X159495052Y-39841662D01*
X159445212Y-39854606D01*
X159411582Y-39846726D01*
X159388304Y-39823587D01*
X159369741Y-39729065D01*
X159377801Y-39424250D01*
X159385617Y-39118458D01*
X159368764Y-38798989D01*
X159351912Y-38473901D01*
X159371695Y-38367900D01*
X159398819Y-38336348D01*
X159443258Y-38325402D01*
X159490041Y-38335324D01*
G37*
G36*
X162998460Y-42419809D02*
G01*
X163024591Y-42446511D01*
X163046085Y-42522959D01*
X163040956Y-42792115D01*
X163028499Y-43070796D01*
X163021172Y-43323587D01*
X163028988Y-43554885D01*
X163045596Y-43872645D01*
X163062449Y-44203350D01*
X163070509Y-44464934D01*
X163055272Y-44745350D01*
X163010702Y-45006531D01*
X162937885Y-45250908D01*
X162836120Y-45484536D01*
X162711553Y-45694574D01*
X162563949Y-45883252D01*
X162392910Y-46050303D01*
X162202676Y-46190079D01*
X161991444Y-46303839D01*
X161766318Y-46386435D01*
X161524551Y-46436819D01*
X161263112Y-46454048D01*
X161015156Y-46439187D01*
X160775166Y-46394941D01*
X160541374Y-46321180D01*
X160319210Y-46218845D01*
X160114686Y-46089218D01*
X159926127Y-45931124D01*
X159760826Y-45749128D01*
X159618535Y-45540520D01*
X159498946Y-45302443D01*
X159413011Y-45050486D01*
X159359524Y-44769493D01*
X159340921Y-44454920D01*
X159343218Y-44369191D01*
X159628639Y-44369191D01*
X159650715Y-44617782D01*
X159713288Y-44827726D01*
X159813775Y-45006421D01*
X159951110Y-45160203D01*
X160122455Y-45287902D01*
X160333035Y-45390126D01*
X160559134Y-45459156D01*
X160817395Y-45502766D01*
X161112658Y-45518109D01*
X161478149Y-45496798D01*
X161793119Y-45436532D01*
X162081792Y-45334050D01*
X162316043Y-45199617D01*
X162510307Y-45025923D01*
X162653342Y-44819575D01*
X162718792Y-44665754D01*
X162758934Y-44496601D01*
X162772777Y-44309107D01*
X162761053Y-44007712D01*
X162739780Y-43896460D01*
X162706343Y-43825506D01*
X162651511Y-43780365D01*
X162559797Y-43763469D01*
X160117369Y-43763469D01*
X159946858Y-43782707D01*
X159827208Y-43833811D01*
X159736252Y-43919094D01*
X159674068Y-44039952D01*
X159640909Y-44183696D01*
X159628639Y-44369191D01*
X159343218Y-44369191D01*
X159352156Y-44035555D01*
X159371695Y-43613992D01*
X159380000Y-43317481D01*
X159376824Y-43070308D01*
X159367299Y-42793092D01*
X159361193Y-42522959D01*
X159382442Y-42446511D01*
X159408610Y-42419824D01*
X159443258Y-42411096D01*
X159488031Y-42419207D01*
X159520195Y-42442115D01*
X159560251Y-42531508D01*
X159616431Y-42724535D01*
X159675289Y-42823134D01*
X159764775Y-42879435D01*
X159925150Y-42902024D01*
X162463565Y-42902024D01*
X162629120Y-42880585D01*
X162721486Y-42827774D01*
X162783426Y-42731369D01*
X162844829Y-42531508D01*
X162885861Y-42442115D01*
X162919032Y-42419164D01*
X162964019Y-42411096D01*
X162998460Y-42419809D01*
G37*
G36*
X159300621Y-48982450D02*
G01*
X159315658Y-48695891D01*
X159359940Y-48424635D01*
X159432756Y-48166679D01*
X159534637Y-47919377D01*
X159660130Y-47696000D01*
X159809378Y-47494278D01*
X159983646Y-47314576D01*
X160178187Y-47164061D01*
X160394829Y-47041208D01*
X160626924Y-46951734D01*
X160878125Y-46897050D01*
X161151981Y-46878298D01*
X161405965Y-46895635D01*
X161650328Y-46947224D01*
X161887397Y-47033392D01*
X162110373Y-47151687D01*
X162316838Y-47301284D01*
X162508262Y-47484264D01*
X162674044Y-47691243D01*
X162817483Y-47928252D01*
X162938374Y-48198675D01*
X163024972Y-48482267D01*
X163078745Y-48794990D01*
X163097376Y-49140963D01*
X163071242Y-49503664D01*
X163003098Y-49854885D01*
X162905889Y-50165318D01*
X162847759Y-50253490D01*
X162806608Y-50281510D01*
X162747620Y-50295499D01*
X162387606Y-50330182D01*
X162075952Y-50341417D01*
X162022630Y-50329910D01*
X161990956Y-50295744D01*
X161978819Y-50248174D01*
X161988269Y-50196825D01*
X162018952Y-50153510D01*
X162074975Y-50123308D01*
X162333872Y-50028786D01*
X162453533Y-49963726D01*
X162554424Y-49872715D01*
X162654804Y-49740641D01*
X162740781Y-49558863D01*
X162793965Y-49350542D01*
X162813565Y-49082345D01*
X162799518Y-48893432D01*
X162758513Y-48720439D01*
X162691200Y-48560642D01*
X162546549Y-48344936D01*
X162355610Y-48162771D01*
X162130062Y-48018225D01*
X161872986Y-47909491D01*
X161598630Y-47842822D01*
X161309518Y-47820342D01*
X160948393Y-47840839D01*
X160625882Y-47899721D01*
X160327506Y-48001525D01*
X160080000Y-48139812D01*
X159935917Y-48256744D01*
X159816892Y-48388891D01*
X159720963Y-48537439D01*
X159651501Y-48699864D01*
X159608454Y-48882570D01*
X159593468Y-49089428D01*
X159615147Y-49362566D01*
X159675235Y-49583582D01*
X159769078Y-49762562D01*
X159900696Y-49917915D01*
X160078778Y-50061992D01*
X160312030Y-50194627D01*
X160384234Y-50250267D01*
X160403133Y-50320901D01*
X160377851Y-50382278D01*
X160308855Y-50403455D01*
X160133977Y-50387823D01*
X159912937Y-50345081D01*
X159669183Y-50279868D01*
X159568555Y-50222227D01*
X159504319Y-50128193D01*
X159423147Y-49904800D01*
X159356064Y-49625541D01*
X159315120Y-49326763D01*
X159300621Y-48982450D01*
G37*
G36*
X159363147Y-51341836D02*
G01*
X159385617Y-51275402D01*
X159411775Y-51251628D01*
X159444235Y-51243894D01*
X159514515Y-51268036D01*
X159558297Y-51346476D01*
X159638897Y-51615876D01*
X159686459Y-51718224D01*
X159745631Y-51790021D01*
X159824064Y-51835636D01*
X159935163Y-51852303D01*
X161964333Y-51852303D01*
X162086213Y-51833463D01*
X162167787Y-51782694D01*
X162227183Y-51704840D01*
X162269148Y-51604397D01*
X162320439Y-51372610D01*
X162357320Y-51276379D01*
X162392740Y-51239778D01*
X162447690Y-51227042D01*
X162510459Y-51240382D01*
X162551493Y-51278088D01*
X162577104Y-51332956D01*
X162589839Y-51399233D01*
X162630007Y-51719620D01*
X162694619Y-51992254D01*
X162790398Y-52251675D01*
X162923230Y-52514690D01*
X162935687Y-52540091D01*
X162942770Y-52574774D01*
X162926406Y-52652687D01*
X162906173Y-52680650D01*
X162883175Y-52687858D01*
X162719288Y-52671005D01*
X162476266Y-52656351D01*
X159927836Y-52656351D01*
X159829003Y-52674185D01*
X159753935Y-52725472D01*
X159696063Y-52804299D01*
X159645980Y-52916714D01*
X159557320Y-53199547D01*
X159520439Y-53275262D01*
X159493092Y-53295997D01*
X159447655Y-53303839D01*
X159388371Y-53282584D01*
X159367787Y-53216155D01*
X159373893Y-52914027D01*
X159385617Y-52564760D01*
X159391235Y-52273622D01*
X159385617Y-51985660D01*
X159371695Y-51643476D01*
X159363147Y-51341836D01*
G37*
D11*
X156098180Y-42761905D02*
X157098180Y-42761905D01*
X157098180Y-42761905D02*
X157098180Y-43142857D01*
X157098180Y-43142857D02*
X157050561Y-43238095D01*
X157050561Y-43238095D02*
X157002942Y-43285714D01*
X157002942Y-43285714D02*
X156907704Y-43333333D01*
X156907704Y-43333333D02*
X156764847Y-43333333D01*
X156764847Y-43333333D02*
X156669609Y-43285714D01*
X156669609Y-43285714D02*
X156621990Y-43238095D01*
X156621990Y-43238095D02*
X156574371Y-43142857D01*
X156574371Y-43142857D02*
X156574371Y-42761905D01*
X156193419Y-44333333D02*
X156145800Y-44285714D01*
X156145800Y-44285714D02*
X156098180Y-44142857D01*
X156098180Y-44142857D02*
X156098180Y-44047619D01*
X156098180Y-44047619D02*
X156145800Y-43904762D01*
X156145800Y-43904762D02*
X156241038Y-43809524D01*
X156241038Y-43809524D02*
X156336276Y-43761905D01*
X156336276Y-43761905D02*
X156526752Y-43714286D01*
X156526752Y-43714286D02*
X156669609Y-43714286D01*
X156669609Y-43714286D02*
X156860085Y-43761905D01*
X156860085Y-43761905D02*
X156955323Y-43809524D01*
X156955323Y-43809524D02*
X157050561Y-43904762D01*
X157050561Y-43904762D02*
X157098180Y-44047619D01*
X157098180Y-44047619D02*
X157098180Y-44142857D01*
X157098180Y-44142857D02*
X157050561Y-44285714D01*
X157050561Y-44285714D02*
X157002942Y-44333333D01*
X156098180Y-44761905D02*
X157098180Y-44761905D01*
X157098180Y-44761905D02*
X156383895Y-45095238D01*
X156383895Y-45095238D02*
X157098180Y-45428571D01*
X157098180Y-45428571D02*
X156098180Y-45428571D01*
X156098180Y-46428571D02*
X156098180Y-45857143D01*
X156098180Y-46142857D02*
X157098180Y-46142857D01*
X157098180Y-46142857D02*
X156955323Y-46047619D01*
X156955323Y-46047619D02*
X156860085Y-45952381D01*
X156860085Y-45952381D02*
X156812466Y-45857143D01*
X156669609Y-47000000D02*
X156717228Y-46904762D01*
X156717228Y-46904762D02*
X156764847Y-46857143D01*
X156764847Y-46857143D02*
X156860085Y-46809524D01*
X156860085Y-46809524D02*
X156907704Y-46809524D01*
X156907704Y-46809524D02*
X157002942Y-46857143D01*
X157002942Y-46857143D02*
X157050561Y-46904762D01*
X157050561Y-46904762D02*
X157098180Y-47000000D01*
X157098180Y-47000000D02*
X157098180Y-47190476D01*
X157098180Y-47190476D02*
X157050561Y-47285714D01*
X157050561Y-47285714D02*
X157002942Y-47333333D01*
X157002942Y-47333333D02*
X156907704Y-47380952D01*
X156907704Y-47380952D02*
X156860085Y-47380952D01*
X156860085Y-47380952D02*
X156764847Y-47333333D01*
X156764847Y-47333333D02*
X156717228Y-47285714D01*
X156717228Y-47285714D02*
X156669609Y-47190476D01*
X156669609Y-47190476D02*
X156669609Y-47000000D01*
X156669609Y-47000000D02*
X156621990Y-46904762D01*
X156621990Y-46904762D02*
X156574371Y-46857143D01*
X156574371Y-46857143D02*
X156479133Y-46809524D01*
X156479133Y-46809524D02*
X156288657Y-46809524D01*
X156288657Y-46809524D02*
X156193419Y-46857143D01*
X156193419Y-46857143D02*
X156145800Y-46904762D01*
X156145800Y-46904762D02*
X156098180Y-47000000D01*
X156098180Y-47000000D02*
X156098180Y-47190476D01*
X156098180Y-47190476D02*
X156145800Y-47285714D01*
X156145800Y-47285714D02*
X156193419Y-47333333D01*
X156193419Y-47333333D02*
X156288657Y-47380952D01*
X156288657Y-47380952D02*
X156479133Y-47380952D01*
X156479133Y-47380952D02*
X156574371Y-47333333D01*
X156574371Y-47333333D02*
X156621990Y-47285714D01*
X156621990Y-47285714D02*
X156669609Y-47190476D01*
X157098180Y-48000000D02*
X157098180Y-48095238D01*
X157098180Y-48095238D02*
X157050561Y-48190476D01*
X157050561Y-48190476D02*
X157002942Y-48238095D01*
X157002942Y-48238095D02*
X156907704Y-48285714D01*
X156907704Y-48285714D02*
X156717228Y-48333333D01*
X156717228Y-48333333D02*
X156479133Y-48333333D01*
X156479133Y-48333333D02*
X156288657Y-48285714D01*
X156288657Y-48285714D02*
X156193419Y-48238095D01*
X156193419Y-48238095D02*
X156145800Y-48190476D01*
X156145800Y-48190476D02*
X156098180Y-48095238D01*
X156098180Y-48095238D02*
X156098180Y-48000000D01*
X156098180Y-48000000D02*
X156145800Y-47904762D01*
X156145800Y-47904762D02*
X156193419Y-47857143D01*
X156193419Y-47857143D02*
X156288657Y-47809524D01*
X156288657Y-47809524D02*
X156479133Y-47761905D01*
X156479133Y-47761905D02*
X156717228Y-47761905D01*
X156717228Y-47761905D02*
X156907704Y-47809524D01*
X156907704Y-47809524D02*
X157002942Y-47857143D01*
X157002942Y-47857143D02*
X157050561Y-47904762D01*
X157050561Y-47904762D02*
X157098180Y-48000000D01*
X156669609Y-48904762D02*
X156717228Y-48809524D01*
X156717228Y-48809524D02*
X156764847Y-48761905D01*
X156764847Y-48761905D02*
X156860085Y-48714286D01*
X156860085Y-48714286D02*
X156907704Y-48714286D01*
X156907704Y-48714286D02*
X157002942Y-48761905D01*
X157002942Y-48761905D02*
X157050561Y-48809524D01*
X157050561Y-48809524D02*
X157098180Y-48904762D01*
X157098180Y-48904762D02*
X157098180Y-49095238D01*
X157098180Y-49095238D02*
X157050561Y-49190476D01*
X157050561Y-49190476D02*
X157002942Y-49238095D01*
X157002942Y-49238095D02*
X156907704Y-49285714D01*
X156907704Y-49285714D02*
X156860085Y-49285714D01*
X156860085Y-49285714D02*
X156764847Y-49238095D01*
X156764847Y-49238095D02*
X156717228Y-49190476D01*
X156717228Y-49190476D02*
X156669609Y-49095238D01*
X156669609Y-49095238D02*
X156669609Y-48904762D01*
X156669609Y-48904762D02*
X156621990Y-48809524D01*
X156621990Y-48809524D02*
X156574371Y-48761905D01*
X156574371Y-48761905D02*
X156479133Y-48714286D01*
X156479133Y-48714286D02*
X156288657Y-48714286D01*
X156288657Y-48714286D02*
X156193419Y-48761905D01*
X156193419Y-48761905D02*
X156145800Y-48809524D01*
X156145800Y-48809524D02*
X156098180Y-48904762D01*
X156098180Y-48904762D02*
X156098180Y-49095238D01*
X156098180Y-49095238D02*
X156145800Y-49190476D01*
X156145800Y-49190476D02*
X156193419Y-49238095D01*
X156193419Y-49238095D02*
X156288657Y-49285714D01*
X156288657Y-49285714D02*
X156479133Y-49285714D01*
X156479133Y-49285714D02*
X156574371Y-49238095D01*
X156574371Y-49238095D02*
X156621990Y-49190476D01*
X156621990Y-49190476D02*
X156669609Y-49095238D01*
X179023333Y-77034819D02*
X178690000Y-76558628D01*
X178451905Y-77034819D02*
X178451905Y-76034819D01*
X178451905Y-76034819D02*
X178832857Y-76034819D01*
X178832857Y-76034819D02*
X178928095Y-76082438D01*
X178928095Y-76082438D02*
X178975714Y-76130057D01*
X178975714Y-76130057D02*
X179023333Y-76225295D01*
X179023333Y-76225295D02*
X179023333Y-76368152D01*
X179023333Y-76368152D02*
X178975714Y-76463390D01*
X178975714Y-76463390D02*
X178928095Y-76511009D01*
X178928095Y-76511009D02*
X178832857Y-76558628D01*
X178832857Y-76558628D02*
X178451905Y-76558628D01*
X179404286Y-76130057D02*
X179451905Y-76082438D01*
X179451905Y-76082438D02*
X179547143Y-76034819D01*
X179547143Y-76034819D02*
X179785238Y-76034819D01*
X179785238Y-76034819D02*
X179880476Y-76082438D01*
X179880476Y-76082438D02*
X179928095Y-76130057D01*
X179928095Y-76130057D02*
X179975714Y-76225295D01*
X179975714Y-76225295D02*
X179975714Y-76320533D01*
X179975714Y-76320533D02*
X179928095Y-76463390D01*
X179928095Y-76463390D02*
X179356667Y-77034819D01*
X179356667Y-77034819D02*
X179975714Y-77034819D01*
X203238095Y-45454819D02*
X203238095Y-46264342D01*
X203238095Y-46264342D02*
X203285714Y-46359580D01*
X203285714Y-46359580D02*
X203333333Y-46407200D01*
X203333333Y-46407200D02*
X203428571Y-46454819D01*
X203428571Y-46454819D02*
X203619047Y-46454819D01*
X203619047Y-46454819D02*
X203714285Y-46407200D01*
X203714285Y-46407200D02*
X203761904Y-46359580D01*
X203761904Y-46359580D02*
X203809523Y-46264342D01*
X203809523Y-46264342D02*
X203809523Y-45454819D01*
X204809523Y-46454819D02*
X204238095Y-46454819D01*
X204523809Y-46454819D02*
X204523809Y-45454819D01*
X204523809Y-45454819D02*
X204428571Y-45597676D01*
X204428571Y-45597676D02*
X204333333Y-45692914D01*
X204333333Y-45692914D02*
X204238095Y-45740533D01*
X216097998Y-57820868D02*
X216017185Y-57847805D01*
X216017185Y-57847805D02*
X215936373Y-57928618D01*
X215936373Y-57928618D02*
X215882498Y-58036367D01*
X215882498Y-58036367D02*
X215882498Y-58144117D01*
X215882498Y-58144117D02*
X215909436Y-58224929D01*
X215909436Y-58224929D02*
X215990248Y-58359616D01*
X215990248Y-58359616D02*
X216071060Y-58440428D01*
X216071060Y-58440428D02*
X216205747Y-58521241D01*
X216205747Y-58521241D02*
X216286560Y-58548178D01*
X216286560Y-58548178D02*
X216394309Y-58548178D01*
X216394309Y-58548178D02*
X216502059Y-58494303D01*
X216502059Y-58494303D02*
X216555934Y-58440428D01*
X216555934Y-58440428D02*
X216609808Y-58332679D01*
X216609808Y-58332679D02*
X216609808Y-58278804D01*
X216609808Y-58278804D02*
X216421247Y-58090242D01*
X216421247Y-58090242D02*
X216313497Y-58197992D01*
X216906120Y-58090242D02*
X216340434Y-57524557D01*
X216340434Y-57524557D02*
X216555934Y-57309057D01*
X216555934Y-57309057D02*
X216636746Y-57282120D01*
X216636746Y-57282120D02*
X216690621Y-57282120D01*
X216690621Y-57282120D02*
X216771433Y-57309057D01*
X216771433Y-57309057D02*
X216852245Y-57389870D01*
X216852245Y-57389870D02*
X216879182Y-57470682D01*
X216879182Y-57470682D02*
X216879182Y-57524557D01*
X216879182Y-57524557D02*
X216852245Y-57605369D01*
X216852245Y-57605369D02*
X216636746Y-57820868D01*
X216933057Y-57039683D02*
X216933057Y-56985809D01*
X216933057Y-56985809D02*
X216959995Y-56904996D01*
X216959995Y-56904996D02*
X217094682Y-56770309D01*
X217094682Y-56770309D02*
X217175494Y-56743372D01*
X217175494Y-56743372D02*
X217229369Y-56743372D01*
X217229369Y-56743372D02*
X217310181Y-56770309D01*
X217310181Y-56770309D02*
X217364056Y-56824184D01*
X217364056Y-56824184D02*
X217417930Y-56931934D01*
X217417930Y-56931934D02*
X217417930Y-57578431D01*
X217417930Y-57578431D02*
X217768117Y-57228245D01*
X217552618Y-56312373D02*
X217606492Y-56258499D01*
X217606492Y-56258499D02*
X217687305Y-56231561D01*
X217687305Y-56231561D02*
X217741179Y-56231561D01*
X217741179Y-56231561D02*
X217821992Y-56258499D01*
X217821992Y-56258499D02*
X217956679Y-56339311D01*
X217956679Y-56339311D02*
X218091366Y-56473998D01*
X218091366Y-56473998D02*
X218172178Y-56608685D01*
X218172178Y-56608685D02*
X218199115Y-56689497D01*
X218199115Y-56689497D02*
X218199115Y-56743372D01*
X218199115Y-56743372D02*
X218172178Y-56824184D01*
X218172178Y-56824184D02*
X218118303Y-56878059D01*
X218118303Y-56878059D02*
X218037491Y-56904996D01*
X218037491Y-56904996D02*
X217983616Y-56904996D01*
X217983616Y-56904996D02*
X217902804Y-56878059D01*
X217902804Y-56878059D02*
X217768117Y-56797247D01*
X217768117Y-56797247D02*
X217633430Y-56662560D01*
X217633430Y-56662560D02*
X217552618Y-56527873D01*
X217552618Y-56527873D02*
X217525680Y-56447060D01*
X217525680Y-56447060D02*
X217525680Y-56393186D01*
X217525680Y-56393186D02*
X217552618Y-56312373D01*
X190413372Y-29611494D02*
X190332560Y-29638431D01*
X190332560Y-29638431D02*
X190251748Y-29719243D01*
X190251748Y-29719243D02*
X190197873Y-29826993D01*
X190197873Y-29826993D02*
X190197873Y-29934742D01*
X190197873Y-29934742D02*
X190224810Y-30015555D01*
X190224810Y-30015555D02*
X190305623Y-30150242D01*
X190305623Y-30150242D02*
X190386435Y-30231054D01*
X190386435Y-30231054D02*
X190521122Y-30311866D01*
X190521122Y-30311866D02*
X190601934Y-30338803D01*
X190601934Y-30338803D02*
X190709684Y-30338803D01*
X190709684Y-30338803D02*
X190817433Y-30284929D01*
X190817433Y-30284929D02*
X190871308Y-30231054D01*
X190871308Y-30231054D02*
X190925183Y-30123304D01*
X190925183Y-30123304D02*
X190925183Y-30069429D01*
X190925183Y-30069429D02*
X190736621Y-29880868D01*
X190736621Y-29880868D02*
X190628871Y-29988617D01*
X191221494Y-29880868D02*
X190655809Y-29315182D01*
X190655809Y-29315182D02*
X190871308Y-29099683D01*
X190871308Y-29099683D02*
X190952120Y-29072746D01*
X190952120Y-29072746D02*
X191005995Y-29072746D01*
X191005995Y-29072746D02*
X191086807Y-29099683D01*
X191086807Y-29099683D02*
X191167619Y-29180495D01*
X191167619Y-29180495D02*
X191194557Y-29261307D01*
X191194557Y-29261307D02*
X191194557Y-29315182D01*
X191194557Y-29315182D02*
X191167619Y-29395994D01*
X191167619Y-29395994D02*
X190952120Y-29611494D01*
X191248432Y-28830309D02*
X191248432Y-28776434D01*
X191248432Y-28776434D02*
X191275369Y-28695622D01*
X191275369Y-28695622D02*
X191410056Y-28560935D01*
X191410056Y-28560935D02*
X191490868Y-28533998D01*
X191490868Y-28533998D02*
X191544743Y-28533998D01*
X191544743Y-28533998D02*
X191625555Y-28560935D01*
X191625555Y-28560935D02*
X191679430Y-28614810D01*
X191679430Y-28614810D02*
X191733305Y-28722559D01*
X191733305Y-28722559D02*
X191733305Y-29369057D01*
X191733305Y-29369057D02*
X192083491Y-29018871D01*
X190613372Y-44821494D02*
X190532560Y-44848431D01*
X190532560Y-44848431D02*
X190451748Y-44929243D01*
X190451748Y-44929243D02*
X190397873Y-45036993D01*
X190397873Y-45036993D02*
X190397873Y-45144742D01*
X190397873Y-45144742D02*
X190424810Y-45225555D01*
X190424810Y-45225555D02*
X190505623Y-45360242D01*
X190505623Y-45360242D02*
X190586435Y-45441054D01*
X190586435Y-45441054D02*
X190721122Y-45521866D01*
X190721122Y-45521866D02*
X190801934Y-45548803D01*
X190801934Y-45548803D02*
X190909684Y-45548803D01*
X190909684Y-45548803D02*
X191017433Y-45494929D01*
X191017433Y-45494929D02*
X191071308Y-45441054D01*
X191071308Y-45441054D02*
X191125183Y-45333304D01*
X191125183Y-45333304D02*
X191125183Y-45279429D01*
X191125183Y-45279429D02*
X190936621Y-45090868D01*
X190936621Y-45090868D02*
X190828871Y-45198617D01*
X191421494Y-45090868D02*
X190855809Y-44525182D01*
X190855809Y-44525182D02*
X191071308Y-44309683D01*
X191071308Y-44309683D02*
X191152120Y-44282746D01*
X191152120Y-44282746D02*
X191205995Y-44282746D01*
X191205995Y-44282746D02*
X191286807Y-44309683D01*
X191286807Y-44309683D02*
X191367619Y-44390495D01*
X191367619Y-44390495D02*
X191394557Y-44471307D01*
X191394557Y-44471307D02*
X191394557Y-44525182D01*
X191394557Y-44525182D02*
X191367619Y-44605994D01*
X191367619Y-44605994D02*
X191152120Y-44821494D01*
X191367619Y-44013372D02*
X191744743Y-43636248D01*
X191744743Y-43636248D02*
X192067992Y-44444370D01*
X216086435Y-27098431D02*
X216005623Y-27125368D01*
X216005623Y-27125368D02*
X215924811Y-27206180D01*
X215924811Y-27206180D02*
X215870936Y-27313930D01*
X215870936Y-27313930D02*
X215870936Y-27421680D01*
X215870936Y-27421680D02*
X215897873Y-27502492D01*
X215897873Y-27502492D02*
X215978685Y-27637179D01*
X215978685Y-27637179D02*
X216059498Y-27717991D01*
X216059498Y-27717991D02*
X216194185Y-27798803D01*
X216194185Y-27798803D02*
X216274997Y-27825741D01*
X216274997Y-27825741D02*
X216382746Y-27825741D01*
X216382746Y-27825741D02*
X216490496Y-27771866D01*
X216490496Y-27771866D02*
X216544371Y-27717991D01*
X216544371Y-27717991D02*
X216598246Y-27610241D01*
X216598246Y-27610241D02*
X216598246Y-27556367D01*
X216598246Y-27556367D02*
X216409684Y-27367805D01*
X216409684Y-27367805D02*
X216301934Y-27475554D01*
X216894557Y-27367805D02*
X216328872Y-26802119D01*
X216328872Y-26802119D02*
X217217806Y-27044556D01*
X217217806Y-27044556D02*
X216652120Y-26478871D01*
X217487180Y-26775182D02*
X216921494Y-26209497D01*
X216921494Y-26209497D02*
X217056181Y-26074810D01*
X217056181Y-26074810D02*
X217163931Y-26020935D01*
X217163931Y-26020935D02*
X217271680Y-26020935D01*
X217271680Y-26020935D02*
X217352493Y-26047872D01*
X217352493Y-26047872D02*
X217487180Y-26128685D01*
X217487180Y-26128685D02*
X217567992Y-26209497D01*
X217567992Y-26209497D02*
X217648804Y-26344184D01*
X217648804Y-26344184D02*
X217675741Y-26424996D01*
X217675741Y-26424996D02*
X217675741Y-26532746D01*
X217675741Y-26532746D02*
X217621867Y-26640495D01*
X217621867Y-26640495D02*
X217487180Y-26775182D01*
X216155064Y-35534049D02*
X216424438Y-35264675D01*
X216262813Y-35749549D02*
X215885690Y-34995301D01*
X215885690Y-34995301D02*
X216639937Y-35372425D01*
X216828499Y-35183863D02*
X216262813Y-34618178D01*
X216262813Y-34618178D02*
X216397500Y-34483491D01*
X216397500Y-34483491D02*
X216505250Y-34429616D01*
X216505250Y-34429616D02*
X216612999Y-34429616D01*
X216612999Y-34429616D02*
X216693812Y-34456553D01*
X216693812Y-34456553D02*
X216828499Y-34537366D01*
X216828499Y-34537366D02*
X216909311Y-34618178D01*
X216909311Y-34618178D02*
X216990123Y-34752865D01*
X216990123Y-34752865D02*
X217017060Y-34833677D01*
X217017060Y-34833677D02*
X217017060Y-34941427D01*
X217017060Y-34941427D02*
X216963186Y-35049176D01*
X216963186Y-35049176D02*
X216828499Y-35183863D01*
X217663558Y-34241054D02*
X217663558Y-34294929D01*
X217663558Y-34294929D02*
X217609683Y-34402679D01*
X217609683Y-34402679D02*
X217555808Y-34456553D01*
X217555808Y-34456553D02*
X217448059Y-34510428D01*
X217448059Y-34510428D02*
X217340309Y-34510428D01*
X217340309Y-34510428D02*
X217259497Y-34483491D01*
X217259497Y-34483491D02*
X217124810Y-34402679D01*
X217124810Y-34402679D02*
X217043998Y-34321866D01*
X217043998Y-34321866D02*
X216963186Y-34187179D01*
X216963186Y-34187179D02*
X216936248Y-34106367D01*
X216936248Y-34106367D02*
X216936248Y-33998618D01*
X216936248Y-33998618D02*
X216990123Y-33890868D01*
X216990123Y-33890868D02*
X217043998Y-33836993D01*
X217043998Y-33836993D02*
X217151747Y-33783118D01*
X217151747Y-33783118D02*
X217205622Y-33783118D01*
X217879057Y-34241054D02*
X218310056Y-33810056D01*
X217744370Y-33136621D02*
X218498618Y-33513744D01*
X218498618Y-33513744D02*
X218121494Y-32759497D01*
X219198990Y-32813372D02*
X218741054Y-32732560D01*
X218875741Y-33136621D02*
X218310056Y-32570935D01*
X218310056Y-32570935D02*
X218525555Y-32355436D01*
X218525555Y-32355436D02*
X218606367Y-32328499D01*
X218606367Y-32328499D02*
X218660242Y-32328499D01*
X218660242Y-32328499D02*
X218741054Y-32355436D01*
X218741054Y-32355436D02*
X218821866Y-32436248D01*
X218821866Y-32436248D02*
X218848804Y-32517061D01*
X218848804Y-32517061D02*
X218848804Y-32570935D01*
X218848804Y-32570935D02*
X218821866Y-32651748D01*
X218821866Y-32651748D02*
X218606367Y-32867247D01*
X219145115Y-32274624D02*
X219333677Y-32086062D01*
X219710800Y-32301561D02*
X219441426Y-32570935D01*
X219441426Y-32570935D02*
X218875741Y-32005250D01*
X218875741Y-32005250D02*
X219145115Y-31735876D01*
X219845488Y-31574251D02*
X219656926Y-31762813D01*
X219953237Y-32059125D02*
X219387552Y-31493439D01*
X219387552Y-31493439D02*
X219656926Y-31224065D01*
X216097998Y-67980868D02*
X216017185Y-68007805D01*
X216017185Y-68007805D02*
X215936373Y-68088618D01*
X215936373Y-68088618D02*
X215882498Y-68196367D01*
X215882498Y-68196367D02*
X215882498Y-68304117D01*
X215882498Y-68304117D02*
X215909436Y-68384929D01*
X215909436Y-68384929D02*
X215990248Y-68519616D01*
X215990248Y-68519616D02*
X216071060Y-68600428D01*
X216071060Y-68600428D02*
X216205747Y-68681241D01*
X216205747Y-68681241D02*
X216286560Y-68708178D01*
X216286560Y-68708178D02*
X216394309Y-68708178D01*
X216394309Y-68708178D02*
X216502059Y-68654303D01*
X216502059Y-68654303D02*
X216555934Y-68600428D01*
X216555934Y-68600428D02*
X216609808Y-68492679D01*
X216609808Y-68492679D02*
X216609808Y-68438804D01*
X216609808Y-68438804D02*
X216421247Y-68250242D01*
X216421247Y-68250242D02*
X216313497Y-68357992D01*
X216906120Y-68250242D02*
X216340434Y-67684557D01*
X216340434Y-67684557D02*
X216555934Y-67469057D01*
X216555934Y-67469057D02*
X216636746Y-67442120D01*
X216636746Y-67442120D02*
X216690621Y-67442120D01*
X216690621Y-67442120D02*
X216771433Y-67469057D01*
X216771433Y-67469057D02*
X216852245Y-67549870D01*
X216852245Y-67549870D02*
X216879182Y-67630682D01*
X216879182Y-67630682D02*
X216879182Y-67684557D01*
X216879182Y-67684557D02*
X216852245Y-67765369D01*
X216852245Y-67765369D02*
X216636746Y-67980868D01*
X217768117Y-67388245D02*
X217444868Y-67711494D01*
X217606492Y-67549870D02*
X217040807Y-66984184D01*
X217040807Y-66984184D02*
X217067744Y-67118871D01*
X217067744Y-67118871D02*
X217067744Y-67226621D01*
X217067744Y-67226621D02*
X217040807Y-67307433D01*
X217390993Y-66633998D02*
X217768117Y-66256874D01*
X217768117Y-66256874D02*
X218091366Y-67064996D01*
X190513372Y-32151494D02*
X190432560Y-32178431D01*
X190432560Y-32178431D02*
X190351748Y-32259243D01*
X190351748Y-32259243D02*
X190297873Y-32366993D01*
X190297873Y-32366993D02*
X190297873Y-32474742D01*
X190297873Y-32474742D02*
X190324810Y-32555555D01*
X190324810Y-32555555D02*
X190405623Y-32690242D01*
X190405623Y-32690242D02*
X190486435Y-32771054D01*
X190486435Y-32771054D02*
X190621122Y-32851866D01*
X190621122Y-32851866D02*
X190701934Y-32878803D01*
X190701934Y-32878803D02*
X190809684Y-32878803D01*
X190809684Y-32878803D02*
X190917433Y-32824929D01*
X190917433Y-32824929D02*
X190971308Y-32771054D01*
X190971308Y-32771054D02*
X191025183Y-32663304D01*
X191025183Y-32663304D02*
X191025183Y-32609429D01*
X191025183Y-32609429D02*
X190836621Y-32420868D01*
X190836621Y-32420868D02*
X190728871Y-32528617D01*
X191321494Y-32420868D02*
X190755809Y-31855182D01*
X190755809Y-31855182D02*
X190971308Y-31639683D01*
X190971308Y-31639683D02*
X191052120Y-31612746D01*
X191052120Y-31612746D02*
X191105995Y-31612746D01*
X191105995Y-31612746D02*
X191186807Y-31639683D01*
X191186807Y-31639683D02*
X191267619Y-31720495D01*
X191267619Y-31720495D02*
X191294557Y-31801307D01*
X191294557Y-31801307D02*
X191294557Y-31855182D01*
X191294557Y-31855182D02*
X191267619Y-31935994D01*
X191267619Y-31935994D02*
X191052120Y-32151494D01*
X191267619Y-31343372D02*
X191617806Y-30993185D01*
X191617806Y-30993185D02*
X191644743Y-31397246D01*
X191644743Y-31397246D02*
X191725555Y-31316434D01*
X191725555Y-31316434D02*
X191806367Y-31289497D01*
X191806367Y-31289497D02*
X191860242Y-31289497D01*
X191860242Y-31289497D02*
X191941054Y-31316434D01*
X191941054Y-31316434D02*
X192075741Y-31451121D01*
X192075741Y-31451121D02*
X192102679Y-31531933D01*
X192102679Y-31531933D02*
X192102679Y-31585808D01*
X192102679Y-31585808D02*
X192075741Y-31666620D01*
X192075741Y-31666620D02*
X191914117Y-31828245D01*
X191914117Y-31828245D02*
X191833305Y-31855182D01*
X191833305Y-31855182D02*
X191779430Y-31855182D01*
X189989998Y-70520868D02*
X189909185Y-70547805D01*
X189909185Y-70547805D02*
X189828373Y-70628618D01*
X189828373Y-70628618D02*
X189774498Y-70736367D01*
X189774498Y-70736367D02*
X189774498Y-70844117D01*
X189774498Y-70844117D02*
X189801436Y-70924929D01*
X189801436Y-70924929D02*
X189882248Y-71059616D01*
X189882248Y-71059616D02*
X189963060Y-71140428D01*
X189963060Y-71140428D02*
X190097747Y-71221241D01*
X190097747Y-71221241D02*
X190178560Y-71248178D01*
X190178560Y-71248178D02*
X190286309Y-71248178D01*
X190286309Y-71248178D02*
X190394059Y-71194303D01*
X190394059Y-71194303D02*
X190447934Y-71140428D01*
X190447934Y-71140428D02*
X190501808Y-71032679D01*
X190501808Y-71032679D02*
X190501808Y-70978804D01*
X190501808Y-70978804D02*
X190313247Y-70790242D01*
X190313247Y-70790242D02*
X190205497Y-70897992D01*
X190798120Y-70790242D02*
X190232434Y-70224557D01*
X190232434Y-70224557D02*
X190447934Y-70009057D01*
X190447934Y-70009057D02*
X190528746Y-69982120D01*
X190528746Y-69982120D02*
X190582621Y-69982120D01*
X190582621Y-69982120D02*
X190663433Y-70009057D01*
X190663433Y-70009057D02*
X190744245Y-70089870D01*
X190744245Y-70089870D02*
X190771182Y-70170682D01*
X190771182Y-70170682D02*
X190771182Y-70224557D01*
X190771182Y-70224557D02*
X190744245Y-70305369D01*
X190744245Y-70305369D02*
X190528746Y-70520868D01*
X191660117Y-69928245D02*
X191336868Y-70251494D01*
X191498492Y-70089870D02*
X190932807Y-69524184D01*
X190932807Y-69524184D02*
X190959744Y-69658871D01*
X190959744Y-69658871D02*
X190959744Y-69766621D01*
X190959744Y-69766621D02*
X190932807Y-69847433D01*
X191606242Y-68850749D02*
X191336868Y-69120123D01*
X191336868Y-69120123D02*
X191579305Y-69416434D01*
X191579305Y-69416434D02*
X191579305Y-69362560D01*
X191579305Y-69362560D02*
X191606242Y-69281747D01*
X191606242Y-69281747D02*
X191740929Y-69147060D01*
X191740929Y-69147060D02*
X191821741Y-69120123D01*
X191821741Y-69120123D02*
X191875616Y-69120123D01*
X191875616Y-69120123D02*
X191956428Y-69147060D01*
X191956428Y-69147060D02*
X192091115Y-69281747D01*
X192091115Y-69281747D02*
X192118053Y-69362560D01*
X192118053Y-69362560D02*
X192118053Y-69416434D01*
X192118053Y-69416434D02*
X192091115Y-69497247D01*
X192091115Y-69497247D02*
X191956428Y-69631934D01*
X191956428Y-69631934D02*
X191875616Y-69658871D01*
X191875616Y-69658871D02*
X191821741Y-69658871D01*
X216086435Y-52498431D02*
X216005623Y-52525368D01*
X216005623Y-52525368D02*
X215924811Y-52606180D01*
X215924811Y-52606180D02*
X215870936Y-52713930D01*
X215870936Y-52713930D02*
X215870936Y-52821680D01*
X215870936Y-52821680D02*
X215897873Y-52902492D01*
X215897873Y-52902492D02*
X215978685Y-53037179D01*
X215978685Y-53037179D02*
X216059498Y-53117991D01*
X216059498Y-53117991D02*
X216194185Y-53198803D01*
X216194185Y-53198803D02*
X216274997Y-53225741D01*
X216274997Y-53225741D02*
X216382746Y-53225741D01*
X216382746Y-53225741D02*
X216490496Y-53171866D01*
X216490496Y-53171866D02*
X216544371Y-53117991D01*
X216544371Y-53117991D02*
X216598246Y-53010241D01*
X216598246Y-53010241D02*
X216598246Y-52956367D01*
X216598246Y-52956367D02*
X216409684Y-52767805D01*
X216409684Y-52767805D02*
X216301934Y-52875554D01*
X216894557Y-52767805D02*
X216328872Y-52202119D01*
X216328872Y-52202119D02*
X217217806Y-52444556D01*
X217217806Y-52444556D02*
X216652120Y-51878871D01*
X217487180Y-52175182D02*
X216921494Y-51609497D01*
X216921494Y-51609497D02*
X217056181Y-51474810D01*
X217056181Y-51474810D02*
X217163931Y-51420935D01*
X217163931Y-51420935D02*
X217271680Y-51420935D01*
X217271680Y-51420935D02*
X217352493Y-51447872D01*
X217352493Y-51447872D02*
X217487180Y-51528685D01*
X217487180Y-51528685D02*
X217567992Y-51609497D01*
X217567992Y-51609497D02*
X217648804Y-51744184D01*
X217648804Y-51744184D02*
X217675741Y-51824996D01*
X217675741Y-51824996D02*
X217675741Y-51932746D01*
X217675741Y-51932746D02*
X217621867Y-52040495D01*
X217621867Y-52040495D02*
X217487180Y-52175182D01*
X216097998Y-60360868D02*
X216017185Y-60387805D01*
X216017185Y-60387805D02*
X215936373Y-60468618D01*
X215936373Y-60468618D02*
X215882498Y-60576367D01*
X215882498Y-60576367D02*
X215882498Y-60684117D01*
X215882498Y-60684117D02*
X215909436Y-60764929D01*
X215909436Y-60764929D02*
X215990248Y-60899616D01*
X215990248Y-60899616D02*
X216071060Y-60980428D01*
X216071060Y-60980428D02*
X216205747Y-61061241D01*
X216205747Y-61061241D02*
X216286560Y-61088178D01*
X216286560Y-61088178D02*
X216394309Y-61088178D01*
X216394309Y-61088178D02*
X216502059Y-61034303D01*
X216502059Y-61034303D02*
X216555934Y-60980428D01*
X216555934Y-60980428D02*
X216609808Y-60872679D01*
X216609808Y-60872679D02*
X216609808Y-60818804D01*
X216609808Y-60818804D02*
X216421247Y-60630242D01*
X216421247Y-60630242D02*
X216313497Y-60737992D01*
X216906120Y-60630242D02*
X216340434Y-60064557D01*
X216340434Y-60064557D02*
X216555934Y-59849057D01*
X216555934Y-59849057D02*
X216636746Y-59822120D01*
X216636746Y-59822120D02*
X216690621Y-59822120D01*
X216690621Y-59822120D02*
X216771433Y-59849057D01*
X216771433Y-59849057D02*
X216852245Y-59929870D01*
X216852245Y-59929870D02*
X216879182Y-60010682D01*
X216879182Y-60010682D02*
X216879182Y-60064557D01*
X216879182Y-60064557D02*
X216852245Y-60145369D01*
X216852245Y-60145369D02*
X216636746Y-60360868D01*
X217768117Y-59768245D02*
X217444868Y-60091494D01*
X217606492Y-59929870D02*
X217040807Y-59364184D01*
X217040807Y-59364184D02*
X217067744Y-59498871D01*
X217067744Y-59498871D02*
X217067744Y-59606621D01*
X217067744Y-59606621D02*
X217040807Y-59687433D01*
X218037491Y-59498871D02*
X218145240Y-59391121D01*
X218145240Y-59391121D02*
X218172178Y-59310309D01*
X218172178Y-59310309D02*
X218172178Y-59256434D01*
X218172178Y-59256434D02*
X218145240Y-59121747D01*
X218145240Y-59121747D02*
X218064428Y-58987060D01*
X218064428Y-58987060D02*
X217848929Y-58771561D01*
X217848929Y-58771561D02*
X217768117Y-58744624D01*
X217768117Y-58744624D02*
X217714242Y-58744624D01*
X217714242Y-58744624D02*
X217633430Y-58771561D01*
X217633430Y-58771561D02*
X217525680Y-58879311D01*
X217525680Y-58879311D02*
X217498743Y-58960123D01*
X217498743Y-58960123D02*
X217498743Y-59013998D01*
X217498743Y-59013998D02*
X217525680Y-59094810D01*
X217525680Y-59094810D02*
X217660367Y-59229497D01*
X217660367Y-59229497D02*
X217741179Y-59256434D01*
X217741179Y-59256434D02*
X217795054Y-59256434D01*
X217795054Y-59256434D02*
X217875866Y-59229497D01*
X217875866Y-59229497D02*
X217983616Y-59121747D01*
X217983616Y-59121747D02*
X218010553Y-59040935D01*
X218010553Y-59040935D02*
X218010553Y-58987060D01*
X218010553Y-58987060D02*
X217983616Y-58906248D01*
X216097998Y-62900868D02*
X216017185Y-62927805D01*
X216017185Y-62927805D02*
X215936373Y-63008618D01*
X215936373Y-63008618D02*
X215882498Y-63116367D01*
X215882498Y-63116367D02*
X215882498Y-63224117D01*
X215882498Y-63224117D02*
X215909436Y-63304929D01*
X215909436Y-63304929D02*
X215990248Y-63439616D01*
X215990248Y-63439616D02*
X216071060Y-63520428D01*
X216071060Y-63520428D02*
X216205747Y-63601241D01*
X216205747Y-63601241D02*
X216286560Y-63628178D01*
X216286560Y-63628178D02*
X216394309Y-63628178D01*
X216394309Y-63628178D02*
X216502059Y-63574303D01*
X216502059Y-63574303D02*
X216555934Y-63520428D01*
X216555934Y-63520428D02*
X216609808Y-63412679D01*
X216609808Y-63412679D02*
X216609808Y-63358804D01*
X216609808Y-63358804D02*
X216421247Y-63170242D01*
X216421247Y-63170242D02*
X216313497Y-63277992D01*
X216906120Y-63170242D02*
X216340434Y-62604557D01*
X216340434Y-62604557D02*
X216555934Y-62389057D01*
X216555934Y-62389057D02*
X216636746Y-62362120D01*
X216636746Y-62362120D02*
X216690621Y-62362120D01*
X216690621Y-62362120D02*
X216771433Y-62389057D01*
X216771433Y-62389057D02*
X216852245Y-62469870D01*
X216852245Y-62469870D02*
X216879182Y-62550682D01*
X216879182Y-62550682D02*
X216879182Y-62604557D01*
X216879182Y-62604557D02*
X216852245Y-62685369D01*
X216852245Y-62685369D02*
X216636746Y-62900868D01*
X217768117Y-62308245D02*
X217444868Y-62631494D01*
X217606492Y-62469870D02*
X217040807Y-61904184D01*
X217040807Y-61904184D02*
X217067744Y-62038871D01*
X217067744Y-62038871D02*
X217067744Y-62146621D01*
X217067744Y-62146621D02*
X217040807Y-62227433D01*
X217768117Y-61661747D02*
X217687305Y-61688685D01*
X217687305Y-61688685D02*
X217633430Y-61688685D01*
X217633430Y-61688685D02*
X217552618Y-61661747D01*
X217552618Y-61661747D02*
X217525680Y-61634810D01*
X217525680Y-61634810D02*
X217498743Y-61553998D01*
X217498743Y-61553998D02*
X217498743Y-61500123D01*
X217498743Y-61500123D02*
X217525680Y-61419311D01*
X217525680Y-61419311D02*
X217633430Y-61311561D01*
X217633430Y-61311561D02*
X217714242Y-61284624D01*
X217714242Y-61284624D02*
X217768117Y-61284624D01*
X217768117Y-61284624D02*
X217848929Y-61311561D01*
X217848929Y-61311561D02*
X217875866Y-61338499D01*
X217875866Y-61338499D02*
X217902804Y-61419311D01*
X217902804Y-61419311D02*
X217902804Y-61473186D01*
X217902804Y-61473186D02*
X217875866Y-61553998D01*
X217875866Y-61553998D02*
X217768117Y-61661747D01*
X217768117Y-61661747D02*
X217741179Y-61742560D01*
X217741179Y-61742560D02*
X217741179Y-61796434D01*
X217741179Y-61796434D02*
X217768117Y-61877247D01*
X217768117Y-61877247D02*
X217875866Y-61984996D01*
X217875866Y-61984996D02*
X217956679Y-62011934D01*
X217956679Y-62011934D02*
X218010553Y-62011934D01*
X218010553Y-62011934D02*
X218091366Y-61984996D01*
X218091366Y-61984996D02*
X218199115Y-61877247D01*
X218199115Y-61877247D02*
X218226053Y-61796434D01*
X218226053Y-61796434D02*
X218226053Y-61742560D01*
X218226053Y-61742560D02*
X218199115Y-61661747D01*
X218199115Y-61661747D02*
X218091366Y-61553998D01*
X218091366Y-61553998D02*
X218010553Y-61527060D01*
X218010553Y-61527060D02*
X217956679Y-61527060D01*
X217956679Y-61527060D02*
X217875866Y-61553998D01*
X196490475Y-72524200D02*
X196604761Y-72562295D01*
X196604761Y-72562295D02*
X196795237Y-72562295D01*
X196795237Y-72562295D02*
X196871428Y-72524200D01*
X196871428Y-72524200D02*
X196909523Y-72486104D01*
X196909523Y-72486104D02*
X196947618Y-72409914D01*
X196947618Y-72409914D02*
X196947618Y-72333723D01*
X196947618Y-72333723D02*
X196909523Y-72257533D01*
X196909523Y-72257533D02*
X196871428Y-72219438D01*
X196871428Y-72219438D02*
X196795237Y-72181342D01*
X196795237Y-72181342D02*
X196642856Y-72143247D01*
X196642856Y-72143247D02*
X196566666Y-72105152D01*
X196566666Y-72105152D02*
X196528571Y-72067057D01*
X196528571Y-72067057D02*
X196490475Y-71990866D01*
X196490475Y-71990866D02*
X196490475Y-71914676D01*
X196490475Y-71914676D02*
X196528571Y-71838485D01*
X196528571Y-71838485D02*
X196566666Y-71800390D01*
X196566666Y-71800390D02*
X196642856Y-71762295D01*
X196642856Y-71762295D02*
X196833333Y-71762295D01*
X196833333Y-71762295D02*
X196947618Y-71800390D01*
X197214285Y-71762295D02*
X197404761Y-72562295D01*
X197404761Y-72562295D02*
X197557142Y-71990866D01*
X197557142Y-71990866D02*
X197709523Y-72562295D01*
X197709523Y-72562295D02*
X197900000Y-71762295D01*
X198661905Y-72486104D02*
X198623809Y-72524200D01*
X198623809Y-72524200D02*
X198509524Y-72562295D01*
X198509524Y-72562295D02*
X198433333Y-72562295D01*
X198433333Y-72562295D02*
X198319047Y-72524200D01*
X198319047Y-72524200D02*
X198242857Y-72448009D01*
X198242857Y-72448009D02*
X198204762Y-72371819D01*
X198204762Y-72371819D02*
X198166666Y-72219438D01*
X198166666Y-72219438D02*
X198166666Y-72105152D01*
X198166666Y-72105152D02*
X198204762Y-71952771D01*
X198204762Y-71952771D02*
X198242857Y-71876580D01*
X198242857Y-71876580D02*
X198319047Y-71800390D01*
X198319047Y-71800390D02*
X198433333Y-71762295D01*
X198433333Y-71762295D02*
X198509524Y-71762295D01*
X198509524Y-71762295D02*
X198623809Y-71800390D01*
X198623809Y-71800390D02*
X198661905Y-71838485D01*
X199385714Y-72562295D02*
X199004762Y-72562295D01*
X199004762Y-72562295D02*
X199004762Y-71762295D01*
X199652381Y-72562295D02*
X199652381Y-71762295D01*
X200109524Y-72562295D02*
X199766666Y-72105152D01*
X200109524Y-71762295D02*
X199652381Y-72219438D01*
X216097998Y-55290868D02*
X216017185Y-55317805D01*
X216017185Y-55317805D02*
X215936373Y-55398618D01*
X215936373Y-55398618D02*
X215882498Y-55506367D01*
X215882498Y-55506367D02*
X215882498Y-55614117D01*
X215882498Y-55614117D02*
X215909436Y-55694929D01*
X215909436Y-55694929D02*
X215990248Y-55829616D01*
X215990248Y-55829616D02*
X216071060Y-55910428D01*
X216071060Y-55910428D02*
X216205747Y-55991241D01*
X216205747Y-55991241D02*
X216286560Y-56018178D01*
X216286560Y-56018178D02*
X216394309Y-56018178D01*
X216394309Y-56018178D02*
X216502059Y-55964303D01*
X216502059Y-55964303D02*
X216555934Y-55910428D01*
X216555934Y-55910428D02*
X216609808Y-55802679D01*
X216609808Y-55802679D02*
X216609808Y-55748804D01*
X216609808Y-55748804D02*
X216421247Y-55560242D01*
X216421247Y-55560242D02*
X216313497Y-55667992D01*
X216906120Y-55560242D02*
X216340434Y-54994557D01*
X216340434Y-54994557D02*
X216555934Y-54779057D01*
X216555934Y-54779057D02*
X216636746Y-54752120D01*
X216636746Y-54752120D02*
X216690621Y-54752120D01*
X216690621Y-54752120D02*
X216771433Y-54779057D01*
X216771433Y-54779057D02*
X216852245Y-54859870D01*
X216852245Y-54859870D02*
X216879182Y-54940682D01*
X216879182Y-54940682D02*
X216879182Y-54994557D01*
X216879182Y-54994557D02*
X216852245Y-55075369D01*
X216852245Y-55075369D02*
X216636746Y-55290868D01*
X216933057Y-54509683D02*
X216933057Y-54455809D01*
X216933057Y-54455809D02*
X216959995Y-54374996D01*
X216959995Y-54374996D02*
X217094682Y-54240309D01*
X217094682Y-54240309D02*
X217175494Y-54213372D01*
X217175494Y-54213372D02*
X217229369Y-54213372D01*
X217229369Y-54213372D02*
X217310181Y-54240309D01*
X217310181Y-54240309D02*
X217364056Y-54294184D01*
X217364056Y-54294184D02*
X217417930Y-54401934D01*
X217417930Y-54401934D02*
X217417930Y-55048431D01*
X217417930Y-55048431D02*
X217768117Y-54698245D01*
X218306865Y-54159497D02*
X217983616Y-54482746D01*
X218145240Y-54321121D02*
X217579555Y-53755436D01*
X217579555Y-53755436D02*
X217606492Y-53890123D01*
X217606492Y-53890123D02*
X217606492Y-53997873D01*
X217606492Y-53997873D02*
X217579555Y-54078685D01*
X189943998Y-67980868D02*
X189863185Y-68007805D01*
X189863185Y-68007805D02*
X189782373Y-68088618D01*
X189782373Y-68088618D02*
X189728498Y-68196367D01*
X189728498Y-68196367D02*
X189728498Y-68304117D01*
X189728498Y-68304117D02*
X189755436Y-68384929D01*
X189755436Y-68384929D02*
X189836248Y-68519616D01*
X189836248Y-68519616D02*
X189917060Y-68600428D01*
X189917060Y-68600428D02*
X190051747Y-68681241D01*
X190051747Y-68681241D02*
X190132560Y-68708178D01*
X190132560Y-68708178D02*
X190240309Y-68708178D01*
X190240309Y-68708178D02*
X190348059Y-68654303D01*
X190348059Y-68654303D02*
X190401934Y-68600428D01*
X190401934Y-68600428D02*
X190455808Y-68492679D01*
X190455808Y-68492679D02*
X190455808Y-68438804D01*
X190455808Y-68438804D02*
X190267247Y-68250242D01*
X190267247Y-68250242D02*
X190159497Y-68357992D01*
X190752120Y-68250242D02*
X190186434Y-67684557D01*
X190186434Y-67684557D02*
X190401934Y-67469057D01*
X190401934Y-67469057D02*
X190482746Y-67442120D01*
X190482746Y-67442120D02*
X190536621Y-67442120D01*
X190536621Y-67442120D02*
X190617433Y-67469057D01*
X190617433Y-67469057D02*
X190698245Y-67549870D01*
X190698245Y-67549870D02*
X190725182Y-67630682D01*
X190725182Y-67630682D02*
X190725182Y-67684557D01*
X190725182Y-67684557D02*
X190698245Y-67765369D01*
X190698245Y-67765369D02*
X190482746Y-67980868D01*
X191614117Y-67388245D02*
X191290868Y-67711494D01*
X191452492Y-67549870D02*
X190886807Y-66984184D01*
X190886807Y-66984184D02*
X190913744Y-67118871D01*
X190913744Y-67118871D02*
X190913744Y-67226621D01*
X190913744Y-67226621D02*
X190886807Y-67307433D01*
X191721866Y-66526248D02*
X192098990Y-66903372D01*
X191371680Y-66445436D02*
X191641054Y-66984184D01*
X191641054Y-66984184D02*
X191991240Y-66633998D01*
X216151873Y-40741240D02*
X216421247Y-40471866D01*
X216259623Y-40956739D02*
X215882499Y-40202492D01*
X215882499Y-40202492D02*
X216636746Y-40579615D01*
X216582871Y-39555994D02*
X216502059Y-39582932D01*
X216502059Y-39582932D02*
X216421247Y-39663744D01*
X216421247Y-39663744D02*
X216367372Y-39771494D01*
X216367372Y-39771494D02*
X216367372Y-39879243D01*
X216367372Y-39879243D02*
X216394310Y-39960055D01*
X216394310Y-39960055D02*
X216475122Y-40094742D01*
X216475122Y-40094742D02*
X216555934Y-40175555D01*
X216555934Y-40175555D02*
X216690621Y-40256367D01*
X216690621Y-40256367D02*
X216771433Y-40283304D01*
X216771433Y-40283304D02*
X216879183Y-40283304D01*
X216879183Y-40283304D02*
X216986932Y-40229429D01*
X216986932Y-40229429D02*
X217040807Y-40175555D01*
X217040807Y-40175555D02*
X217094682Y-40067805D01*
X217094682Y-40067805D02*
X217094682Y-40013930D01*
X217094682Y-40013930D02*
X216906120Y-39825368D01*
X216906120Y-39825368D02*
X216798371Y-39933118D01*
X217390993Y-39825368D02*
X216825308Y-39259683D01*
X216825308Y-39259683D02*
X217714242Y-39502120D01*
X217714242Y-39502120D02*
X217148557Y-38936434D01*
X217983616Y-39232746D02*
X217417931Y-38667060D01*
X217417931Y-38667060D02*
X217552618Y-38532373D01*
X217552618Y-38532373D02*
X217660367Y-38478498D01*
X217660367Y-38478498D02*
X217768117Y-38478498D01*
X217768117Y-38478498D02*
X217848929Y-38505436D01*
X217848929Y-38505436D02*
X217983616Y-38586248D01*
X217983616Y-38586248D02*
X218064428Y-38667060D01*
X218064428Y-38667060D02*
X218145241Y-38801747D01*
X218145241Y-38801747D02*
X218172178Y-38882560D01*
X218172178Y-38882560D02*
X218172178Y-38990309D01*
X218172178Y-38990309D02*
X218118303Y-39098059D01*
X218118303Y-39098059D02*
X217983616Y-39232746D01*
X190513372Y-42311494D02*
X190432560Y-42338431D01*
X190432560Y-42338431D02*
X190351748Y-42419243D01*
X190351748Y-42419243D02*
X190297873Y-42526993D01*
X190297873Y-42526993D02*
X190297873Y-42634742D01*
X190297873Y-42634742D02*
X190324810Y-42715555D01*
X190324810Y-42715555D02*
X190405623Y-42850242D01*
X190405623Y-42850242D02*
X190486435Y-42931054D01*
X190486435Y-42931054D02*
X190621122Y-43011866D01*
X190621122Y-43011866D02*
X190701934Y-43038803D01*
X190701934Y-43038803D02*
X190809684Y-43038803D01*
X190809684Y-43038803D02*
X190917433Y-42984929D01*
X190917433Y-42984929D02*
X190971308Y-42931054D01*
X190971308Y-42931054D02*
X191025183Y-42823304D01*
X191025183Y-42823304D02*
X191025183Y-42769429D01*
X191025183Y-42769429D02*
X190836621Y-42580868D01*
X190836621Y-42580868D02*
X190728871Y-42688617D01*
X191321494Y-42580868D02*
X190755809Y-42015182D01*
X190755809Y-42015182D02*
X190971308Y-41799683D01*
X190971308Y-41799683D02*
X191052120Y-41772746D01*
X191052120Y-41772746D02*
X191105995Y-41772746D01*
X191105995Y-41772746D02*
X191186807Y-41799683D01*
X191186807Y-41799683D02*
X191267619Y-41880495D01*
X191267619Y-41880495D02*
X191294557Y-41961307D01*
X191294557Y-41961307D02*
X191294557Y-42015182D01*
X191294557Y-42015182D02*
X191267619Y-42095994D01*
X191267619Y-42095994D02*
X191052120Y-42311494D01*
X191563931Y-41207060D02*
X191456181Y-41314810D01*
X191456181Y-41314810D02*
X191429244Y-41395622D01*
X191429244Y-41395622D02*
X191429244Y-41449497D01*
X191429244Y-41449497D02*
X191456181Y-41584184D01*
X191456181Y-41584184D02*
X191536993Y-41718871D01*
X191536993Y-41718871D02*
X191752493Y-41934370D01*
X191752493Y-41934370D02*
X191833305Y-41961307D01*
X191833305Y-41961307D02*
X191887180Y-41961307D01*
X191887180Y-41961307D02*
X191967992Y-41934370D01*
X191967992Y-41934370D02*
X192075741Y-41826620D01*
X192075741Y-41826620D02*
X192102679Y-41745808D01*
X192102679Y-41745808D02*
X192102679Y-41691933D01*
X192102679Y-41691933D02*
X192075741Y-41611121D01*
X192075741Y-41611121D02*
X191941054Y-41476434D01*
X191941054Y-41476434D02*
X191860242Y-41449497D01*
X191860242Y-41449497D02*
X191806367Y-41449497D01*
X191806367Y-41449497D02*
X191725555Y-41476434D01*
X191725555Y-41476434D02*
X191617806Y-41584184D01*
X191617806Y-41584184D02*
X191590868Y-41664996D01*
X191590868Y-41664996D02*
X191590868Y-41718871D01*
X191590868Y-41718871D02*
X191617806Y-41799683D01*
X189843998Y-60360868D02*
X189763185Y-60387805D01*
X189763185Y-60387805D02*
X189682373Y-60468618D01*
X189682373Y-60468618D02*
X189628498Y-60576367D01*
X189628498Y-60576367D02*
X189628498Y-60684117D01*
X189628498Y-60684117D02*
X189655436Y-60764929D01*
X189655436Y-60764929D02*
X189736248Y-60899616D01*
X189736248Y-60899616D02*
X189817060Y-60980428D01*
X189817060Y-60980428D02*
X189951747Y-61061241D01*
X189951747Y-61061241D02*
X190032560Y-61088178D01*
X190032560Y-61088178D02*
X190140309Y-61088178D01*
X190140309Y-61088178D02*
X190248059Y-61034303D01*
X190248059Y-61034303D02*
X190301934Y-60980428D01*
X190301934Y-60980428D02*
X190355808Y-60872679D01*
X190355808Y-60872679D02*
X190355808Y-60818804D01*
X190355808Y-60818804D02*
X190167247Y-60630242D01*
X190167247Y-60630242D02*
X190059497Y-60737992D01*
X190652120Y-60630242D02*
X190086434Y-60064557D01*
X190086434Y-60064557D02*
X190301934Y-59849057D01*
X190301934Y-59849057D02*
X190382746Y-59822120D01*
X190382746Y-59822120D02*
X190436621Y-59822120D01*
X190436621Y-59822120D02*
X190517433Y-59849057D01*
X190517433Y-59849057D02*
X190598245Y-59929870D01*
X190598245Y-59929870D02*
X190625182Y-60010682D01*
X190625182Y-60010682D02*
X190625182Y-60064557D01*
X190625182Y-60064557D02*
X190598245Y-60145369D01*
X190598245Y-60145369D02*
X190382746Y-60360868D01*
X191514117Y-59768245D02*
X191190868Y-60091494D01*
X191352492Y-59929870D02*
X190786807Y-59364184D01*
X190786807Y-59364184D02*
X190813744Y-59498871D01*
X190813744Y-59498871D02*
X190813744Y-59606621D01*
X190813744Y-59606621D02*
X190786807Y-59687433D01*
X191217805Y-59040935D02*
X191217805Y-58987060D01*
X191217805Y-58987060D02*
X191244743Y-58906248D01*
X191244743Y-58906248D02*
X191379430Y-58771561D01*
X191379430Y-58771561D02*
X191460242Y-58744624D01*
X191460242Y-58744624D02*
X191514117Y-58744624D01*
X191514117Y-58744624D02*
X191594929Y-58771561D01*
X191594929Y-58771561D02*
X191648804Y-58825436D01*
X191648804Y-58825436D02*
X191702679Y-58933186D01*
X191702679Y-58933186D02*
X191702679Y-59579683D01*
X191702679Y-59579683D02*
X192052865Y-59229497D01*
X190413372Y-24521494D02*
X190332560Y-24548431D01*
X190332560Y-24548431D02*
X190251748Y-24629243D01*
X190251748Y-24629243D02*
X190197873Y-24736993D01*
X190197873Y-24736993D02*
X190197873Y-24844742D01*
X190197873Y-24844742D02*
X190224810Y-24925555D01*
X190224810Y-24925555D02*
X190305623Y-25060242D01*
X190305623Y-25060242D02*
X190386435Y-25141054D01*
X190386435Y-25141054D02*
X190521122Y-25221866D01*
X190521122Y-25221866D02*
X190601934Y-25248803D01*
X190601934Y-25248803D02*
X190709684Y-25248803D01*
X190709684Y-25248803D02*
X190817433Y-25194929D01*
X190817433Y-25194929D02*
X190871308Y-25141054D01*
X190871308Y-25141054D02*
X190925183Y-25033304D01*
X190925183Y-25033304D02*
X190925183Y-24979429D01*
X190925183Y-24979429D02*
X190736621Y-24790868D01*
X190736621Y-24790868D02*
X190628871Y-24898617D01*
X191221494Y-24790868D02*
X190655809Y-24225182D01*
X190655809Y-24225182D02*
X190871308Y-24009683D01*
X190871308Y-24009683D02*
X190952120Y-23982746D01*
X190952120Y-23982746D02*
X191005995Y-23982746D01*
X191005995Y-23982746D02*
X191086807Y-24009683D01*
X191086807Y-24009683D02*
X191167619Y-24090495D01*
X191167619Y-24090495D02*
X191194557Y-24171307D01*
X191194557Y-24171307D02*
X191194557Y-24225182D01*
X191194557Y-24225182D02*
X191167619Y-24305994D01*
X191167619Y-24305994D02*
X190952120Y-24521494D01*
X192083491Y-23928871D02*
X191760242Y-24252120D01*
X191921867Y-24090495D02*
X191356181Y-23524810D01*
X191356181Y-23524810D02*
X191383119Y-23659497D01*
X191383119Y-23659497D02*
X191383119Y-23767246D01*
X191383119Y-23767246D02*
X191356181Y-23848059D01*
X215920749Y-25070242D02*
X216674996Y-25447366D01*
X216674996Y-25447366D02*
X216297873Y-24693118D01*
X216998245Y-25070242D02*
X217105995Y-25016367D01*
X217105995Y-25016367D02*
X217240682Y-24881680D01*
X217240682Y-24881680D02*
X217267619Y-24800868D01*
X217267619Y-24800868D02*
X217267619Y-24746993D01*
X217267619Y-24746993D02*
X217240682Y-24666181D01*
X217240682Y-24666181D02*
X217186807Y-24612306D01*
X217186807Y-24612306D02*
X217105995Y-24585369D01*
X217105995Y-24585369D02*
X217052120Y-24585369D01*
X217052120Y-24585369D02*
X216971308Y-24612306D01*
X216971308Y-24612306D02*
X216836621Y-24693118D01*
X216836621Y-24693118D02*
X216755808Y-24720056D01*
X216755808Y-24720056D02*
X216701934Y-24720056D01*
X216701934Y-24720056D02*
X216621121Y-24693118D01*
X216621121Y-24693118D02*
X216567247Y-24639244D01*
X216567247Y-24639244D02*
X216540309Y-24558431D01*
X216540309Y-24558431D02*
X216540309Y-24504557D01*
X216540309Y-24504557D02*
X216567247Y-24423744D01*
X216567247Y-24423744D02*
X216701934Y-24289057D01*
X216701934Y-24289057D02*
X216809683Y-24235183D01*
X217429244Y-24154370D02*
X217698618Y-24423744D01*
X216944370Y-24046621D02*
X217429244Y-24154370D01*
X217429244Y-24154370D02*
X217321494Y-23669497D01*
X218021866Y-24046621D02*
X218129616Y-23992746D01*
X218129616Y-23992746D02*
X218264303Y-23858059D01*
X218264303Y-23858059D02*
X218291240Y-23777247D01*
X218291240Y-23777247D02*
X218291240Y-23723372D01*
X218291240Y-23723372D02*
X218264303Y-23642560D01*
X218264303Y-23642560D02*
X218210428Y-23588685D01*
X218210428Y-23588685D02*
X218129616Y-23561748D01*
X218129616Y-23561748D02*
X218075741Y-23561748D01*
X218075741Y-23561748D02*
X217994929Y-23588685D01*
X217994929Y-23588685D02*
X217860242Y-23669497D01*
X217860242Y-23669497D02*
X217779430Y-23696435D01*
X217779430Y-23696435D02*
X217725555Y-23696435D01*
X217725555Y-23696435D02*
X217644743Y-23669497D01*
X217644743Y-23669497D02*
X217590868Y-23615622D01*
X217590868Y-23615622D02*
X217563930Y-23534810D01*
X217563930Y-23534810D02*
X217563930Y-23480935D01*
X217563930Y-23480935D02*
X217590868Y-23400123D01*
X217590868Y-23400123D02*
X217725555Y-23265436D01*
X217725555Y-23265436D02*
X217833304Y-23211561D01*
X190513372Y-21991494D02*
X190432560Y-22018431D01*
X190432560Y-22018431D02*
X190351748Y-22099243D01*
X190351748Y-22099243D02*
X190297873Y-22206993D01*
X190297873Y-22206993D02*
X190297873Y-22314742D01*
X190297873Y-22314742D02*
X190324810Y-22395555D01*
X190324810Y-22395555D02*
X190405623Y-22530242D01*
X190405623Y-22530242D02*
X190486435Y-22611054D01*
X190486435Y-22611054D02*
X190621122Y-22691866D01*
X190621122Y-22691866D02*
X190701934Y-22718803D01*
X190701934Y-22718803D02*
X190809684Y-22718803D01*
X190809684Y-22718803D02*
X190917433Y-22664929D01*
X190917433Y-22664929D02*
X190971308Y-22611054D01*
X190971308Y-22611054D02*
X191025183Y-22503304D01*
X191025183Y-22503304D02*
X191025183Y-22449429D01*
X191025183Y-22449429D02*
X190836621Y-22260868D01*
X190836621Y-22260868D02*
X190728871Y-22368617D01*
X191321494Y-22260868D02*
X190755809Y-21695182D01*
X190755809Y-21695182D02*
X190971308Y-21479683D01*
X190971308Y-21479683D02*
X191052120Y-21452746D01*
X191052120Y-21452746D02*
X191105995Y-21452746D01*
X191105995Y-21452746D02*
X191186807Y-21479683D01*
X191186807Y-21479683D02*
X191267619Y-21560495D01*
X191267619Y-21560495D02*
X191294557Y-21641307D01*
X191294557Y-21641307D02*
X191294557Y-21695182D01*
X191294557Y-21695182D02*
X191267619Y-21775994D01*
X191267619Y-21775994D02*
X191052120Y-21991494D01*
X191429244Y-21021747D02*
X191483119Y-20967872D01*
X191483119Y-20967872D02*
X191563931Y-20940935D01*
X191563931Y-20940935D02*
X191617806Y-20940935D01*
X191617806Y-20940935D02*
X191698618Y-20967872D01*
X191698618Y-20967872D02*
X191833305Y-21048685D01*
X191833305Y-21048685D02*
X191967992Y-21183372D01*
X191967992Y-21183372D02*
X192048804Y-21318059D01*
X192048804Y-21318059D02*
X192075741Y-21398871D01*
X192075741Y-21398871D02*
X192075741Y-21452746D01*
X192075741Y-21452746D02*
X192048804Y-21533558D01*
X192048804Y-21533558D02*
X191994929Y-21587433D01*
X191994929Y-21587433D02*
X191914117Y-21614370D01*
X191914117Y-21614370D02*
X191860242Y-21614370D01*
X191860242Y-21614370D02*
X191779430Y-21587433D01*
X191779430Y-21587433D02*
X191644743Y-21506620D01*
X191644743Y-21506620D02*
X191510056Y-21371933D01*
X191510056Y-21371933D02*
X191429244Y-21237246D01*
X191429244Y-21237246D02*
X191402306Y-21156434D01*
X191402306Y-21156434D02*
X191402306Y-21102559D01*
X191402306Y-21102559D02*
X191429244Y-21021747D01*
X190513372Y-34691494D02*
X190432560Y-34718431D01*
X190432560Y-34718431D02*
X190351748Y-34799243D01*
X190351748Y-34799243D02*
X190297873Y-34906993D01*
X190297873Y-34906993D02*
X190297873Y-35014742D01*
X190297873Y-35014742D02*
X190324810Y-35095555D01*
X190324810Y-35095555D02*
X190405623Y-35230242D01*
X190405623Y-35230242D02*
X190486435Y-35311054D01*
X190486435Y-35311054D02*
X190621122Y-35391866D01*
X190621122Y-35391866D02*
X190701934Y-35418803D01*
X190701934Y-35418803D02*
X190809684Y-35418803D01*
X190809684Y-35418803D02*
X190917433Y-35364929D01*
X190917433Y-35364929D02*
X190971308Y-35311054D01*
X190971308Y-35311054D02*
X191025183Y-35203304D01*
X191025183Y-35203304D02*
X191025183Y-35149429D01*
X191025183Y-35149429D02*
X190836621Y-34960868D01*
X190836621Y-34960868D02*
X190728871Y-35068617D01*
X191321494Y-34960868D02*
X190755809Y-34395182D01*
X190755809Y-34395182D02*
X190971308Y-34179683D01*
X190971308Y-34179683D02*
X191052120Y-34152746D01*
X191052120Y-34152746D02*
X191105995Y-34152746D01*
X191105995Y-34152746D02*
X191186807Y-34179683D01*
X191186807Y-34179683D02*
X191267619Y-34260495D01*
X191267619Y-34260495D02*
X191294557Y-34341307D01*
X191294557Y-34341307D02*
X191294557Y-34395182D01*
X191294557Y-34395182D02*
X191267619Y-34475994D01*
X191267619Y-34475994D02*
X191052120Y-34691494D01*
X191752493Y-33775622D02*
X192129616Y-34152746D01*
X191402306Y-33694810D02*
X191671680Y-34233558D01*
X191671680Y-34233558D02*
X192021867Y-33883372D01*
X216097998Y-37246868D02*
X216017185Y-37273805D01*
X216017185Y-37273805D02*
X215936373Y-37354618D01*
X215936373Y-37354618D02*
X215882498Y-37462367D01*
X215882498Y-37462367D02*
X215882498Y-37570117D01*
X215882498Y-37570117D02*
X215909436Y-37650929D01*
X215909436Y-37650929D02*
X215990248Y-37785616D01*
X215990248Y-37785616D02*
X216071060Y-37866428D01*
X216071060Y-37866428D02*
X216205747Y-37947241D01*
X216205747Y-37947241D02*
X216286560Y-37974178D01*
X216286560Y-37974178D02*
X216394309Y-37974178D01*
X216394309Y-37974178D02*
X216502059Y-37920303D01*
X216502059Y-37920303D02*
X216555934Y-37866428D01*
X216555934Y-37866428D02*
X216609808Y-37758679D01*
X216609808Y-37758679D02*
X216609808Y-37704804D01*
X216609808Y-37704804D02*
X216421247Y-37516242D01*
X216421247Y-37516242D02*
X216313497Y-37623992D01*
X216906120Y-37516242D02*
X216340434Y-36950557D01*
X216340434Y-36950557D02*
X216555934Y-36735057D01*
X216555934Y-36735057D02*
X216636746Y-36708120D01*
X216636746Y-36708120D02*
X216690621Y-36708120D01*
X216690621Y-36708120D02*
X216771433Y-36735057D01*
X216771433Y-36735057D02*
X216852245Y-36815870D01*
X216852245Y-36815870D02*
X216879182Y-36896682D01*
X216879182Y-36896682D02*
X216879182Y-36950557D01*
X216879182Y-36950557D02*
X216852245Y-37031369D01*
X216852245Y-37031369D02*
X216636746Y-37246868D01*
X216933057Y-36465683D02*
X216933057Y-36411809D01*
X216933057Y-36411809D02*
X216959995Y-36330996D01*
X216959995Y-36330996D02*
X217094682Y-36196309D01*
X217094682Y-36196309D02*
X217175494Y-36169372D01*
X217175494Y-36169372D02*
X217229369Y-36169372D01*
X217229369Y-36169372D02*
X217310181Y-36196309D01*
X217310181Y-36196309D02*
X217364056Y-36250184D01*
X217364056Y-36250184D02*
X217417930Y-36357934D01*
X217417930Y-36357934D02*
X217417930Y-37004431D01*
X217417930Y-37004431D02*
X217768117Y-36654245D01*
X217768117Y-36007747D02*
X217687305Y-36034685D01*
X217687305Y-36034685D02*
X217633430Y-36034685D01*
X217633430Y-36034685D02*
X217552618Y-36007747D01*
X217552618Y-36007747D02*
X217525680Y-35980810D01*
X217525680Y-35980810D02*
X217498743Y-35899998D01*
X217498743Y-35899998D02*
X217498743Y-35846123D01*
X217498743Y-35846123D02*
X217525680Y-35765311D01*
X217525680Y-35765311D02*
X217633430Y-35657561D01*
X217633430Y-35657561D02*
X217714242Y-35630624D01*
X217714242Y-35630624D02*
X217768117Y-35630624D01*
X217768117Y-35630624D02*
X217848929Y-35657561D01*
X217848929Y-35657561D02*
X217875866Y-35684499D01*
X217875866Y-35684499D02*
X217902804Y-35765311D01*
X217902804Y-35765311D02*
X217902804Y-35819186D01*
X217902804Y-35819186D02*
X217875866Y-35899998D01*
X217875866Y-35899998D02*
X217768117Y-36007747D01*
X217768117Y-36007747D02*
X217741179Y-36088560D01*
X217741179Y-36088560D02*
X217741179Y-36142434D01*
X217741179Y-36142434D02*
X217768117Y-36223247D01*
X217768117Y-36223247D02*
X217875866Y-36330996D01*
X217875866Y-36330996D02*
X217956679Y-36357934D01*
X217956679Y-36357934D02*
X218010553Y-36357934D01*
X218010553Y-36357934D02*
X218091366Y-36330996D01*
X218091366Y-36330996D02*
X218199115Y-36223247D01*
X218199115Y-36223247D02*
X218226053Y-36142434D01*
X218226053Y-36142434D02*
X218226053Y-36088560D01*
X218226053Y-36088560D02*
X218199115Y-36007747D01*
X218199115Y-36007747D02*
X218091366Y-35899998D01*
X218091366Y-35899998D02*
X218010553Y-35873060D01*
X218010553Y-35873060D02*
X217956679Y-35873060D01*
X217956679Y-35873060D02*
X217875866Y-35899998D01*
X216097998Y-70520868D02*
X216017185Y-70547805D01*
X216017185Y-70547805D02*
X215936373Y-70628618D01*
X215936373Y-70628618D02*
X215882498Y-70736367D01*
X215882498Y-70736367D02*
X215882498Y-70844117D01*
X215882498Y-70844117D02*
X215909436Y-70924929D01*
X215909436Y-70924929D02*
X215990248Y-71059616D01*
X215990248Y-71059616D02*
X216071060Y-71140428D01*
X216071060Y-71140428D02*
X216205747Y-71221241D01*
X216205747Y-71221241D02*
X216286560Y-71248178D01*
X216286560Y-71248178D02*
X216394309Y-71248178D01*
X216394309Y-71248178D02*
X216502059Y-71194303D01*
X216502059Y-71194303D02*
X216555934Y-71140428D01*
X216555934Y-71140428D02*
X216609808Y-71032679D01*
X216609808Y-71032679D02*
X216609808Y-70978804D01*
X216609808Y-70978804D02*
X216421247Y-70790242D01*
X216421247Y-70790242D02*
X216313497Y-70897992D01*
X216906120Y-70790242D02*
X216340434Y-70224557D01*
X216340434Y-70224557D02*
X216555934Y-70009057D01*
X216555934Y-70009057D02*
X216636746Y-69982120D01*
X216636746Y-69982120D02*
X216690621Y-69982120D01*
X216690621Y-69982120D02*
X216771433Y-70009057D01*
X216771433Y-70009057D02*
X216852245Y-70089870D01*
X216852245Y-70089870D02*
X216879182Y-70170682D01*
X216879182Y-70170682D02*
X216879182Y-70224557D01*
X216879182Y-70224557D02*
X216852245Y-70305369D01*
X216852245Y-70305369D02*
X216636746Y-70520868D01*
X217768117Y-69928245D02*
X217444868Y-70251494D01*
X217606492Y-70089870D02*
X217040807Y-69524184D01*
X217040807Y-69524184D02*
X217067744Y-69658871D01*
X217067744Y-69658871D02*
X217067744Y-69766621D01*
X217067744Y-69766621D02*
X217040807Y-69847433D01*
X217687305Y-68877686D02*
X217579555Y-68985436D01*
X217579555Y-68985436D02*
X217552618Y-69066248D01*
X217552618Y-69066248D02*
X217552618Y-69120123D01*
X217552618Y-69120123D02*
X217579555Y-69254810D01*
X217579555Y-69254810D02*
X217660367Y-69389497D01*
X217660367Y-69389497D02*
X217875866Y-69604996D01*
X217875866Y-69604996D02*
X217956679Y-69631934D01*
X217956679Y-69631934D02*
X218010553Y-69631934D01*
X218010553Y-69631934D02*
X218091366Y-69604996D01*
X218091366Y-69604996D02*
X218199115Y-69497247D01*
X218199115Y-69497247D02*
X218226053Y-69416434D01*
X218226053Y-69416434D02*
X218226053Y-69362560D01*
X218226053Y-69362560D02*
X218199115Y-69281747D01*
X218199115Y-69281747D02*
X218064428Y-69147060D01*
X218064428Y-69147060D02*
X217983616Y-69120123D01*
X217983616Y-69120123D02*
X217929741Y-69120123D01*
X217929741Y-69120123D02*
X217848929Y-69147060D01*
X217848929Y-69147060D02*
X217741179Y-69254810D01*
X217741179Y-69254810D02*
X217714242Y-69335622D01*
X217714242Y-69335622D02*
X217714242Y-69389497D01*
X217714242Y-69389497D02*
X217741179Y-69470309D01*
X189989998Y-62900868D02*
X189909185Y-62927805D01*
X189909185Y-62927805D02*
X189828373Y-63008618D01*
X189828373Y-63008618D02*
X189774498Y-63116367D01*
X189774498Y-63116367D02*
X189774498Y-63224117D01*
X189774498Y-63224117D02*
X189801436Y-63304929D01*
X189801436Y-63304929D02*
X189882248Y-63439616D01*
X189882248Y-63439616D02*
X189963060Y-63520428D01*
X189963060Y-63520428D02*
X190097747Y-63601241D01*
X190097747Y-63601241D02*
X190178560Y-63628178D01*
X190178560Y-63628178D02*
X190286309Y-63628178D01*
X190286309Y-63628178D02*
X190394059Y-63574303D01*
X190394059Y-63574303D02*
X190447934Y-63520428D01*
X190447934Y-63520428D02*
X190501808Y-63412679D01*
X190501808Y-63412679D02*
X190501808Y-63358804D01*
X190501808Y-63358804D02*
X190313247Y-63170242D01*
X190313247Y-63170242D02*
X190205497Y-63277992D01*
X190798120Y-63170242D02*
X190232434Y-62604557D01*
X190232434Y-62604557D02*
X190447934Y-62389057D01*
X190447934Y-62389057D02*
X190528746Y-62362120D01*
X190528746Y-62362120D02*
X190582621Y-62362120D01*
X190582621Y-62362120D02*
X190663433Y-62389057D01*
X190663433Y-62389057D02*
X190744245Y-62469870D01*
X190744245Y-62469870D02*
X190771182Y-62550682D01*
X190771182Y-62550682D02*
X190771182Y-62604557D01*
X190771182Y-62604557D02*
X190744245Y-62685369D01*
X190744245Y-62685369D02*
X190528746Y-62900868D01*
X191660117Y-62308245D02*
X191336868Y-62631494D01*
X191498492Y-62469870D02*
X190932807Y-61904184D01*
X190932807Y-61904184D02*
X190959744Y-62038871D01*
X190959744Y-62038871D02*
X190959744Y-62146621D01*
X190959744Y-62146621D02*
X190932807Y-62227433D01*
X191282993Y-61553998D02*
X191633179Y-61203812D01*
X191633179Y-61203812D02*
X191660117Y-61607873D01*
X191660117Y-61607873D02*
X191740929Y-61527060D01*
X191740929Y-61527060D02*
X191821741Y-61500123D01*
X191821741Y-61500123D02*
X191875616Y-61500123D01*
X191875616Y-61500123D02*
X191956428Y-61527060D01*
X191956428Y-61527060D02*
X192091115Y-61661747D01*
X192091115Y-61661747D02*
X192118053Y-61742560D01*
X192118053Y-61742560D02*
X192118053Y-61796434D01*
X192118053Y-61796434D02*
X192091115Y-61877247D01*
X192091115Y-61877247D02*
X191929491Y-62038871D01*
X191929491Y-62038871D02*
X191848679Y-62065808D01*
X191848679Y-62065808D02*
X191794804Y-62065808D01*
X190486435Y-52498431D02*
X190405623Y-52525368D01*
X190405623Y-52525368D02*
X190324811Y-52606180D01*
X190324811Y-52606180D02*
X190270936Y-52713930D01*
X190270936Y-52713930D02*
X190270936Y-52821680D01*
X190270936Y-52821680D02*
X190297873Y-52902492D01*
X190297873Y-52902492D02*
X190378685Y-53037179D01*
X190378685Y-53037179D02*
X190459498Y-53117991D01*
X190459498Y-53117991D02*
X190594185Y-53198803D01*
X190594185Y-53198803D02*
X190674997Y-53225741D01*
X190674997Y-53225741D02*
X190782746Y-53225741D01*
X190782746Y-53225741D02*
X190890496Y-53171866D01*
X190890496Y-53171866D02*
X190944371Y-53117991D01*
X190944371Y-53117991D02*
X190998246Y-53010241D01*
X190998246Y-53010241D02*
X190998246Y-52956367D01*
X190998246Y-52956367D02*
X190809684Y-52767805D01*
X190809684Y-52767805D02*
X190701934Y-52875554D01*
X191294557Y-52767805D02*
X190728872Y-52202119D01*
X190728872Y-52202119D02*
X191617806Y-52444556D01*
X191617806Y-52444556D02*
X191052120Y-51878871D01*
X191887180Y-52175182D02*
X191321494Y-51609497D01*
X191321494Y-51609497D02*
X191456181Y-51474810D01*
X191456181Y-51474810D02*
X191563931Y-51420935D01*
X191563931Y-51420935D02*
X191671680Y-51420935D01*
X191671680Y-51420935D02*
X191752493Y-51447872D01*
X191752493Y-51447872D02*
X191887180Y-51528685D01*
X191887180Y-51528685D02*
X191967992Y-51609497D01*
X191967992Y-51609497D02*
X192048804Y-51744184D01*
X192048804Y-51744184D02*
X192075741Y-51824996D01*
X192075741Y-51824996D02*
X192075741Y-51932746D01*
X192075741Y-51932746D02*
X192021867Y-52040495D01*
X192021867Y-52040495D02*
X191887180Y-52175182D01*
X190513372Y-47391494D02*
X190432560Y-47418431D01*
X190432560Y-47418431D02*
X190351748Y-47499243D01*
X190351748Y-47499243D02*
X190297873Y-47606993D01*
X190297873Y-47606993D02*
X190297873Y-47714742D01*
X190297873Y-47714742D02*
X190324810Y-47795555D01*
X190324810Y-47795555D02*
X190405623Y-47930242D01*
X190405623Y-47930242D02*
X190486435Y-48011054D01*
X190486435Y-48011054D02*
X190621122Y-48091866D01*
X190621122Y-48091866D02*
X190701934Y-48118803D01*
X190701934Y-48118803D02*
X190809684Y-48118803D01*
X190809684Y-48118803D02*
X190917433Y-48064929D01*
X190917433Y-48064929D02*
X190971308Y-48011054D01*
X190971308Y-48011054D02*
X191025183Y-47903304D01*
X191025183Y-47903304D02*
X191025183Y-47849429D01*
X191025183Y-47849429D02*
X190836621Y-47660868D01*
X190836621Y-47660868D02*
X190728871Y-47768617D01*
X191321494Y-47660868D02*
X190755809Y-47095182D01*
X190755809Y-47095182D02*
X190971308Y-46879683D01*
X190971308Y-46879683D02*
X191052120Y-46852746D01*
X191052120Y-46852746D02*
X191105995Y-46852746D01*
X191105995Y-46852746D02*
X191186807Y-46879683D01*
X191186807Y-46879683D02*
X191267619Y-46960495D01*
X191267619Y-46960495D02*
X191294557Y-47041307D01*
X191294557Y-47041307D02*
X191294557Y-47095182D01*
X191294557Y-47095182D02*
X191267619Y-47175994D01*
X191267619Y-47175994D02*
X191052120Y-47391494D01*
X191644743Y-46691121D02*
X191563931Y-46718059D01*
X191563931Y-46718059D02*
X191510056Y-46718059D01*
X191510056Y-46718059D02*
X191429244Y-46691121D01*
X191429244Y-46691121D02*
X191402306Y-46664184D01*
X191402306Y-46664184D02*
X191375369Y-46583372D01*
X191375369Y-46583372D02*
X191375369Y-46529497D01*
X191375369Y-46529497D02*
X191402306Y-46448685D01*
X191402306Y-46448685D02*
X191510056Y-46340935D01*
X191510056Y-46340935D02*
X191590868Y-46313998D01*
X191590868Y-46313998D02*
X191644743Y-46313998D01*
X191644743Y-46313998D02*
X191725555Y-46340935D01*
X191725555Y-46340935D02*
X191752493Y-46367872D01*
X191752493Y-46367872D02*
X191779430Y-46448685D01*
X191779430Y-46448685D02*
X191779430Y-46502559D01*
X191779430Y-46502559D02*
X191752493Y-46583372D01*
X191752493Y-46583372D02*
X191644743Y-46691121D01*
X191644743Y-46691121D02*
X191617806Y-46771933D01*
X191617806Y-46771933D02*
X191617806Y-46825808D01*
X191617806Y-46825808D02*
X191644743Y-46906620D01*
X191644743Y-46906620D02*
X191752493Y-47014370D01*
X191752493Y-47014370D02*
X191833305Y-47041307D01*
X191833305Y-47041307D02*
X191887180Y-47041307D01*
X191887180Y-47041307D02*
X191967992Y-47014370D01*
X191967992Y-47014370D02*
X192075741Y-46906620D01*
X192075741Y-46906620D02*
X192102679Y-46825808D01*
X192102679Y-46825808D02*
X192102679Y-46771933D01*
X192102679Y-46771933D02*
X192075741Y-46691121D01*
X192075741Y-46691121D02*
X191967992Y-46583372D01*
X191967992Y-46583372D02*
X191887180Y-46556434D01*
X191887180Y-46556434D02*
X191833305Y-46556434D01*
X191833305Y-46556434D02*
X191752493Y-46583372D01*
X215890123Y-32490868D02*
X216240309Y-32140682D01*
X216240309Y-32140682D02*
X216267247Y-32544743D01*
X216267247Y-32544743D02*
X216348059Y-32463931D01*
X216348059Y-32463931D02*
X216428871Y-32436993D01*
X216428871Y-32436993D02*
X216482746Y-32436993D01*
X216482746Y-32436993D02*
X216563558Y-32463931D01*
X216563558Y-32463931D02*
X216698245Y-32598618D01*
X216698245Y-32598618D02*
X216725182Y-32679430D01*
X216725182Y-32679430D02*
X216725182Y-32733305D01*
X216725182Y-32733305D02*
X216698245Y-32814117D01*
X216698245Y-32814117D02*
X216536621Y-32975741D01*
X216536621Y-32975741D02*
X216455808Y-33002679D01*
X216455808Y-33002679D02*
X216401934Y-33002679D01*
X216401934Y-31979057D02*
X217156181Y-32356181D01*
X217156181Y-32356181D02*
X216779057Y-31601934D01*
X216913744Y-31467247D02*
X217263930Y-31117061D01*
X217263930Y-31117061D02*
X217290868Y-31521122D01*
X217290868Y-31521122D02*
X217371680Y-31440309D01*
X217371680Y-31440309D02*
X217452492Y-31413372D01*
X217452492Y-31413372D02*
X217506367Y-31413372D01*
X217506367Y-31413372D02*
X217587179Y-31440309D01*
X217587179Y-31440309D02*
X217721866Y-31574996D01*
X217721866Y-31574996D02*
X217748804Y-31655809D01*
X217748804Y-31655809D02*
X217748804Y-31709683D01*
X217748804Y-31709683D02*
X217721866Y-31790496D01*
X217721866Y-31790496D02*
X217560242Y-31952120D01*
X217560242Y-31952120D02*
X217479430Y-31979057D01*
X217479430Y-31979057D02*
X217425555Y-31979057D01*
X216097998Y-45120868D02*
X216017185Y-45147805D01*
X216017185Y-45147805D02*
X215936373Y-45228618D01*
X215936373Y-45228618D02*
X215882498Y-45336367D01*
X215882498Y-45336367D02*
X215882498Y-45444117D01*
X215882498Y-45444117D02*
X215909436Y-45524929D01*
X215909436Y-45524929D02*
X215990248Y-45659616D01*
X215990248Y-45659616D02*
X216071060Y-45740428D01*
X216071060Y-45740428D02*
X216205747Y-45821241D01*
X216205747Y-45821241D02*
X216286560Y-45848178D01*
X216286560Y-45848178D02*
X216394309Y-45848178D01*
X216394309Y-45848178D02*
X216502059Y-45794303D01*
X216502059Y-45794303D02*
X216555934Y-45740428D01*
X216555934Y-45740428D02*
X216609808Y-45632679D01*
X216609808Y-45632679D02*
X216609808Y-45578804D01*
X216609808Y-45578804D02*
X216421247Y-45390242D01*
X216421247Y-45390242D02*
X216313497Y-45497992D01*
X216906120Y-45390242D02*
X216340434Y-44824557D01*
X216340434Y-44824557D02*
X216555934Y-44609057D01*
X216555934Y-44609057D02*
X216636746Y-44582120D01*
X216636746Y-44582120D02*
X216690621Y-44582120D01*
X216690621Y-44582120D02*
X216771433Y-44609057D01*
X216771433Y-44609057D02*
X216852245Y-44689870D01*
X216852245Y-44689870D02*
X216879182Y-44770682D01*
X216879182Y-44770682D02*
X216879182Y-44824557D01*
X216879182Y-44824557D02*
X216852245Y-44905369D01*
X216852245Y-44905369D02*
X216636746Y-45120868D01*
X216933057Y-44339683D02*
X216933057Y-44285809D01*
X216933057Y-44285809D02*
X216959995Y-44204996D01*
X216959995Y-44204996D02*
X217094682Y-44070309D01*
X217094682Y-44070309D02*
X217175494Y-44043372D01*
X217175494Y-44043372D02*
X217229369Y-44043372D01*
X217229369Y-44043372D02*
X217310181Y-44070309D01*
X217310181Y-44070309D02*
X217364056Y-44124184D01*
X217364056Y-44124184D02*
X217417930Y-44231934D01*
X217417930Y-44231934D02*
X217417930Y-44878431D01*
X217417930Y-44878431D02*
X217768117Y-44528245D01*
X217687305Y-43477686D02*
X217579555Y-43585436D01*
X217579555Y-43585436D02*
X217552618Y-43666248D01*
X217552618Y-43666248D02*
X217552618Y-43720123D01*
X217552618Y-43720123D02*
X217579555Y-43854810D01*
X217579555Y-43854810D02*
X217660367Y-43989497D01*
X217660367Y-43989497D02*
X217875866Y-44204996D01*
X217875866Y-44204996D02*
X217956679Y-44231934D01*
X217956679Y-44231934D02*
X218010553Y-44231934D01*
X218010553Y-44231934D02*
X218091366Y-44204996D01*
X218091366Y-44204996D02*
X218199115Y-44097247D01*
X218199115Y-44097247D02*
X218226053Y-44016434D01*
X218226053Y-44016434D02*
X218226053Y-43962560D01*
X218226053Y-43962560D02*
X218199115Y-43881747D01*
X218199115Y-43881747D02*
X218064428Y-43747060D01*
X218064428Y-43747060D02*
X217983616Y-43720123D01*
X217983616Y-43720123D02*
X217929741Y-43720123D01*
X217929741Y-43720123D02*
X217848929Y-43747060D01*
X217848929Y-43747060D02*
X217741179Y-43854810D01*
X217741179Y-43854810D02*
X217714242Y-43935622D01*
X217714242Y-43935622D02*
X217714242Y-43989497D01*
X217714242Y-43989497D02*
X217741179Y-44070309D01*
X189989998Y-55280868D02*
X189909185Y-55307805D01*
X189909185Y-55307805D02*
X189828373Y-55388618D01*
X189828373Y-55388618D02*
X189774498Y-55496367D01*
X189774498Y-55496367D02*
X189774498Y-55604117D01*
X189774498Y-55604117D02*
X189801436Y-55684929D01*
X189801436Y-55684929D02*
X189882248Y-55819616D01*
X189882248Y-55819616D02*
X189963060Y-55900428D01*
X189963060Y-55900428D02*
X190097747Y-55981241D01*
X190097747Y-55981241D02*
X190178560Y-56008178D01*
X190178560Y-56008178D02*
X190286309Y-56008178D01*
X190286309Y-56008178D02*
X190394059Y-55954303D01*
X190394059Y-55954303D02*
X190447934Y-55900428D01*
X190447934Y-55900428D02*
X190501808Y-55792679D01*
X190501808Y-55792679D02*
X190501808Y-55738804D01*
X190501808Y-55738804D02*
X190313247Y-55550242D01*
X190313247Y-55550242D02*
X190205497Y-55657992D01*
X190798120Y-55550242D02*
X190232434Y-54984557D01*
X190232434Y-54984557D02*
X190447934Y-54769057D01*
X190447934Y-54769057D02*
X190528746Y-54742120D01*
X190528746Y-54742120D02*
X190582621Y-54742120D01*
X190582621Y-54742120D02*
X190663433Y-54769057D01*
X190663433Y-54769057D02*
X190744245Y-54849870D01*
X190744245Y-54849870D02*
X190771182Y-54930682D01*
X190771182Y-54930682D02*
X190771182Y-54984557D01*
X190771182Y-54984557D02*
X190744245Y-55065369D01*
X190744245Y-55065369D02*
X190528746Y-55280868D01*
X191660117Y-54688245D02*
X191336868Y-55011494D01*
X191498492Y-54849870D02*
X190932807Y-54284184D01*
X190932807Y-54284184D02*
X190959744Y-54418871D01*
X190959744Y-54418871D02*
X190959744Y-54526621D01*
X190959744Y-54526621D02*
X190932807Y-54607433D01*
X191444618Y-53772373D02*
X191498492Y-53718499D01*
X191498492Y-53718499D02*
X191579305Y-53691561D01*
X191579305Y-53691561D02*
X191633179Y-53691561D01*
X191633179Y-53691561D02*
X191713992Y-53718499D01*
X191713992Y-53718499D02*
X191848679Y-53799311D01*
X191848679Y-53799311D02*
X191983366Y-53933998D01*
X191983366Y-53933998D02*
X192064178Y-54068685D01*
X192064178Y-54068685D02*
X192091115Y-54149497D01*
X192091115Y-54149497D02*
X192091115Y-54203372D01*
X192091115Y-54203372D02*
X192064178Y-54284184D01*
X192064178Y-54284184D02*
X192010303Y-54338059D01*
X192010303Y-54338059D02*
X191929491Y-54364996D01*
X191929491Y-54364996D02*
X191875616Y-54364996D01*
X191875616Y-54364996D02*
X191794804Y-54338059D01*
X191794804Y-54338059D02*
X191660117Y-54257247D01*
X191660117Y-54257247D02*
X191525430Y-54122560D01*
X191525430Y-54122560D02*
X191444618Y-53987873D01*
X191444618Y-53987873D02*
X191417680Y-53907060D01*
X191417680Y-53907060D02*
X191417680Y-53853186D01*
X191417680Y-53853186D02*
X191444618Y-53772373D01*
X215922407Y-29958584D02*
X216272593Y-29608398D01*
X216272593Y-29608398D02*
X216299531Y-30012459D01*
X216299531Y-30012459D02*
X216380343Y-29931646D01*
X216380343Y-29931646D02*
X216461155Y-29904709D01*
X216461155Y-29904709D02*
X216515030Y-29904709D01*
X216515030Y-29904709D02*
X216595842Y-29931646D01*
X216595842Y-29931646D02*
X216730529Y-30066333D01*
X216730529Y-30066333D02*
X216757467Y-30147146D01*
X216757467Y-30147146D02*
X216757467Y-30201020D01*
X216757467Y-30201020D02*
X216730529Y-30281833D01*
X216730529Y-30281833D02*
X216568905Y-30443457D01*
X216568905Y-30443457D02*
X216488093Y-30470394D01*
X216488093Y-30470394D02*
X216434218Y-30470394D01*
X216434218Y-29446773D02*
X217188465Y-29823897D01*
X217188465Y-29823897D02*
X216811342Y-29069649D01*
X216946028Y-28934963D02*
X217296215Y-28584776D01*
X217296215Y-28584776D02*
X217323152Y-28988837D01*
X217323152Y-28988837D02*
X217403964Y-28908025D01*
X217403964Y-28908025D02*
X217484776Y-28881088D01*
X217484776Y-28881088D02*
X217538651Y-28881088D01*
X217538651Y-28881088D02*
X217619464Y-28908025D01*
X217619464Y-28908025D02*
X217754151Y-29042712D01*
X217754151Y-29042712D02*
X217781088Y-29123524D01*
X217781088Y-29123524D02*
X217781088Y-29177399D01*
X217781088Y-29177399D02*
X217754151Y-29258211D01*
X217754151Y-29258211D02*
X217592526Y-29419836D01*
X217592526Y-29419836D02*
X217511714Y-29446773D01*
X217511714Y-29446773D02*
X217457839Y-29446773D01*
X218023525Y-29096587D02*
X218454523Y-28665588D01*
X218239024Y-28180715D02*
X218427586Y-27992153D01*
X218804709Y-28207652D02*
X218535335Y-28477026D01*
X218535335Y-28477026D02*
X217969650Y-27911341D01*
X217969650Y-27911341D02*
X218239024Y-27641967D01*
X219047146Y-27965215D02*
X218481461Y-27399530D01*
X218481461Y-27399530D02*
X219370395Y-27641967D01*
X219370395Y-27641967D02*
X218804710Y-27076281D01*
X190513372Y-49931494D02*
X190432560Y-49958431D01*
X190432560Y-49958431D02*
X190351748Y-50039243D01*
X190351748Y-50039243D02*
X190297873Y-50146993D01*
X190297873Y-50146993D02*
X190297873Y-50254742D01*
X190297873Y-50254742D02*
X190324810Y-50335555D01*
X190324810Y-50335555D02*
X190405623Y-50470242D01*
X190405623Y-50470242D02*
X190486435Y-50551054D01*
X190486435Y-50551054D02*
X190621122Y-50631866D01*
X190621122Y-50631866D02*
X190701934Y-50658803D01*
X190701934Y-50658803D02*
X190809684Y-50658803D01*
X190809684Y-50658803D02*
X190917433Y-50604929D01*
X190917433Y-50604929D02*
X190971308Y-50551054D01*
X190971308Y-50551054D02*
X191025183Y-50443304D01*
X191025183Y-50443304D02*
X191025183Y-50389429D01*
X191025183Y-50389429D02*
X190836621Y-50200868D01*
X190836621Y-50200868D02*
X190728871Y-50308617D01*
X191321494Y-50200868D02*
X190755809Y-49635182D01*
X190755809Y-49635182D02*
X190971308Y-49419683D01*
X190971308Y-49419683D02*
X191052120Y-49392746D01*
X191052120Y-49392746D02*
X191105995Y-49392746D01*
X191105995Y-49392746D02*
X191186807Y-49419683D01*
X191186807Y-49419683D02*
X191267619Y-49500495D01*
X191267619Y-49500495D02*
X191294557Y-49581307D01*
X191294557Y-49581307D02*
X191294557Y-49635182D01*
X191294557Y-49635182D02*
X191267619Y-49715994D01*
X191267619Y-49715994D02*
X191052120Y-49931494D01*
X191914117Y-49608245D02*
X192021867Y-49500495D01*
X192021867Y-49500495D02*
X192048804Y-49419683D01*
X192048804Y-49419683D02*
X192048804Y-49365808D01*
X192048804Y-49365808D02*
X192021867Y-49231121D01*
X192021867Y-49231121D02*
X191941054Y-49096434D01*
X191941054Y-49096434D02*
X191725555Y-48880935D01*
X191725555Y-48880935D02*
X191644743Y-48853998D01*
X191644743Y-48853998D02*
X191590868Y-48853998D01*
X191590868Y-48853998D02*
X191510056Y-48880935D01*
X191510056Y-48880935D02*
X191402306Y-48988685D01*
X191402306Y-48988685D02*
X191375369Y-49069497D01*
X191375369Y-49069497D02*
X191375369Y-49123372D01*
X191375369Y-49123372D02*
X191402306Y-49204184D01*
X191402306Y-49204184D02*
X191536993Y-49338871D01*
X191536993Y-49338871D02*
X191617806Y-49365808D01*
X191617806Y-49365808D02*
X191671680Y-49365808D01*
X191671680Y-49365808D02*
X191752493Y-49338871D01*
X191752493Y-49338871D02*
X191860242Y-49231121D01*
X191860242Y-49231121D02*
X191887180Y-49150309D01*
X191887180Y-49150309D02*
X191887180Y-49096434D01*
X191887180Y-49096434D02*
X191860242Y-49015622D01*
X215953406Y-22527585D02*
X216707653Y-22904709D01*
X216707653Y-22904709D02*
X216330529Y-22150462D01*
X216977027Y-22042712D02*
X217084776Y-21988838D01*
X217084776Y-21988838D02*
X217138651Y-21988838D01*
X217138651Y-21988838D02*
X217219463Y-22015775D01*
X217219463Y-22015775D02*
X217300276Y-22096587D01*
X217300276Y-22096587D02*
X217327213Y-22177399D01*
X217327213Y-22177399D02*
X217327213Y-22231274D01*
X217327213Y-22231274D02*
X217300276Y-22312086D01*
X217300276Y-22312086D02*
X217084776Y-22527586D01*
X217084776Y-22527586D02*
X216519091Y-21961900D01*
X216519091Y-21961900D02*
X216707653Y-21773338D01*
X216707653Y-21773338D02*
X216788465Y-21746401D01*
X216788465Y-21746401D02*
X216842340Y-21746401D01*
X216842340Y-21746401D02*
X216923152Y-21773338D01*
X216923152Y-21773338D02*
X216977027Y-21827213D01*
X216977027Y-21827213D02*
X217003964Y-21908025D01*
X217003964Y-21908025D02*
X217003964Y-21961900D01*
X217003964Y-21961900D02*
X216977027Y-22042712D01*
X216977027Y-22042712D02*
X216788465Y-22231274D01*
X217084776Y-21396215D02*
X217542712Y-21854151D01*
X217542712Y-21854151D02*
X217623524Y-21881088D01*
X217623524Y-21881088D02*
X217677399Y-21881088D01*
X217677399Y-21881088D02*
X217758211Y-21854151D01*
X217758211Y-21854151D02*
X217865961Y-21746401D01*
X217865961Y-21746401D02*
X217892898Y-21665589D01*
X217892898Y-21665589D02*
X217892898Y-21611714D01*
X217892898Y-21611714D02*
X217865961Y-21530902D01*
X217865961Y-21530902D02*
X217408025Y-21072966D01*
X218189210Y-21369277D02*
X218296959Y-21315403D01*
X218296959Y-21315403D02*
X218431646Y-21180716D01*
X218431646Y-21180716D02*
X218458584Y-21099903D01*
X218458584Y-21099903D02*
X218458584Y-21046029D01*
X218458584Y-21046029D02*
X218431646Y-20965216D01*
X218431646Y-20965216D02*
X218377771Y-20911342D01*
X218377771Y-20911342D02*
X218296959Y-20884404D01*
X218296959Y-20884404D02*
X218243084Y-20884404D01*
X218243084Y-20884404D02*
X218162272Y-20911342D01*
X218162272Y-20911342D02*
X218027585Y-20992154D01*
X218027585Y-20992154D02*
X217946773Y-21019091D01*
X217946773Y-21019091D02*
X217892898Y-21019091D01*
X217892898Y-21019091D02*
X217812086Y-20992154D01*
X217812086Y-20992154D02*
X217758211Y-20938279D01*
X217758211Y-20938279D02*
X217731274Y-20857467D01*
X217731274Y-20857467D02*
X217731274Y-20803592D01*
X217731274Y-20803592D02*
X217758211Y-20722780D01*
X217758211Y-20722780D02*
X217892898Y-20588093D01*
X217892898Y-20588093D02*
X218000648Y-20534218D01*
X190513372Y-37231494D02*
X190432560Y-37258431D01*
X190432560Y-37258431D02*
X190351748Y-37339243D01*
X190351748Y-37339243D02*
X190297873Y-37446993D01*
X190297873Y-37446993D02*
X190297873Y-37554742D01*
X190297873Y-37554742D02*
X190324810Y-37635555D01*
X190324810Y-37635555D02*
X190405623Y-37770242D01*
X190405623Y-37770242D02*
X190486435Y-37851054D01*
X190486435Y-37851054D02*
X190621122Y-37931866D01*
X190621122Y-37931866D02*
X190701934Y-37958803D01*
X190701934Y-37958803D02*
X190809684Y-37958803D01*
X190809684Y-37958803D02*
X190917433Y-37904929D01*
X190917433Y-37904929D02*
X190971308Y-37851054D01*
X190971308Y-37851054D02*
X191025183Y-37743304D01*
X191025183Y-37743304D02*
X191025183Y-37689429D01*
X191025183Y-37689429D02*
X190836621Y-37500868D01*
X190836621Y-37500868D02*
X190728871Y-37608617D01*
X191321494Y-37500868D02*
X190755809Y-36935182D01*
X190755809Y-36935182D02*
X190971308Y-36719683D01*
X190971308Y-36719683D02*
X191052120Y-36692746D01*
X191052120Y-36692746D02*
X191105995Y-36692746D01*
X191105995Y-36692746D02*
X191186807Y-36719683D01*
X191186807Y-36719683D02*
X191267619Y-36800495D01*
X191267619Y-36800495D02*
X191294557Y-36881307D01*
X191294557Y-36881307D02*
X191294557Y-36935182D01*
X191294557Y-36935182D02*
X191267619Y-37015994D01*
X191267619Y-37015994D02*
X191052120Y-37231494D01*
X191590868Y-36100123D02*
X191321494Y-36369497D01*
X191321494Y-36369497D02*
X191563931Y-36665808D01*
X191563931Y-36665808D02*
X191563931Y-36611933D01*
X191563931Y-36611933D02*
X191590868Y-36531121D01*
X191590868Y-36531121D02*
X191725555Y-36396434D01*
X191725555Y-36396434D02*
X191806367Y-36369497D01*
X191806367Y-36369497D02*
X191860242Y-36369497D01*
X191860242Y-36369497D02*
X191941054Y-36396434D01*
X191941054Y-36396434D02*
X192075741Y-36531121D01*
X192075741Y-36531121D02*
X192102679Y-36611933D01*
X192102679Y-36611933D02*
X192102679Y-36665808D01*
X192102679Y-36665808D02*
X192075741Y-36746620D01*
X192075741Y-36746620D02*
X191941054Y-36881307D01*
X191941054Y-36881307D02*
X191860242Y-36908245D01*
X191860242Y-36908245D02*
X191806367Y-36908245D01*
X190486435Y-27098431D02*
X190405623Y-27125368D01*
X190405623Y-27125368D02*
X190324811Y-27206180D01*
X190324811Y-27206180D02*
X190270936Y-27313930D01*
X190270936Y-27313930D02*
X190270936Y-27421680D01*
X190270936Y-27421680D02*
X190297873Y-27502492D01*
X190297873Y-27502492D02*
X190378685Y-27637179D01*
X190378685Y-27637179D02*
X190459498Y-27717991D01*
X190459498Y-27717991D02*
X190594185Y-27798803D01*
X190594185Y-27798803D02*
X190674997Y-27825741D01*
X190674997Y-27825741D02*
X190782746Y-27825741D01*
X190782746Y-27825741D02*
X190890496Y-27771866D01*
X190890496Y-27771866D02*
X190944371Y-27717991D01*
X190944371Y-27717991D02*
X190998246Y-27610241D01*
X190998246Y-27610241D02*
X190998246Y-27556367D01*
X190998246Y-27556367D02*
X190809684Y-27367805D01*
X190809684Y-27367805D02*
X190701934Y-27475554D01*
X191294557Y-27367805D02*
X190728872Y-26802119D01*
X190728872Y-26802119D02*
X191617806Y-27044556D01*
X191617806Y-27044556D02*
X191052120Y-26478871D01*
X191887180Y-26775182D02*
X191321494Y-26209497D01*
X191321494Y-26209497D02*
X191456181Y-26074810D01*
X191456181Y-26074810D02*
X191563931Y-26020935D01*
X191563931Y-26020935D02*
X191671680Y-26020935D01*
X191671680Y-26020935D02*
X191752493Y-26047872D01*
X191752493Y-26047872D02*
X191887180Y-26128685D01*
X191887180Y-26128685D02*
X191967992Y-26209497D01*
X191967992Y-26209497D02*
X192048804Y-26344184D01*
X192048804Y-26344184D02*
X192075741Y-26424996D01*
X192075741Y-26424996D02*
X192075741Y-26532746D01*
X192075741Y-26532746D02*
X192021867Y-26640495D01*
X192021867Y-26640495D02*
X191887180Y-26775182D01*
X207904761Y-72524200D02*
X208019047Y-72562295D01*
X208019047Y-72562295D02*
X208209523Y-72562295D01*
X208209523Y-72562295D02*
X208285714Y-72524200D01*
X208285714Y-72524200D02*
X208323809Y-72486104D01*
X208323809Y-72486104D02*
X208361904Y-72409914D01*
X208361904Y-72409914D02*
X208361904Y-72333723D01*
X208361904Y-72333723D02*
X208323809Y-72257533D01*
X208323809Y-72257533D02*
X208285714Y-72219438D01*
X208285714Y-72219438D02*
X208209523Y-72181342D01*
X208209523Y-72181342D02*
X208057142Y-72143247D01*
X208057142Y-72143247D02*
X207980952Y-72105152D01*
X207980952Y-72105152D02*
X207942857Y-72067057D01*
X207942857Y-72067057D02*
X207904761Y-71990866D01*
X207904761Y-71990866D02*
X207904761Y-71914676D01*
X207904761Y-71914676D02*
X207942857Y-71838485D01*
X207942857Y-71838485D02*
X207980952Y-71800390D01*
X207980952Y-71800390D02*
X208057142Y-71762295D01*
X208057142Y-71762295D02*
X208247619Y-71762295D01*
X208247619Y-71762295D02*
X208361904Y-71800390D01*
X208628571Y-71762295D02*
X208819047Y-72562295D01*
X208819047Y-72562295D02*
X208971428Y-71990866D01*
X208971428Y-71990866D02*
X209123809Y-72562295D01*
X209123809Y-72562295D02*
X209314286Y-71762295D01*
X209619048Y-72562295D02*
X209619048Y-71762295D01*
X209619048Y-71762295D02*
X209809524Y-71762295D01*
X209809524Y-71762295D02*
X209923810Y-71800390D01*
X209923810Y-71800390D02*
X210000000Y-71876580D01*
X210000000Y-71876580D02*
X210038095Y-71952771D01*
X210038095Y-71952771D02*
X210076191Y-72105152D01*
X210076191Y-72105152D02*
X210076191Y-72219438D01*
X210076191Y-72219438D02*
X210038095Y-72371819D01*
X210038095Y-72371819D02*
X210000000Y-72448009D01*
X210000000Y-72448009D02*
X209923810Y-72524200D01*
X209923810Y-72524200D02*
X209809524Y-72562295D01*
X209809524Y-72562295D02*
X209619048Y-72562295D01*
X210419048Y-72562295D02*
X210419048Y-71762295D01*
X210952381Y-71762295D02*
X211104762Y-71762295D01*
X211104762Y-71762295D02*
X211180952Y-71800390D01*
X211180952Y-71800390D02*
X211257143Y-71876580D01*
X211257143Y-71876580D02*
X211295238Y-72028961D01*
X211295238Y-72028961D02*
X211295238Y-72295628D01*
X211295238Y-72295628D02*
X211257143Y-72448009D01*
X211257143Y-72448009D02*
X211180952Y-72524200D01*
X211180952Y-72524200D02*
X211104762Y-72562295D01*
X211104762Y-72562295D02*
X210952381Y-72562295D01*
X210952381Y-72562295D02*
X210876190Y-72524200D01*
X210876190Y-72524200D02*
X210800000Y-72448009D01*
X210800000Y-72448009D02*
X210761904Y-72295628D01*
X210761904Y-72295628D02*
X210761904Y-72028961D01*
X210761904Y-72028961D02*
X210800000Y-71876580D01*
X210800000Y-71876580D02*
X210876190Y-71800390D01*
X210876190Y-71800390D02*
X210952381Y-71762295D01*
X216086435Y-65198431D02*
X216005623Y-65225368D01*
X216005623Y-65225368D02*
X215924811Y-65306180D01*
X215924811Y-65306180D02*
X215870936Y-65413930D01*
X215870936Y-65413930D02*
X215870936Y-65521680D01*
X215870936Y-65521680D02*
X215897873Y-65602492D01*
X215897873Y-65602492D02*
X215978685Y-65737179D01*
X215978685Y-65737179D02*
X216059498Y-65817991D01*
X216059498Y-65817991D02*
X216194185Y-65898803D01*
X216194185Y-65898803D02*
X216274997Y-65925741D01*
X216274997Y-65925741D02*
X216382746Y-65925741D01*
X216382746Y-65925741D02*
X216490496Y-65871866D01*
X216490496Y-65871866D02*
X216544371Y-65817991D01*
X216544371Y-65817991D02*
X216598246Y-65710241D01*
X216598246Y-65710241D02*
X216598246Y-65656367D01*
X216598246Y-65656367D02*
X216409684Y-65467805D01*
X216409684Y-65467805D02*
X216301934Y-65575554D01*
X216894557Y-65467805D02*
X216328872Y-64902119D01*
X216328872Y-64902119D02*
X217217806Y-65144556D01*
X217217806Y-65144556D02*
X216652120Y-64578871D01*
X217487180Y-64875182D02*
X216921494Y-64309497D01*
X216921494Y-64309497D02*
X217056181Y-64174810D01*
X217056181Y-64174810D02*
X217163931Y-64120935D01*
X217163931Y-64120935D02*
X217271680Y-64120935D01*
X217271680Y-64120935D02*
X217352493Y-64147872D01*
X217352493Y-64147872D02*
X217487180Y-64228685D01*
X217487180Y-64228685D02*
X217567992Y-64309497D01*
X217567992Y-64309497D02*
X217648804Y-64444184D01*
X217648804Y-64444184D02*
X217675741Y-64524996D01*
X217675741Y-64524996D02*
X217675741Y-64632746D01*
X217675741Y-64632746D02*
X217621867Y-64740495D01*
X217621867Y-64740495D02*
X217487180Y-64875182D01*
X189843998Y-57820868D02*
X189763185Y-57847805D01*
X189763185Y-57847805D02*
X189682373Y-57928618D01*
X189682373Y-57928618D02*
X189628498Y-58036367D01*
X189628498Y-58036367D02*
X189628498Y-58144117D01*
X189628498Y-58144117D02*
X189655436Y-58224929D01*
X189655436Y-58224929D02*
X189736248Y-58359616D01*
X189736248Y-58359616D02*
X189817060Y-58440428D01*
X189817060Y-58440428D02*
X189951747Y-58521241D01*
X189951747Y-58521241D02*
X190032560Y-58548178D01*
X190032560Y-58548178D02*
X190140309Y-58548178D01*
X190140309Y-58548178D02*
X190248059Y-58494303D01*
X190248059Y-58494303D02*
X190301934Y-58440428D01*
X190301934Y-58440428D02*
X190355808Y-58332679D01*
X190355808Y-58332679D02*
X190355808Y-58278804D01*
X190355808Y-58278804D02*
X190167247Y-58090242D01*
X190167247Y-58090242D02*
X190059497Y-58197992D01*
X190652120Y-58090242D02*
X190086434Y-57524557D01*
X190086434Y-57524557D02*
X190301934Y-57309057D01*
X190301934Y-57309057D02*
X190382746Y-57282120D01*
X190382746Y-57282120D02*
X190436621Y-57282120D01*
X190436621Y-57282120D02*
X190517433Y-57309057D01*
X190517433Y-57309057D02*
X190598245Y-57389870D01*
X190598245Y-57389870D02*
X190625182Y-57470682D01*
X190625182Y-57470682D02*
X190625182Y-57524557D01*
X190625182Y-57524557D02*
X190598245Y-57605369D01*
X190598245Y-57605369D02*
X190382746Y-57820868D01*
X191514117Y-57228245D02*
X191190868Y-57551494D01*
X191352492Y-57389870D02*
X190786807Y-56824184D01*
X190786807Y-56824184D02*
X190813744Y-56958871D01*
X190813744Y-56958871D02*
X190813744Y-57066621D01*
X190813744Y-57066621D02*
X190786807Y-57147433D01*
X192052865Y-56689497D02*
X191729616Y-57012746D01*
X191891240Y-56851121D02*
X191325555Y-56285436D01*
X191325555Y-56285436D02*
X191352492Y-56420123D01*
X191352492Y-56420123D02*
X191352492Y-56527873D01*
X191352492Y-56527873D02*
X191325555Y-56608685D01*
X216097998Y-42590868D02*
X216017185Y-42617805D01*
X216017185Y-42617805D02*
X215936373Y-42698618D01*
X215936373Y-42698618D02*
X215882498Y-42806367D01*
X215882498Y-42806367D02*
X215882498Y-42914117D01*
X215882498Y-42914117D02*
X215909436Y-42994929D01*
X215909436Y-42994929D02*
X215990248Y-43129616D01*
X215990248Y-43129616D02*
X216071060Y-43210428D01*
X216071060Y-43210428D02*
X216205747Y-43291241D01*
X216205747Y-43291241D02*
X216286560Y-43318178D01*
X216286560Y-43318178D02*
X216394309Y-43318178D01*
X216394309Y-43318178D02*
X216502059Y-43264303D01*
X216502059Y-43264303D02*
X216555934Y-43210428D01*
X216555934Y-43210428D02*
X216609808Y-43102679D01*
X216609808Y-43102679D02*
X216609808Y-43048804D01*
X216609808Y-43048804D02*
X216421247Y-42860242D01*
X216421247Y-42860242D02*
X216313497Y-42967992D01*
X216906120Y-42860242D02*
X216340434Y-42294557D01*
X216340434Y-42294557D02*
X216555934Y-42079057D01*
X216555934Y-42079057D02*
X216636746Y-42052120D01*
X216636746Y-42052120D02*
X216690621Y-42052120D01*
X216690621Y-42052120D02*
X216771433Y-42079057D01*
X216771433Y-42079057D02*
X216852245Y-42159870D01*
X216852245Y-42159870D02*
X216879182Y-42240682D01*
X216879182Y-42240682D02*
X216879182Y-42294557D01*
X216879182Y-42294557D02*
X216852245Y-42375369D01*
X216852245Y-42375369D02*
X216636746Y-42590868D01*
X216933057Y-41809683D02*
X216933057Y-41755809D01*
X216933057Y-41755809D02*
X216959995Y-41674996D01*
X216959995Y-41674996D02*
X217094682Y-41540309D01*
X217094682Y-41540309D02*
X217175494Y-41513372D01*
X217175494Y-41513372D02*
X217229369Y-41513372D01*
X217229369Y-41513372D02*
X217310181Y-41540309D01*
X217310181Y-41540309D02*
X217364056Y-41594184D01*
X217364056Y-41594184D02*
X217417930Y-41701934D01*
X217417930Y-41701934D02*
X217417930Y-42348431D01*
X217417930Y-42348431D02*
X217768117Y-41998245D01*
X217390993Y-41243998D02*
X217768117Y-40866874D01*
X217768117Y-40866874D02*
X218091366Y-41674996D01*
X216097998Y-50200868D02*
X216017185Y-50227805D01*
X216017185Y-50227805D02*
X215936373Y-50308618D01*
X215936373Y-50308618D02*
X215882498Y-50416367D01*
X215882498Y-50416367D02*
X215882498Y-50524117D01*
X215882498Y-50524117D02*
X215909436Y-50604929D01*
X215909436Y-50604929D02*
X215990248Y-50739616D01*
X215990248Y-50739616D02*
X216071060Y-50820428D01*
X216071060Y-50820428D02*
X216205747Y-50901241D01*
X216205747Y-50901241D02*
X216286560Y-50928178D01*
X216286560Y-50928178D02*
X216394309Y-50928178D01*
X216394309Y-50928178D02*
X216502059Y-50874303D01*
X216502059Y-50874303D02*
X216555934Y-50820428D01*
X216555934Y-50820428D02*
X216609808Y-50712679D01*
X216609808Y-50712679D02*
X216609808Y-50658804D01*
X216609808Y-50658804D02*
X216421247Y-50470242D01*
X216421247Y-50470242D02*
X216313497Y-50577992D01*
X216906120Y-50470242D02*
X216340434Y-49904557D01*
X216340434Y-49904557D02*
X216555934Y-49689057D01*
X216555934Y-49689057D02*
X216636746Y-49662120D01*
X216636746Y-49662120D02*
X216690621Y-49662120D01*
X216690621Y-49662120D02*
X216771433Y-49689057D01*
X216771433Y-49689057D02*
X216852245Y-49769870D01*
X216852245Y-49769870D02*
X216879182Y-49850682D01*
X216879182Y-49850682D02*
X216879182Y-49904557D01*
X216879182Y-49904557D02*
X216852245Y-49985369D01*
X216852245Y-49985369D02*
X216636746Y-50200868D01*
X216933057Y-49419683D02*
X216933057Y-49365809D01*
X216933057Y-49365809D02*
X216959995Y-49284996D01*
X216959995Y-49284996D02*
X217094682Y-49150309D01*
X217094682Y-49150309D02*
X217175494Y-49123372D01*
X217175494Y-49123372D02*
X217229369Y-49123372D01*
X217229369Y-49123372D02*
X217310181Y-49150309D01*
X217310181Y-49150309D02*
X217364056Y-49204184D01*
X217364056Y-49204184D02*
X217417930Y-49311934D01*
X217417930Y-49311934D02*
X217417930Y-49958431D01*
X217417930Y-49958431D02*
X217768117Y-49608245D01*
X217471805Y-48880935D02*
X217471805Y-48827060D01*
X217471805Y-48827060D02*
X217498743Y-48746248D01*
X217498743Y-48746248D02*
X217633430Y-48611561D01*
X217633430Y-48611561D02*
X217714242Y-48584624D01*
X217714242Y-48584624D02*
X217768117Y-48584624D01*
X217768117Y-48584624D02*
X217848929Y-48611561D01*
X217848929Y-48611561D02*
X217902804Y-48665436D01*
X217902804Y-48665436D02*
X217956679Y-48773186D01*
X217956679Y-48773186D02*
X217956679Y-49419683D01*
X217956679Y-49419683D02*
X218306865Y-49069497D01*
X190486435Y-65198431D02*
X190405623Y-65225368D01*
X190405623Y-65225368D02*
X190324811Y-65306180D01*
X190324811Y-65306180D02*
X190270936Y-65413930D01*
X190270936Y-65413930D02*
X190270936Y-65521680D01*
X190270936Y-65521680D02*
X190297873Y-65602492D01*
X190297873Y-65602492D02*
X190378685Y-65737179D01*
X190378685Y-65737179D02*
X190459498Y-65817991D01*
X190459498Y-65817991D02*
X190594185Y-65898803D01*
X190594185Y-65898803D02*
X190674997Y-65925741D01*
X190674997Y-65925741D02*
X190782746Y-65925741D01*
X190782746Y-65925741D02*
X190890496Y-65871866D01*
X190890496Y-65871866D02*
X190944371Y-65817991D01*
X190944371Y-65817991D02*
X190998246Y-65710241D01*
X190998246Y-65710241D02*
X190998246Y-65656367D01*
X190998246Y-65656367D02*
X190809684Y-65467805D01*
X190809684Y-65467805D02*
X190701934Y-65575554D01*
X191294557Y-65467805D02*
X190728872Y-64902119D01*
X190728872Y-64902119D02*
X191617806Y-65144556D01*
X191617806Y-65144556D02*
X191052120Y-64578871D01*
X191887180Y-64875182D02*
X191321494Y-64309497D01*
X191321494Y-64309497D02*
X191456181Y-64174810D01*
X191456181Y-64174810D02*
X191563931Y-64120935D01*
X191563931Y-64120935D02*
X191671680Y-64120935D01*
X191671680Y-64120935D02*
X191752493Y-64147872D01*
X191752493Y-64147872D02*
X191887180Y-64228685D01*
X191887180Y-64228685D02*
X191967992Y-64309497D01*
X191967992Y-64309497D02*
X192048804Y-64444184D01*
X192048804Y-64444184D02*
X192075741Y-64524996D01*
X192075741Y-64524996D02*
X192075741Y-64632746D01*
X192075741Y-64632746D02*
X192021867Y-64740495D01*
X192021867Y-64740495D02*
X191887180Y-64875182D01*
X216838651Y-47943710D02*
X216380716Y-47862898D01*
X216515403Y-48266959D02*
X215949717Y-47701274D01*
X215949717Y-47701274D02*
X216165216Y-47485775D01*
X216165216Y-47485775D02*
X216246029Y-47458837D01*
X216246029Y-47458837D02*
X216299903Y-47458837D01*
X216299903Y-47458837D02*
X216380716Y-47485775D01*
X216380716Y-47485775D02*
X216461528Y-47566587D01*
X216461528Y-47566587D02*
X216488465Y-47647399D01*
X216488465Y-47647399D02*
X216488465Y-47701274D01*
X216488465Y-47701274D02*
X216461528Y-47782086D01*
X216461528Y-47782086D02*
X216246029Y-47997585D01*
X216515403Y-47135588D02*
X216973338Y-47593524D01*
X216973338Y-47593524D02*
X217054151Y-47620462D01*
X217054151Y-47620462D02*
X217108025Y-47620462D01*
X217108025Y-47620462D02*
X217188838Y-47593524D01*
X217188838Y-47593524D02*
X217296587Y-47485775D01*
X217296587Y-47485775D02*
X217323525Y-47404962D01*
X217323525Y-47404962D02*
X217323525Y-47351088D01*
X217323525Y-47351088D02*
X217296587Y-47270275D01*
X217296587Y-47270275D02*
X216838651Y-46812340D01*
X217673711Y-47108651D02*
X217108025Y-46542966D01*
X217108025Y-46542966D02*
X217996959Y-46785402D01*
X217996959Y-46785402D02*
X217431274Y-46219717D01*
X190486435Y-39798431D02*
X190405623Y-39825368D01*
X190405623Y-39825368D02*
X190324811Y-39906180D01*
X190324811Y-39906180D02*
X190270936Y-40013930D01*
X190270936Y-40013930D02*
X190270936Y-40121680D01*
X190270936Y-40121680D02*
X190297873Y-40202492D01*
X190297873Y-40202492D02*
X190378685Y-40337179D01*
X190378685Y-40337179D02*
X190459498Y-40417991D01*
X190459498Y-40417991D02*
X190594185Y-40498803D01*
X190594185Y-40498803D02*
X190674997Y-40525741D01*
X190674997Y-40525741D02*
X190782746Y-40525741D01*
X190782746Y-40525741D02*
X190890496Y-40471866D01*
X190890496Y-40471866D02*
X190944371Y-40417991D01*
X190944371Y-40417991D02*
X190998246Y-40310241D01*
X190998246Y-40310241D02*
X190998246Y-40256367D01*
X190998246Y-40256367D02*
X190809684Y-40067805D01*
X190809684Y-40067805D02*
X190701934Y-40175554D01*
X191294557Y-40067805D02*
X190728872Y-39502119D01*
X190728872Y-39502119D02*
X191617806Y-39744556D01*
X191617806Y-39744556D02*
X191052120Y-39178871D01*
X191887180Y-39475182D02*
X191321494Y-38909497D01*
X191321494Y-38909497D02*
X191456181Y-38774810D01*
X191456181Y-38774810D02*
X191563931Y-38720935D01*
X191563931Y-38720935D02*
X191671680Y-38720935D01*
X191671680Y-38720935D02*
X191752493Y-38747872D01*
X191752493Y-38747872D02*
X191887180Y-38828685D01*
X191887180Y-38828685D02*
X191967992Y-38909497D01*
X191967992Y-38909497D02*
X192048804Y-39044184D01*
X192048804Y-39044184D02*
X192075741Y-39124996D01*
X192075741Y-39124996D02*
X192075741Y-39232746D01*
X192075741Y-39232746D02*
X192021867Y-39340495D01*
X192021867Y-39340495D02*
X191887180Y-39475182D01*
X176109580Y-90166666D02*
X176157200Y-90214285D01*
X176157200Y-90214285D02*
X176204819Y-90357142D01*
X176204819Y-90357142D02*
X176204819Y-90452380D01*
X176204819Y-90452380D02*
X176157200Y-90595237D01*
X176157200Y-90595237D02*
X176061961Y-90690475D01*
X176061961Y-90690475D02*
X175966723Y-90738094D01*
X175966723Y-90738094D02*
X175776247Y-90785713D01*
X175776247Y-90785713D02*
X175633390Y-90785713D01*
X175633390Y-90785713D02*
X175442914Y-90738094D01*
X175442914Y-90738094D02*
X175347676Y-90690475D01*
X175347676Y-90690475D02*
X175252438Y-90595237D01*
X175252438Y-90595237D02*
X175204819Y-90452380D01*
X175204819Y-90452380D02*
X175204819Y-90357142D01*
X175204819Y-90357142D02*
X175252438Y-90214285D01*
X175252438Y-90214285D02*
X175300057Y-90166666D01*
X175300057Y-89785713D02*
X175252438Y-89738094D01*
X175252438Y-89738094D02*
X175204819Y-89642856D01*
X175204819Y-89642856D02*
X175204819Y-89404761D01*
X175204819Y-89404761D02*
X175252438Y-89309523D01*
X175252438Y-89309523D02*
X175300057Y-89261904D01*
X175300057Y-89261904D02*
X175395295Y-89214285D01*
X175395295Y-89214285D02*
X175490533Y-89214285D01*
X175490533Y-89214285D02*
X175633390Y-89261904D01*
X175633390Y-89261904D02*
X176204819Y-89833332D01*
X176204819Y-89833332D02*
X176204819Y-89214285D01*
D13*
X200132580Y-102333333D02*
X201132580Y-102333333D01*
X201132580Y-102333333D02*
X201132580Y-102571428D01*
X201132580Y-102571428D02*
X201084961Y-102714285D01*
X201084961Y-102714285D02*
X200989723Y-102809523D01*
X200989723Y-102809523D02*
X200894485Y-102857142D01*
X200894485Y-102857142D02*
X200704009Y-102904761D01*
X200704009Y-102904761D02*
X200561152Y-102904761D01*
X200561152Y-102904761D02*
X200370676Y-102857142D01*
X200370676Y-102857142D02*
X200275438Y-102809523D01*
X200275438Y-102809523D02*
X200180200Y-102714285D01*
X200180200Y-102714285D02*
X200132580Y-102571428D01*
X200132580Y-102571428D02*
X200132580Y-102333333D01*
X200418295Y-103285714D02*
X200418295Y-103761904D01*
X200132580Y-103190476D02*
X201132580Y-103523809D01*
X201132580Y-103523809D02*
X200132580Y-103857142D01*
X200227819Y-104761904D02*
X200180200Y-104714285D01*
X200180200Y-104714285D02*
X200132580Y-104571428D01*
X200132580Y-104571428D02*
X200132580Y-104476190D01*
X200132580Y-104476190D02*
X200180200Y-104333333D01*
X200180200Y-104333333D02*
X200275438Y-104238095D01*
X200275438Y-104238095D02*
X200370676Y-104190476D01*
X200370676Y-104190476D02*
X200561152Y-104142857D01*
X200561152Y-104142857D02*
X200704009Y-104142857D01*
X200704009Y-104142857D02*
X200894485Y-104190476D01*
X200894485Y-104190476D02*
X200989723Y-104238095D01*
X200989723Y-104238095D02*
X201084961Y-104333333D01*
X201084961Y-104333333D02*
X201132580Y-104476190D01*
X201132580Y-104476190D02*
X201132580Y-104571428D01*
X201132580Y-104571428D02*
X201084961Y-104714285D01*
X201084961Y-104714285D02*
X201037342Y-104761904D01*
X200132580Y-105714285D02*
X200132580Y-105142857D01*
X200132580Y-105428571D02*
X201132580Y-105428571D01*
X201132580Y-105428571D02*
X200989723Y-105333333D01*
X200989723Y-105333333D02*
X200894485Y-105238095D01*
X200894485Y-105238095D02*
X200846866Y-105142857D01*
D11*
X179023333Y-82084819D02*
X178690000Y-81608628D01*
X178451905Y-82084819D02*
X178451905Y-81084819D01*
X178451905Y-81084819D02*
X178832857Y-81084819D01*
X178832857Y-81084819D02*
X178928095Y-81132438D01*
X178928095Y-81132438D02*
X178975714Y-81180057D01*
X178975714Y-81180057D02*
X179023333Y-81275295D01*
X179023333Y-81275295D02*
X179023333Y-81418152D01*
X179023333Y-81418152D02*
X178975714Y-81513390D01*
X178975714Y-81513390D02*
X178928095Y-81561009D01*
X178928095Y-81561009D02*
X178832857Y-81608628D01*
X178832857Y-81608628D02*
X178451905Y-81608628D01*
X179356667Y-81084819D02*
X179975714Y-81084819D01*
X179975714Y-81084819D02*
X179642381Y-81465771D01*
X179642381Y-81465771D02*
X179785238Y-81465771D01*
X179785238Y-81465771D02*
X179880476Y-81513390D01*
X179880476Y-81513390D02*
X179928095Y-81561009D01*
X179928095Y-81561009D02*
X179975714Y-81656247D01*
X179975714Y-81656247D02*
X179975714Y-81894342D01*
X179975714Y-81894342D02*
X179928095Y-81989580D01*
X179928095Y-81989580D02*
X179880476Y-82037200D01*
X179880476Y-82037200D02*
X179785238Y-82084819D01*
X179785238Y-82084819D02*
X179499524Y-82084819D01*
X179499524Y-82084819D02*
X179404286Y-82037200D01*
X179404286Y-82037200D02*
X179356667Y-81989580D01*
X181214286Y-44034819D02*
X181214286Y-43034819D01*
X181214286Y-43034819D02*
X181595238Y-43034819D01*
X181595238Y-43034819D02*
X181690476Y-43082438D01*
X181690476Y-43082438D02*
X181738095Y-43130057D01*
X181738095Y-43130057D02*
X181785714Y-43225295D01*
X181785714Y-43225295D02*
X181785714Y-43368152D01*
X181785714Y-43368152D02*
X181738095Y-43463390D01*
X181738095Y-43463390D02*
X181690476Y-43511009D01*
X181690476Y-43511009D02*
X181595238Y-43558628D01*
X181595238Y-43558628D02*
X181214286Y-43558628D01*
X182404762Y-43034819D02*
X182595238Y-43034819D01*
X182595238Y-43034819D02*
X182690476Y-43082438D01*
X182690476Y-43082438D02*
X182785714Y-43177676D01*
X182785714Y-43177676D02*
X182833333Y-43368152D01*
X182833333Y-43368152D02*
X182833333Y-43701485D01*
X182833333Y-43701485D02*
X182785714Y-43891961D01*
X182785714Y-43891961D02*
X182690476Y-43987200D01*
X182690476Y-43987200D02*
X182595238Y-44034819D01*
X182595238Y-44034819D02*
X182404762Y-44034819D01*
X182404762Y-44034819D02*
X182309524Y-43987200D01*
X182309524Y-43987200D02*
X182214286Y-43891961D01*
X182214286Y-43891961D02*
X182166667Y-43701485D01*
X182166667Y-43701485D02*
X182166667Y-43368152D01*
X182166667Y-43368152D02*
X182214286Y-43177676D01*
X182214286Y-43177676D02*
X182309524Y-43082438D01*
X182309524Y-43082438D02*
X182404762Y-43034819D01*
X183166667Y-43034819D02*
X183404762Y-44034819D01*
X183404762Y-44034819D02*
X183595238Y-43320533D01*
X183595238Y-43320533D02*
X183785714Y-44034819D01*
X183785714Y-44034819D02*
X184023810Y-43034819D01*
X184404762Y-43511009D02*
X184738095Y-43511009D01*
X184880952Y-44034819D02*
X184404762Y-44034819D01*
X184404762Y-44034819D02*
X184404762Y-43034819D01*
X184404762Y-43034819D02*
X184880952Y-43034819D01*
X185880952Y-44034819D02*
X185547619Y-43558628D01*
X185309524Y-44034819D02*
X185309524Y-43034819D01*
X185309524Y-43034819D02*
X185690476Y-43034819D01*
X185690476Y-43034819D02*
X185785714Y-43082438D01*
X185785714Y-43082438D02*
X185833333Y-43130057D01*
X185833333Y-43130057D02*
X185880952Y-43225295D01*
X185880952Y-43225295D02*
X185880952Y-43368152D01*
X185880952Y-43368152D02*
X185833333Y-43463390D01*
X185833333Y-43463390D02*
X185785714Y-43511009D01*
X185785714Y-43511009D02*
X185690476Y-43558628D01*
X185690476Y-43558628D02*
X185309524Y-43558628D01*
X186833333Y-44034819D02*
X186261905Y-44034819D01*
X186547619Y-44034819D02*
X186547619Y-43034819D01*
X186547619Y-43034819D02*
X186452381Y-43177676D01*
X186452381Y-43177676D02*
X186357143Y-43272914D01*
X186357143Y-43272914D02*
X186261905Y-43320533D01*
X168609580Y-63166666D02*
X168657200Y-63214285D01*
X168657200Y-63214285D02*
X168704819Y-63357142D01*
X168704819Y-63357142D02*
X168704819Y-63452380D01*
X168704819Y-63452380D02*
X168657200Y-63595237D01*
X168657200Y-63595237D02*
X168561961Y-63690475D01*
X168561961Y-63690475D02*
X168466723Y-63738094D01*
X168466723Y-63738094D02*
X168276247Y-63785713D01*
X168276247Y-63785713D02*
X168133390Y-63785713D01*
X168133390Y-63785713D02*
X167942914Y-63738094D01*
X167942914Y-63738094D02*
X167847676Y-63690475D01*
X167847676Y-63690475D02*
X167752438Y-63595237D01*
X167752438Y-63595237D02*
X167704819Y-63452380D01*
X167704819Y-63452380D02*
X167704819Y-63357142D01*
X167704819Y-63357142D02*
X167752438Y-63214285D01*
X167752438Y-63214285D02*
X167800057Y-63166666D01*
X168704819Y-62214285D02*
X168704819Y-62785713D01*
X168704819Y-62499999D02*
X167704819Y-62499999D01*
X167704819Y-62499999D02*
X167847676Y-62595237D01*
X167847676Y-62595237D02*
X167942914Y-62690475D01*
X167942914Y-62690475D02*
X167990533Y-62785713D01*
D12*
G36*
X159490041Y-102335324D02*
G01*
X159522149Y-102363748D01*
X159567334Y-102459491D01*
X159625315Y-102614632D01*
X159706308Y-102744522D01*
X159811744Y-102850839D01*
X159938827Y-102927460D01*
X160560181Y-103190510D01*
X161164682Y-103432799D01*
X161774068Y-103667272D01*
X162405680Y-103901257D01*
X162734431Y-104006525D01*
X162858995Y-104043894D01*
X162908576Y-104231961D01*
X162970369Y-104424669D01*
X163014901Y-104515527D01*
X163069043Y-104590998D01*
X163165519Y-104696267D01*
X163184815Y-104742429D01*
X163180143Y-104761900D01*
X163150621Y-104783950D01*
X163078569Y-104817167D01*
X162999923Y-104841592D01*
X162233000Y-105082415D01*
X161457041Y-105333008D01*
X160692561Y-105582624D01*
X159959099Y-105820028D01*
X159852628Y-105866032D01*
X159767613Y-105926030D01*
X159697683Y-106000561D01*
X159643049Y-106086009D01*
X159564403Y-106289219D01*
X159522637Y-106385451D01*
X159491505Y-106413629D01*
X159444724Y-106423552D01*
X159411137Y-106415255D01*
X159386106Y-106390091D01*
X159365833Y-106307049D01*
X159371939Y-106032031D01*
X159384152Y-105700594D01*
X159390258Y-105404571D01*
X159385617Y-105140056D01*
X159373649Y-104832066D01*
X159366322Y-104563887D01*
X159387571Y-104476204D01*
X159413766Y-104447466D01*
X159447166Y-104438347D01*
X159490831Y-104448210D01*
X159525812Y-104478158D01*
X159567334Y-104572680D01*
X159620915Y-104763830D01*
X159680907Y-104877007D01*
X159735303Y-104925644D01*
X159806168Y-104946444D01*
X159901946Y-104937090D01*
X160124940Y-104882380D01*
X160363077Y-104818633D01*
X160598039Y-104755618D01*
X160664961Y-104724843D01*
X160680774Y-104700232D01*
X160687187Y-104654746D01*
X160687187Y-103821145D01*
X160986873Y-103821145D01*
X160986873Y-104551431D01*
X160998706Y-104618530D01*
X161023998Y-104634229D01*
X161053551Y-104631298D01*
X161084570Y-104623238D01*
X162345352Y-104250524D01*
X162399008Y-104227907D01*
X162409344Y-104213887D01*
X162346329Y-104178472D01*
X161084570Y-103732973D01*
X161039630Y-103721982D01*
X161016144Y-103729292D01*
X160999330Y-103752757D01*
X160986873Y-103821145D01*
X160687187Y-103821145D01*
X160687187Y-103665318D01*
X160663007Y-103603769D01*
X160590956Y-103570063D01*
X160432930Y-103520970D01*
X160274417Y-103467726D01*
X160118590Y-103418877D01*
X159968381Y-103377111D01*
X159812018Y-103365219D01*
X159710949Y-103408130D01*
X159638425Y-103506565D01*
X159566357Y-103720273D01*
X159535008Y-103801047D01*
X159495052Y-103841662D01*
X159445212Y-103854606D01*
X159411582Y-103846726D01*
X159388304Y-103823587D01*
X159369741Y-103729065D01*
X159377801Y-103424250D01*
X159385617Y-103118458D01*
X159368764Y-102798989D01*
X159351912Y-102473901D01*
X159371695Y-102367900D01*
X159398819Y-102336348D01*
X159443258Y-102325402D01*
X159490041Y-102335324D01*
G37*
G36*
X162998460Y-106419809D02*
G01*
X163024591Y-106446511D01*
X163046085Y-106522959D01*
X163040956Y-106792115D01*
X163028499Y-107070796D01*
X163021172Y-107323587D01*
X163028988Y-107554885D01*
X163045596Y-107872645D01*
X163062449Y-108203350D01*
X163070509Y-108464934D01*
X163055272Y-108745350D01*
X163010702Y-109006531D01*
X162937885Y-109250908D01*
X162836120Y-109484536D01*
X162711553Y-109694574D01*
X162563949Y-109883252D01*
X162392910Y-110050303D01*
X162202676Y-110190079D01*
X161991444Y-110303839D01*
X161766318Y-110386435D01*
X161524551Y-110436819D01*
X161263112Y-110454048D01*
X161015156Y-110439187D01*
X160775166Y-110394941D01*
X160541374Y-110321180D01*
X160319210Y-110218845D01*
X160114686Y-110089218D01*
X159926127Y-109931124D01*
X159760826Y-109749128D01*
X159618535Y-109540520D01*
X159498946Y-109302443D01*
X159413011Y-109050486D01*
X159359524Y-108769493D01*
X159340921Y-108454920D01*
X159343218Y-108369191D01*
X159628639Y-108369191D01*
X159650715Y-108617782D01*
X159713288Y-108827726D01*
X159813775Y-109006421D01*
X159951110Y-109160203D01*
X160122455Y-109287902D01*
X160333035Y-109390126D01*
X160559134Y-109459156D01*
X160817395Y-109502766D01*
X161112658Y-109518109D01*
X161478149Y-109496798D01*
X161793119Y-109436532D01*
X162081792Y-109334050D01*
X162316043Y-109199617D01*
X162510307Y-109025923D01*
X162653342Y-108819575D01*
X162718792Y-108665754D01*
X162758934Y-108496601D01*
X162772777Y-108309107D01*
X162761053Y-108007712D01*
X162739780Y-107896460D01*
X162706343Y-107825506D01*
X162651511Y-107780365D01*
X162559797Y-107763469D01*
X160117369Y-107763469D01*
X159946858Y-107782707D01*
X159827208Y-107833811D01*
X159736252Y-107919094D01*
X159674068Y-108039952D01*
X159640909Y-108183696D01*
X159628639Y-108369191D01*
X159343218Y-108369191D01*
X159352156Y-108035555D01*
X159371695Y-107613992D01*
X159380000Y-107317481D01*
X159376824Y-107070308D01*
X159367299Y-106793092D01*
X159361193Y-106522959D01*
X159382442Y-106446511D01*
X159408610Y-106419824D01*
X159443258Y-106411096D01*
X159488031Y-106419207D01*
X159520195Y-106442115D01*
X159560251Y-106531508D01*
X159616431Y-106724535D01*
X159675289Y-106823134D01*
X159764775Y-106879435D01*
X159925150Y-106902024D01*
X162463565Y-106902024D01*
X162629120Y-106880585D01*
X162721486Y-106827774D01*
X162783426Y-106731369D01*
X162844829Y-106531508D01*
X162885861Y-106442115D01*
X162919032Y-106419164D01*
X162964019Y-106411096D01*
X162998460Y-106419809D01*
G37*
G36*
X159300621Y-112982450D02*
G01*
X159315658Y-112695891D01*
X159359940Y-112424635D01*
X159432756Y-112166679D01*
X159534637Y-111919377D01*
X159660130Y-111696000D01*
X159809378Y-111494278D01*
X159983646Y-111314576D01*
X160178187Y-111164061D01*
X160394829Y-111041208D01*
X160626924Y-110951734D01*
X160878125Y-110897050D01*
X161151981Y-110878298D01*
X161405965Y-110895635D01*
X161650328Y-110947224D01*
X161887397Y-111033392D01*
X162110373Y-111151687D01*
X162316838Y-111301284D01*
X162508262Y-111484264D01*
X162674044Y-111691243D01*
X162817483Y-111928252D01*
X162938374Y-112198675D01*
X163024972Y-112482267D01*
X163078745Y-112794990D01*
X163097376Y-113140963D01*
X163071242Y-113503664D01*
X163003098Y-113854885D01*
X162905889Y-114165318D01*
X162847759Y-114253490D01*
X162806608Y-114281510D01*
X162747620Y-114295499D01*
X162387606Y-114330182D01*
X162075952Y-114341417D01*
X162022630Y-114329910D01*
X161990956Y-114295744D01*
X161978819Y-114248174D01*
X161988269Y-114196825D01*
X162018952Y-114153510D01*
X162074975Y-114123308D01*
X162333872Y-114028786D01*
X162453533Y-113963726D01*
X162554424Y-113872715D01*
X162654804Y-113740641D01*
X162740781Y-113558863D01*
X162793965Y-113350542D01*
X162813565Y-113082345D01*
X162799518Y-112893432D01*
X162758513Y-112720439D01*
X162691200Y-112560642D01*
X162546549Y-112344936D01*
X162355610Y-112162771D01*
X162130062Y-112018225D01*
X161872986Y-111909491D01*
X161598630Y-111842822D01*
X161309518Y-111820342D01*
X160948393Y-111840839D01*
X160625882Y-111899721D01*
X160327506Y-112001525D01*
X160080000Y-112139812D01*
X159935917Y-112256744D01*
X159816892Y-112388891D01*
X159720963Y-112537439D01*
X159651501Y-112699864D01*
X159608454Y-112882570D01*
X159593468Y-113089428D01*
X159615147Y-113362566D01*
X159675235Y-113583582D01*
X159769078Y-113762562D01*
X159900696Y-113917915D01*
X160078778Y-114061992D01*
X160312030Y-114194627D01*
X160384234Y-114250267D01*
X160403133Y-114320901D01*
X160377851Y-114382278D01*
X160308855Y-114403455D01*
X160133977Y-114387823D01*
X159912937Y-114345081D01*
X159669183Y-114279868D01*
X159568555Y-114222227D01*
X159504319Y-114128193D01*
X159423147Y-113904800D01*
X159356064Y-113625541D01*
X159315120Y-113326763D01*
X159300621Y-112982450D01*
G37*
G36*
X159358750Y-117206630D02*
G01*
X159361926Y-117042010D01*
X159370718Y-116734753D01*
X159379755Y-116373273D01*
X159383175Y-116051117D01*
X159379755Y-115764864D01*
X159373649Y-115474948D01*
X159367543Y-115243894D01*
X159364368Y-115133008D01*
X159393677Y-115070482D01*
X159427015Y-115031933D01*
X159459378Y-115021145D01*
X159532896Y-115046058D01*
X159582721Y-115093441D01*
X160491304Y-115908723D01*
X160714823Y-116093823D01*
X160931056Y-116238875D01*
X161141235Y-116348116D01*
X161363218Y-116428367D01*
X161600578Y-116477244D01*
X161856133Y-116493929D01*
X162010290Y-116479755D01*
X162140893Y-116439471D01*
X162252540Y-116374495D01*
X162340458Y-116284724D01*
X162393225Y-116174481D01*
X162411786Y-116037195D01*
X162384002Y-115846716D01*
X162299434Y-115666435D01*
X162180145Y-115503742D01*
X162054703Y-115371389D01*
X161980209Y-115292499D01*
X161949476Y-115241715D01*
X161939665Y-115188940D01*
X161948705Y-115153971D01*
X161975568Y-115131054D01*
X162070823Y-115114201D01*
X162163690Y-115133702D01*
X162299190Y-115206769D01*
X162433038Y-115313079D01*
X162576650Y-115463469D01*
X162703950Y-115638281D01*
X162812100Y-115842778D01*
X162883880Y-116064459D01*
X162908087Y-116302687D01*
X162892671Y-116491747D01*
X162848924Y-116652904D01*
X162778883Y-116791173D01*
X162629182Y-116967248D01*
X162438164Y-117096721D01*
X162217529Y-117176077D01*
X161970195Y-117203211D01*
X161811969Y-117186960D01*
X161627034Y-117133846D01*
X161443821Y-117056531D01*
X161269462Y-116963120D01*
X161107418Y-116857181D01*
X160976371Y-116753071D01*
X160756796Y-116544243D01*
X160502295Y-116282171D01*
X160259518Y-116025960D01*
X160072672Y-115830810D01*
X159988897Y-115756316D01*
X159971902Y-115769908D01*
X159954214Y-115839114D01*
X159938339Y-116084578D01*
X159932721Y-116345674D01*
X159938339Y-116597000D01*
X159954214Y-116841731D01*
X160005261Y-117059351D01*
X160049377Y-117145702D01*
X160111995Y-117222017D01*
X160191208Y-117286860D01*
X160295422Y-117346337D01*
X160374312Y-117407153D01*
X160405162Y-117453876D01*
X160415101Y-117504606D01*
X160405953Y-117540385D01*
X160378953Y-117563469D01*
X160302016Y-117566644D01*
X159988408Y-117462352D01*
X159679441Y-117369296D01*
X159483803Y-117325332D01*
X159429156Y-117310110D01*
X159390258Y-117271354D01*
X159358750Y-117206630D01*
G37*
D11*
X156098180Y-106761905D02*
X157098180Y-106761905D01*
X157098180Y-106761905D02*
X157098180Y-107142857D01*
X157098180Y-107142857D02*
X157050561Y-107238095D01*
X157050561Y-107238095D02*
X157002942Y-107285714D01*
X157002942Y-107285714D02*
X156907704Y-107333333D01*
X156907704Y-107333333D02*
X156764847Y-107333333D01*
X156764847Y-107333333D02*
X156669609Y-107285714D01*
X156669609Y-107285714D02*
X156621990Y-107238095D01*
X156621990Y-107238095D02*
X156574371Y-107142857D01*
X156574371Y-107142857D02*
X156574371Y-106761905D01*
X156193419Y-108333333D02*
X156145800Y-108285714D01*
X156145800Y-108285714D02*
X156098180Y-108142857D01*
X156098180Y-108142857D02*
X156098180Y-108047619D01*
X156098180Y-108047619D02*
X156145800Y-107904762D01*
X156145800Y-107904762D02*
X156241038Y-107809524D01*
X156241038Y-107809524D02*
X156336276Y-107761905D01*
X156336276Y-107761905D02*
X156526752Y-107714286D01*
X156526752Y-107714286D02*
X156669609Y-107714286D01*
X156669609Y-107714286D02*
X156860085Y-107761905D01*
X156860085Y-107761905D02*
X156955323Y-107809524D01*
X156955323Y-107809524D02*
X157050561Y-107904762D01*
X157050561Y-107904762D02*
X157098180Y-108047619D01*
X157098180Y-108047619D02*
X157098180Y-108142857D01*
X157098180Y-108142857D02*
X157050561Y-108285714D01*
X157050561Y-108285714D02*
X157002942Y-108333333D01*
X156098180Y-108761905D02*
X157098180Y-108761905D01*
X157098180Y-108761905D02*
X156383895Y-109095238D01*
X156383895Y-109095238D02*
X157098180Y-109428571D01*
X157098180Y-109428571D02*
X156098180Y-109428571D01*
X156098180Y-110428571D02*
X156098180Y-109857143D01*
X156098180Y-110142857D02*
X157098180Y-110142857D01*
X157098180Y-110142857D02*
X156955323Y-110047619D01*
X156955323Y-110047619D02*
X156860085Y-109952381D01*
X156860085Y-109952381D02*
X156812466Y-109857143D01*
X156669609Y-111000000D02*
X156717228Y-110904762D01*
X156717228Y-110904762D02*
X156764847Y-110857143D01*
X156764847Y-110857143D02*
X156860085Y-110809524D01*
X156860085Y-110809524D02*
X156907704Y-110809524D01*
X156907704Y-110809524D02*
X157002942Y-110857143D01*
X157002942Y-110857143D02*
X157050561Y-110904762D01*
X157050561Y-110904762D02*
X157098180Y-111000000D01*
X157098180Y-111000000D02*
X157098180Y-111190476D01*
X157098180Y-111190476D02*
X157050561Y-111285714D01*
X157050561Y-111285714D02*
X157002942Y-111333333D01*
X157002942Y-111333333D02*
X156907704Y-111380952D01*
X156907704Y-111380952D02*
X156860085Y-111380952D01*
X156860085Y-111380952D02*
X156764847Y-111333333D01*
X156764847Y-111333333D02*
X156717228Y-111285714D01*
X156717228Y-111285714D02*
X156669609Y-111190476D01*
X156669609Y-111190476D02*
X156669609Y-111000000D01*
X156669609Y-111000000D02*
X156621990Y-110904762D01*
X156621990Y-110904762D02*
X156574371Y-110857143D01*
X156574371Y-110857143D02*
X156479133Y-110809524D01*
X156479133Y-110809524D02*
X156288657Y-110809524D01*
X156288657Y-110809524D02*
X156193419Y-110857143D01*
X156193419Y-110857143D02*
X156145800Y-110904762D01*
X156145800Y-110904762D02*
X156098180Y-111000000D01*
X156098180Y-111000000D02*
X156098180Y-111190476D01*
X156098180Y-111190476D02*
X156145800Y-111285714D01*
X156145800Y-111285714D02*
X156193419Y-111333333D01*
X156193419Y-111333333D02*
X156288657Y-111380952D01*
X156288657Y-111380952D02*
X156479133Y-111380952D01*
X156479133Y-111380952D02*
X156574371Y-111333333D01*
X156574371Y-111333333D02*
X156621990Y-111285714D01*
X156621990Y-111285714D02*
X156669609Y-111190476D01*
X157098180Y-112000000D02*
X157098180Y-112095238D01*
X157098180Y-112095238D02*
X157050561Y-112190476D01*
X157050561Y-112190476D02*
X157002942Y-112238095D01*
X157002942Y-112238095D02*
X156907704Y-112285714D01*
X156907704Y-112285714D02*
X156717228Y-112333333D01*
X156717228Y-112333333D02*
X156479133Y-112333333D01*
X156479133Y-112333333D02*
X156288657Y-112285714D01*
X156288657Y-112285714D02*
X156193419Y-112238095D01*
X156193419Y-112238095D02*
X156145800Y-112190476D01*
X156145800Y-112190476D02*
X156098180Y-112095238D01*
X156098180Y-112095238D02*
X156098180Y-112000000D01*
X156098180Y-112000000D02*
X156145800Y-111904762D01*
X156145800Y-111904762D02*
X156193419Y-111857143D01*
X156193419Y-111857143D02*
X156288657Y-111809524D01*
X156288657Y-111809524D02*
X156479133Y-111761905D01*
X156479133Y-111761905D02*
X156717228Y-111761905D01*
X156717228Y-111761905D02*
X156907704Y-111809524D01*
X156907704Y-111809524D02*
X157002942Y-111857143D01*
X157002942Y-111857143D02*
X157050561Y-111904762D01*
X157050561Y-111904762D02*
X157098180Y-112000000D01*
X156669609Y-112904762D02*
X156717228Y-112809524D01*
X156717228Y-112809524D02*
X156764847Y-112761905D01*
X156764847Y-112761905D02*
X156860085Y-112714286D01*
X156860085Y-112714286D02*
X156907704Y-112714286D01*
X156907704Y-112714286D02*
X157002942Y-112761905D01*
X157002942Y-112761905D02*
X157050561Y-112809524D01*
X157050561Y-112809524D02*
X157098180Y-112904762D01*
X157098180Y-112904762D02*
X157098180Y-113095238D01*
X157098180Y-113095238D02*
X157050561Y-113190476D01*
X157050561Y-113190476D02*
X157002942Y-113238095D01*
X157002942Y-113238095D02*
X156907704Y-113285714D01*
X156907704Y-113285714D02*
X156860085Y-113285714D01*
X156860085Y-113285714D02*
X156764847Y-113238095D01*
X156764847Y-113238095D02*
X156717228Y-113190476D01*
X156717228Y-113190476D02*
X156669609Y-113095238D01*
X156669609Y-113095238D02*
X156669609Y-112904762D01*
X156669609Y-112904762D02*
X156621990Y-112809524D01*
X156621990Y-112809524D02*
X156574371Y-112761905D01*
X156574371Y-112761905D02*
X156479133Y-112714286D01*
X156479133Y-112714286D02*
X156288657Y-112714286D01*
X156288657Y-112714286D02*
X156193419Y-112761905D01*
X156193419Y-112761905D02*
X156145800Y-112809524D01*
X156145800Y-112809524D02*
X156098180Y-112904762D01*
X156098180Y-112904762D02*
X156098180Y-113095238D01*
X156098180Y-113095238D02*
X156145800Y-113190476D01*
X156145800Y-113190476D02*
X156193419Y-113238095D01*
X156193419Y-113238095D02*
X156288657Y-113285714D01*
X156288657Y-113285714D02*
X156479133Y-113285714D01*
X156479133Y-113285714D02*
X156574371Y-113238095D01*
X156574371Y-113238095D02*
X156621990Y-113190476D01*
X156621990Y-113190476D02*
X156669609Y-113095238D01*
X163867200Y-24333332D02*
X163914819Y-24190475D01*
X163914819Y-24190475D02*
X163914819Y-23952380D01*
X163914819Y-23952380D02*
X163867200Y-23857142D01*
X163867200Y-23857142D02*
X163819580Y-23809523D01*
X163819580Y-23809523D02*
X163724342Y-23761904D01*
X163724342Y-23761904D02*
X163629104Y-23761904D01*
X163629104Y-23761904D02*
X163533866Y-23809523D01*
X163533866Y-23809523D02*
X163486247Y-23857142D01*
X163486247Y-23857142D02*
X163438628Y-23952380D01*
X163438628Y-23952380D02*
X163391009Y-24142856D01*
X163391009Y-24142856D02*
X163343390Y-24238094D01*
X163343390Y-24238094D02*
X163295771Y-24285713D01*
X163295771Y-24285713D02*
X163200533Y-24333332D01*
X163200533Y-24333332D02*
X163105295Y-24333332D01*
X163105295Y-24333332D02*
X163010057Y-24285713D01*
X163010057Y-24285713D02*
X162962438Y-24238094D01*
X162962438Y-24238094D02*
X162914819Y-24142856D01*
X162914819Y-24142856D02*
X162914819Y-23904761D01*
X162914819Y-23904761D02*
X162962438Y-23761904D01*
X162914819Y-23428570D02*
X163914819Y-23190475D01*
X163914819Y-23190475D02*
X163200533Y-22999999D01*
X163200533Y-22999999D02*
X163914819Y-22809523D01*
X163914819Y-22809523D02*
X162914819Y-22571428D01*
X163914819Y-21666666D02*
X163914819Y-22238094D01*
X163914819Y-21952380D02*
X162914819Y-21952380D01*
X162914819Y-21952380D02*
X163057676Y-22047618D01*
X163057676Y-22047618D02*
X163152914Y-22142856D01*
X163152914Y-22142856D02*
X163200533Y-22238094D01*
D14*
%TO.C,JP1*%
X162510000Y-32050000D02*
G75*
G02*
X161810000Y-31350000I0J700000D01*
G01*
X163810000Y-31350000D02*
G75*
G02*
X163110000Y-32050000I-700000J0D01*
G01*
X161810000Y-29950000D02*
G75*
G02*
X162510000Y-29250000I699999J1D01*
G01*
X163110000Y-29250000D02*
G75*
G02*
X163810000Y-29950000I1J-699999D01*
G01*
X163110000Y-32050000D02*
X162510000Y-32050000D01*
X161810000Y-31350000D02*
X161810000Y-29950000D01*
X163810000Y-29950000D02*
X163810000Y-31350000D01*
X162510000Y-29250000D02*
X163110000Y-29250000D01*
%TO.C,JP2*%
X163110000Y-25250000D02*
G75*
G02*
X163810000Y-25950000I0J-700000D01*
G01*
X161810000Y-25950000D02*
G75*
G02*
X162510000Y-25250000I700000J0D01*
G01*
X163810000Y-27350000D02*
G75*
G02*
X163110000Y-28050000I-699999J-1D01*
G01*
X162510000Y-28050000D02*
G75*
G02*
X161810000Y-27350000I-1J699999D01*
G01*
X162510000Y-25250000D02*
X163110000Y-25250000D01*
X163810000Y-25950000D02*
X163810000Y-27350000D01*
X161810000Y-27350000D02*
X161810000Y-25950000D01*
X163110000Y-28050000D02*
X162510000Y-28050000D01*
%TO.C,JP3*%
X156510000Y-32050000D02*
G75*
G02*
X155810000Y-31350000I0J700000D01*
G01*
X157810000Y-31350000D02*
G75*
G02*
X157110000Y-32050000I-700000J0D01*
G01*
X155810000Y-29950000D02*
G75*
G02*
X156510000Y-29250000I699999J1D01*
G01*
X157110000Y-29250000D02*
G75*
G02*
X157810000Y-29950000I1J-699999D01*
G01*
X157110000Y-32050000D02*
X156510000Y-32050000D01*
X155810000Y-31350000D02*
X155810000Y-29950000D01*
X157810000Y-29950000D02*
X157810000Y-31350000D01*
X156510000Y-29250000D02*
X157110000Y-29250000D01*
%TO.C,JP4*%
X157060000Y-25250000D02*
G75*
G02*
X157760000Y-25950000I0J-700000D01*
G01*
X155760000Y-25950000D02*
G75*
G02*
X156460000Y-25250000I700000J0D01*
G01*
X157760000Y-27350000D02*
G75*
G02*
X157060000Y-28050000I-699999J-1D01*
G01*
X156460000Y-28050000D02*
G75*
G02*
X155760000Y-27350000I-1J699999D01*
G01*
X156460000Y-25250000D02*
X157060000Y-25250000D01*
X157760000Y-25950000D02*
X157760000Y-27350000D01*
X155760000Y-27350000D02*
X155760000Y-25950000D01*
X157060000Y-28050000D02*
X156460000Y-28050000D01*
%TO.C,JP5*%
X160110000Y-25250000D02*
G75*
G02*
X160810000Y-25950000I0J-700000D01*
G01*
X158810000Y-25950000D02*
G75*
G02*
X159510000Y-25250000I700000J0D01*
G01*
X160810000Y-27350000D02*
G75*
G02*
X160110000Y-28050000I-699999J-1D01*
G01*
X159510000Y-28050000D02*
G75*
G02*
X158810000Y-27350000I-1J699999D01*
G01*
X159510000Y-25250000D02*
X160110000Y-25250000D01*
X160810000Y-25950000D02*
X160810000Y-27350000D01*
X158810000Y-27350000D02*
X158810000Y-25950000D01*
X160110000Y-28050000D02*
X159510000Y-28050000D01*
%TO.C,JP6*%
X159510000Y-32050000D02*
G75*
G02*
X158810000Y-31350000I0J700000D01*
G01*
X160810000Y-31350000D02*
G75*
G02*
X160110000Y-32050000I-700000J0D01*
G01*
X158810000Y-29950000D02*
G75*
G02*
X159510000Y-29250000I699999J1D01*
G01*
X160110000Y-29250000D02*
G75*
G02*
X160810000Y-29950000I1J-699999D01*
G01*
X160110000Y-32050000D02*
X159510000Y-32050000D01*
X158810000Y-31350000D02*
X158810000Y-29950000D01*
X160810000Y-29950000D02*
X160810000Y-31350000D01*
X159510000Y-29250000D02*
X160110000Y-29250000D01*
%TO.C,R1*%
X175920000Y-72630000D02*
X175920000Y-72960000D01*
X175920000Y-75370000D02*
X175920000Y-75040000D01*
X182460000Y-72630000D02*
X175920000Y-72630000D01*
X182460000Y-72960000D02*
X182460000Y-72630000D01*
X182460000Y-75040000D02*
X182460000Y-75370000D01*
X182460000Y-75370000D02*
X175920000Y-75370000D01*
%TO.C,J4*%
X222620000Y-76810000D02*
X222620000Y-71620000D01*
X225380000Y-71620000D02*
X222620000Y-71620000D01*
X225380000Y-76810000D02*
X222620000Y-76810000D01*
X225380000Y-76810000D02*
X225380000Y-71620000D01*
X225380000Y-78080000D02*
X225380000Y-79460000D01*
X225380000Y-79460000D02*
X224000000Y-79460000D01*
D13*
%TO.C,ADC1*%
X140728000Y-32665000D02*
X140728000Y-59462000D01*
X140728000Y-59462000D02*
X174002000Y-59462000D01*
X158000000Y-36856000D02*
X158000000Y-55144000D01*
X174002000Y-32665000D02*
X140728000Y-32665000D01*
X174002000Y-59462000D02*
X174002000Y-32665000D01*
D14*
%TO.C,R2*%
X175920000Y-77580000D02*
X182460000Y-77580000D01*
X175920000Y-77910000D02*
X175920000Y-77580000D01*
X175920000Y-79990000D02*
X175920000Y-80320000D01*
X175920000Y-80320000D02*
X182460000Y-80320000D01*
X182460000Y-77580000D02*
X182460000Y-77910000D01*
X182460000Y-80320000D02*
X182460000Y-79990000D01*
%TO.C,J3*%
X219420000Y-29620000D02*
X219420000Y-70380000D01*
X219420000Y-29620000D02*
X222020000Y-29620000D01*
X219420000Y-70380000D02*
X224620000Y-70380000D01*
X222020000Y-29620000D02*
X222020000Y-32220000D01*
X222020000Y-32220000D02*
X224620000Y-32220000D01*
X223290000Y-29620000D02*
X224620000Y-29620000D01*
X224620000Y-29620000D02*
X224620000Y-30950000D01*
X224620000Y-32220000D02*
X224620000Y-70380000D01*
%TO.C,U1*%
X193500000Y-20500000D02*
X193500000Y-20800000D01*
X193500000Y-20500000D02*
X214500000Y-20500000D01*
X193500000Y-22900000D02*
X193500000Y-23300000D01*
X193500000Y-23167000D02*
X196507000Y-23167000D01*
X193500000Y-25500000D02*
X193500000Y-25900000D01*
X193500000Y-28000000D02*
X193500000Y-28400000D01*
X193500000Y-30600000D02*
X193500000Y-31000000D01*
X193500000Y-33100000D02*
X193500000Y-33500000D01*
X193500000Y-35600000D02*
X193500000Y-36000000D01*
X193500000Y-38200000D02*
X193500000Y-38600000D01*
X193500000Y-40700000D02*
X193500000Y-41100000D01*
X193500000Y-43300000D02*
X193500000Y-43700000D01*
X193500000Y-45800000D02*
X193500000Y-46200000D01*
X193500000Y-48300000D02*
X193500000Y-48700000D01*
X193500000Y-50900000D02*
X193500000Y-51300000D01*
X193500000Y-53400000D02*
X193500000Y-53800000D01*
X193500000Y-56000000D02*
X193500000Y-56400000D01*
X193500000Y-58500000D02*
X193500000Y-58900000D01*
X193500000Y-61100000D02*
X193500000Y-61500000D01*
X193500000Y-63600000D02*
X193500000Y-64000000D01*
X193500000Y-66100000D02*
X193500000Y-66500000D01*
X193500000Y-68700000D02*
X193500000Y-69100000D01*
X196507000Y-23167000D02*
X196507000Y-20500000D01*
X200300000Y-71500000D02*
X193500000Y-71500000D01*
X202500000Y-71500000D02*
X202900000Y-71500000D01*
X205100000Y-71500000D02*
X205500000Y-71500000D01*
X214500000Y-20500000D02*
X214500000Y-20800000D01*
X214500000Y-22900000D02*
X214500000Y-23300000D01*
X214500000Y-25500000D02*
X214500000Y-25900000D01*
X214500000Y-28000000D02*
X214500000Y-28400000D01*
X214500000Y-30600000D02*
X214500000Y-31000000D01*
X214500000Y-33100000D02*
X214500000Y-33500000D01*
X214500000Y-35600000D02*
X214500000Y-36000000D01*
X214500000Y-38200000D02*
X214500000Y-38600000D01*
X214500000Y-40700000D02*
X214500000Y-41100000D01*
X214500000Y-43300000D02*
X214500000Y-43700000D01*
X214500000Y-45800000D02*
X214500000Y-46200000D01*
X214500000Y-48300000D02*
X214500000Y-48700000D01*
X214500000Y-50900000D02*
X214500000Y-51300000D01*
X214500000Y-53400000D02*
X214500000Y-53800000D01*
X214500000Y-56000000D02*
X214500000Y-56400000D01*
X214500000Y-58500000D02*
X214500000Y-58900000D01*
X214500000Y-61100000D02*
X214500000Y-61500000D01*
X214500000Y-63600000D02*
X214500000Y-64000000D01*
X214500000Y-66100000D02*
X214500000Y-66500000D01*
X214500000Y-68700000D02*
X214500000Y-69100000D01*
X214500000Y-71500000D02*
X207700000Y-71500000D01*
%TO.C,C2*%
X174620000Y-90000000D02*
G75*
G02*
X169380000Y-90000000I-2620000J0D01*
G01*
X169380000Y-90000000D02*
G75*
G02*
X174620000Y-90000000I2620000J0D01*
G01*
D13*
%TO.C,DAC1*%
X192590000Y-95110000D02*
X192590000Y-112890000D01*
X192590000Y-95110000D02*
X223578000Y-95110000D01*
X192590000Y-112890000D02*
X223578000Y-112890000D01*
X223578000Y-112890000D02*
X225610000Y-112890000D01*
X225610000Y-95110000D02*
X223578000Y-95110000D01*
X225610000Y-112890000D02*
X225610000Y-95110000D01*
X221546000Y-99682000D02*
X215958000Y-99682000D01*
X215958000Y-112890000D01*
X221546000Y-112890000D01*
X221546000Y-99682000D01*
D14*
%TO.C,R3*%
X175920000Y-82630000D02*
X182460000Y-82630000D01*
X175920000Y-82960000D02*
X175920000Y-82630000D01*
X175920000Y-85040000D02*
X175920000Y-85370000D01*
X175920000Y-85370000D02*
X182460000Y-85370000D01*
X182460000Y-82630000D02*
X182460000Y-82960000D01*
X182460000Y-85370000D02*
X182460000Y-85040000D01*
%TO.C,POWER1*%
X178880000Y-42580000D02*
X178880000Y-26690000D01*
X181460000Y-26690000D02*
X181460000Y-24150000D01*
X184000000Y-26690000D02*
X184000000Y-24150000D01*
X186540000Y-26690000D02*
X186540000Y-24150000D01*
X189120000Y-26690000D02*
X178880000Y-26690000D01*
X189120000Y-42580000D02*
X178880000Y-42580000D01*
X189120000Y-42580000D02*
X189120000Y-26690000D01*
%TO.C,C1*%
X174620000Y-63000000D02*
G75*
G02*
X169380000Y-63000000I-2620000J0D01*
G01*
X169380000Y-63000000D02*
G75*
G02*
X174620000Y-63000000I2620000J0D01*
G01*
D13*
%TO.C,ADC2*%
X140728000Y-96665000D02*
X140728000Y-123462000D01*
X140728000Y-123462000D02*
X174002000Y-123462000D01*
X158000000Y-100856000D02*
X158000000Y-119144000D01*
X174002000Y-96665000D02*
X140728000Y-96665000D01*
X174002000Y-123462000D02*
X174002000Y-96665000D01*
D14*
%TO.C,J1*%
X148620000Y-21620000D02*
X150000000Y-21620000D01*
X148620000Y-23000000D02*
X148620000Y-21620000D01*
X148620000Y-24270000D02*
X148620000Y-26920000D01*
X148620000Y-24270000D02*
X151380000Y-24270000D01*
X148620000Y-26920000D02*
X151380000Y-26920000D01*
X151380000Y-24270000D02*
X151380000Y-26920000D01*
%TO.C,SW1*%
X154620000Y-21620000D02*
X154620000Y-24380000D01*
X159810000Y-21620000D02*
X154620000Y-21620000D01*
X159810000Y-21620000D02*
X159810000Y-24380000D01*
X159810000Y-24380000D02*
X154620000Y-24380000D01*
X161080000Y-21620000D02*
X162460000Y-21620000D01*
X162460000Y-21620000D02*
X162460000Y-23000000D01*
%TD*%
M02*
