M48
; DRILL file {KiCad 9.0.2} date 2025-06-25T22:06:58+0200
; FORMAT={-:-/ absolute / metric / decimal}
; #@! TF.CreationDate,2025-06-25T22:06:58+02:00
; #@! TF.GenerationSoftware,Kicad,Pcbnew,9.0.2
; #@! TF.FileFunction,Plated,1,2,PTH
FMAT,2
METRIC
; #@! TA.AperFunction,Plated,PTH,ViaDrill
T1C0.300
; #@! TA.AperFunction,Plated,PTH,ComponentDrill
T2C0.800
; #@! TA.AperFunction,Plated,PTH,ComponentDrill
T3C0.900
; #@! TA.AperFunction,Plated,PTH,ComponentDrill
T4C1.000
; #@! TA.AperFunction,Plated,PTH,ComponentDrill
T5C1.100
; #@! TA.AperFunction,Plated,PTH,ComponentDrill
T6C1.500
; #@! TA.AperFunction,Plated,PTH,ComponentDrill
T7C1.800
%
G90
G05
T1
X156.185Y-34.315
X156.805Y-33.118
X158.0Y-66.5
X158.5Y-39.5
X159.0Y-34.0
X160.5Y-30.0
X163.004Y-33.212
X163.087Y-34.127
X163.791Y-60.031
X164.74Y-42.043
X166.5Y-30.0
X166.5Y-65.5
X169.0Y-26.0
X171.035Y-36.313
X172.861Y-35.466
X173.512Y-39.675
X174.5Y-26.0
X176.182Y-24.515
X176.331Y-42.817
X177.131Y-31.95
X178.5Y-49.0
X179.138Y-29.311
X179.195Y-43.143
X180.0Y-26.0
X180.187Y-45.154
X181.0Y-27.498
X181.206Y-35.043
X187.35Y-24.301
X189.0Y-27.0
X189.188Y-65.541
X193.0Y-76.0
X198.0Y-39.0
X198.0Y-51.0
X198.5Y-36.5
X198.62Y-30.232
X199.948Y-26.179
X200.476Y-69.476
X202.5Y-76.0
X203.0Y-35.5
X208.0Y-67.0
X210.487Y-71.786
X211.5Y-61.5
X215.65Y-41.999
X217.0Y-33.5
X217.5Y-54.0
X217.5Y-63.0
X218.0Y-123.5
X219.5Y-71.5
X220.0Y-89.086
X220.956Y-75.456
T2
X152.0Y-22.695
X152.0Y-30.315
X157.636Y-22.695
X157.636Y-30.315
X163.273Y-22.695
X163.273Y-30.315
X166.6Y-33.695
X166.6Y-41.315
X168.909Y-22.695
X168.909Y-30.315
X169.14Y-33.695
X169.14Y-41.315
X171.68Y-33.695
X171.68Y-41.315
X174.22Y-33.695
X174.22Y-41.315
X174.546Y-22.695
X174.546Y-30.315
X176.76Y-33.695
X176.76Y-41.315
X179.3Y-33.695
X179.3Y-41.315
X180.182Y-22.695
X180.182Y-30.315
X181.84Y-33.695
X181.84Y-41.315
X184.38Y-33.695
X184.38Y-41.315
X185.818Y-22.695
X185.818Y-30.315
X186.92Y-33.695
X186.92Y-41.315
X189.46Y-33.695
X189.46Y-41.315
X191.454Y-22.695
X191.454Y-30.315
X192.0Y-33.695
X192.0Y-41.315
X194.54Y-33.695
X194.54Y-41.315
X197.08Y-33.695
X197.08Y-41.315
X197.091Y-22.695
X197.091Y-30.315
X199.62Y-33.695
X199.62Y-41.315
X202.727Y-22.695
X202.727Y-30.315
X206.5Y-33.69
X206.5Y-41.31
X208.364Y-22.695
X208.364Y-30.315
X211.5Y-33.69
X211.5Y-41.31
X214.0Y-22.695
X214.0Y-30.315
T3
X158.0Y-45.24
X158.0Y-46.51
X158.0Y-47.78
X158.0Y-49.05
X158.0Y-69.05
X158.0Y-70.32
X158.0Y-71.59
X158.0Y-72.86
X183.0Y-45.24
X183.0Y-46.51
X183.0Y-47.78
X183.0Y-49.05
X183.0Y-69.24
X183.0Y-70.51
X183.0Y-71.78
X183.0Y-73.05
X208.0Y-45.24
X208.0Y-46.51
X208.0Y-47.78
X208.0Y-49.05
X208.0Y-69.24
X208.0Y-70.51
X208.0Y-71.78
X208.0Y-73.05
T4
X155.5Y-64.05
X155.5Y-75.925
X155.5Y-90.425
X158.0Y-64.05
X158.0Y-75.925
X160.5Y-64.05
X160.5Y-75.925
X160.5Y-90.425
X179.19Y-130.0
X180.5Y-64.05
X180.5Y-75.925
X180.5Y-90.425
X181.73Y-130.0
X183.0Y-64.05
X183.0Y-75.925
X184.27Y-130.0
X185.5Y-64.05
X185.5Y-75.925
X185.5Y-90.425
X186.81Y-130.0
X205.5Y-64.05
X205.5Y-75.925
X205.5Y-90.425
X208.0Y-64.05
X208.0Y-75.925
X210.5Y-64.05
X210.5Y-75.925
X210.5Y-90.425
X220.75Y-30.95
X220.75Y-33.49
X220.75Y-36.03
X220.75Y-38.57
X220.75Y-41.11
X220.75Y-43.65
X220.75Y-46.19
X220.75Y-48.73
X220.75Y-51.27
X220.75Y-53.81
X220.75Y-56.35
X220.75Y-58.89
X220.75Y-61.43
X220.75Y-63.97
X220.75Y-66.51
X220.75Y-69.05
X223.29Y-30.95
X223.29Y-33.49
X223.29Y-36.03
X223.29Y-38.57
X223.29Y-41.11
X223.29Y-43.65
X223.29Y-46.19
X223.29Y-48.73
X223.29Y-51.27
X223.29Y-53.81
X223.29Y-56.35
X223.29Y-58.89
X223.29Y-61.43
X223.29Y-63.97
X223.29Y-66.51
X223.29Y-69.05
T5
X155.5Y-108.9
X155.5Y-120.9
X160.5Y-108.85
X160.5Y-120.85
X205.5Y-109.15
X205.5Y-121.15
X210.5Y-109.1
X210.5Y-121.1
T6
G00X152.4Y-82.775
M15
G01X152.4Y-84.075
M16
G05
G00X163.6Y-82.775
M15
G01X163.6Y-84.075
M16
G05
G00X177.4Y-82.775
M15
G01X177.4Y-84.075
M16
G05
G00X188.6Y-82.775
M15
G01X188.6Y-84.075
M16
G05
G00X202.4Y-82.775
M15
G01X202.4Y-84.075
M16
G05
G00X213.6Y-82.775
M15
G01X213.6Y-84.075
M16
G05
T7
G00X153.6Y-57.2
M15
G01X153.6Y-56.9
M16
G05
G00X162.4Y-57.2
M15
G01X162.4Y-56.9
M16
G05
G00X178.6Y-57.2
M15
G01X178.6Y-56.9
M16
G05
G00X187.4Y-57.2
M15
G01X187.4Y-56.9
M16
G05
G00X203.6Y-57.2
M15
G01X203.6Y-56.9
M16
G05
G00X212.4Y-57.2
M15
G01X212.4Y-56.9
M16
G05
M30
