%TF.GenerationSoftware,KiCad,Pcbnew,9.0.2*%
%TF.CreationDate,2025-06-25T22:06:56+02:00*%
%TF.ProjectId,devkit,6465766b-6974-42e6-9b69-6361645f7063,rev?*%
%TF.SameCoordinates,Original*%
%TF.FileFunction,Soldermask,Top*%
%TF.FilePolarity,Negative*%
%FSLAX46Y46*%
G04 Gerber Fmt 4.6, Leading zero omitted, Abs format (unit mm)*
G04 Created by KiCad (PCBNEW 9.0.2) date 2025-06-25 22:06:56*
%MOMM*%
%LPD*%
G01*
G04 APERTURE LIST*
G04 Aperture macros list*
%AMRoundRect*
0 Rectangle with rounded corners*
0 $1 Rounding radius*
0 $2 $3 $4 $5 $6 $7 $8 $9 X,Y pos of 4 corners*
0 Add a 4 corners polygon primitive as box body*
4,1,4,$2,$3,$4,$5,$6,$7,$8,$9,$2,$3,0*
0 Add four circle primitives for the rounded corners*
1,1,$1+$1,$2,$3*
1,1,$1+$1,$4,$5*
1,1,$1+$1,$6,$7*
1,1,$1+$1,$8,$9*
0 Add four rect primitives between the rounded corners*
20,1,$1+$1,$2,$3,$4,$5,0*
20,1,$1+$1,$4,$5,$6,$7,0*
20,1,$1+$1,$6,$7,$8,$9,0*
20,1,$1+$1,$8,$9,$2,$3,0*%
G04 Aperture macros list end*
%ADD10C,1.600000*%
%ADD11RoundRect,0.250000X-0.550000X0.550000X-0.550000X-0.550000X0.550000X-0.550000X0.550000X0.550000X0*%
%ADD12C,2.000000*%
%ADD13O,1.600000X1.600000*%
%ADD14R,1.800000X1.800000*%
%ADD15C,1.800000*%
%ADD16RoundRect,0.750000X0.750000X-1.250000X0.750000X1.250000X-0.750000X1.250000X-0.750000X-1.250000X0*%
%ADD17C,3.200000*%
%ADD18R,1.700000X1.700000*%
%ADD19C,1.700000*%
%ADD20R,1.800000X1.070000*%
%ADD21O,1.800000X1.070000*%
%ADD22O,1.600000X2.200000*%
%ADD23C,2.100000*%
%ADD24R,2.000000X2.000000*%
%ADD25R,2.000000X3.200000*%
G04 APERTURE END LIST*
D10*
%TO.C,U1*%
X199620000Y-41315000D03*
X197080000Y-41315000D03*
X194540000Y-41315000D03*
X192000000Y-41315000D03*
X189460000Y-41315000D03*
X186920000Y-41315000D03*
X184380000Y-41315000D03*
X181840000Y-41315000D03*
X179300000Y-41315000D03*
X176760000Y-41315000D03*
X174220000Y-41315000D03*
X171680000Y-41315000D03*
X169140000Y-41315000D03*
X166600000Y-41315000D03*
X166600000Y-33695000D03*
X169140000Y-33695000D03*
X171680000Y-33695000D03*
X174220000Y-33695000D03*
X176760000Y-33695000D03*
X179300000Y-33695000D03*
X181840000Y-33695000D03*
X184380000Y-33695000D03*
X186920000Y-33695000D03*
X189460000Y-33695000D03*
X192000000Y-33695000D03*
X194540000Y-33695000D03*
X197080000Y-33695000D03*
D11*
X199620000Y-33695000D03*
%TD*%
D12*
%TO.C,SW5*%
X155500000Y-120900000D03*
X160500000Y-120850000D03*
%TD*%
D10*
%TO.C,R3*%
X163272700Y-30315000D03*
D13*
X163272700Y-22695000D03*
%TD*%
D10*
%TO.C,R11*%
X208363600Y-30315000D03*
D13*
X208363600Y-22695000D03*
%TD*%
D12*
%TO.C,SW7*%
X210500000Y-121100000D03*
X205500000Y-121150000D03*
%TD*%
D14*
%TO.C,RV2*%
X180500000Y-64050000D03*
D15*
X183000000Y-64050000D03*
X185500000Y-64050000D03*
D16*
X178600000Y-57050000D03*
X187400000Y-57050000D03*
%TD*%
D10*
%TO.C,R7*%
X185818200Y-30315000D03*
D13*
X185818200Y-22695000D03*
%TD*%
D10*
%TO.C,R13*%
X211500000Y-33690000D03*
D13*
X211500000Y-41310000D03*
%TD*%
D10*
%TO.C,R1*%
X152000000Y-30315000D03*
D13*
X152000000Y-22695000D03*
%TD*%
D10*
%TO.C,R10*%
X202727300Y-30315000D03*
D13*
X202727300Y-22695000D03*
%TD*%
D17*
%TO.C,H3*%
X144000000Y-128000000D03*
%TD*%
D12*
%TO.C,SW4*%
X155500000Y-108900000D03*
X160500000Y-108850000D03*
%TD*%
D18*
%TO.C,J3*%
X223290000Y-30950000D03*
D19*
X220750000Y-30950000D03*
X223290000Y-33490000D03*
X220750000Y-33490000D03*
X223290000Y-36030000D03*
X220750000Y-36030000D03*
X223290000Y-38570000D03*
X220750000Y-38570000D03*
X223290000Y-41110000D03*
X220750000Y-41110000D03*
X223290000Y-43650000D03*
X220750000Y-43650000D03*
X223290000Y-46190000D03*
X220750000Y-46190000D03*
X223290000Y-48730000D03*
X220750000Y-48730000D03*
X223290000Y-51270000D03*
X220750000Y-51270000D03*
X223290000Y-53810000D03*
X220750000Y-53810000D03*
X223290000Y-56350000D03*
X220750000Y-56350000D03*
X223290000Y-58890000D03*
X220750000Y-58890000D03*
X223290000Y-61430000D03*
X220750000Y-61430000D03*
X223290000Y-63970000D03*
X220750000Y-63970000D03*
X223290000Y-66510000D03*
X220750000Y-66510000D03*
X223290000Y-69050000D03*
X220750000Y-69050000D03*
%TD*%
D20*
%TO.C,D1*%
X158000000Y-49050000D03*
D21*
X158000000Y-47780000D03*
X158000000Y-46510000D03*
X158000000Y-45240000D03*
%TD*%
D14*
%TO.C,RV3*%
X205500000Y-64050000D03*
D15*
X208000000Y-64050000D03*
X210500000Y-64050000D03*
D16*
X203600000Y-57050000D03*
X212400000Y-57050000D03*
%TD*%
D10*
%TO.C,R9*%
X197090900Y-30315000D03*
D13*
X197090900Y-22695000D03*
%TD*%
D10*
%TO.C,R8*%
X191454500Y-30315000D03*
D13*
X191454500Y-22695000D03*
%TD*%
D10*
%TO.C,R12*%
X214000000Y-30315000D03*
D13*
X214000000Y-22695000D03*
%TD*%
D20*
%TO.C,D5*%
X183000000Y-73050000D03*
D21*
X183000000Y-71780000D03*
X183000000Y-70510000D03*
X183000000Y-69240000D03*
%TD*%
D20*
%TO.C,D2*%
X183000000Y-49050000D03*
D21*
X183000000Y-47780000D03*
X183000000Y-46510000D03*
X183000000Y-45240000D03*
%TD*%
D10*
%TO.C,R6*%
X180181800Y-30315000D03*
D13*
X180181800Y-22695000D03*
%TD*%
D12*
%TO.C,SW6*%
X210500000Y-109100000D03*
X205500000Y-109150000D03*
%TD*%
D22*
%TO.C,SW3*%
X208000000Y-78925000D03*
D23*
X208000000Y-83425000D03*
D24*
X210500000Y-75925000D03*
D12*
X205500000Y-75925000D03*
X208000000Y-75925000D03*
D25*
X213600000Y-83425000D03*
X202400000Y-83425000D03*
D12*
X205500000Y-90425000D03*
X210500000Y-90425000D03*
%TD*%
D10*
%TO.C,R14*%
X206500000Y-33690000D03*
D13*
X206500000Y-41310000D03*
%TD*%
D20*
%TO.C,D6*%
X208000000Y-73050000D03*
D21*
X208000000Y-71780000D03*
X208000000Y-70510000D03*
X208000000Y-69240000D03*
%TD*%
D20*
%TO.C,D4*%
X158000000Y-72860000D03*
D21*
X158000000Y-71590000D03*
X158000000Y-70320000D03*
X158000000Y-69050000D03*
%TD*%
D10*
%TO.C,R4*%
X168909100Y-30315000D03*
D13*
X168909100Y-22695000D03*
%TD*%
D22*
%TO.C,SW2*%
X183000000Y-78925000D03*
D23*
X183000000Y-83425000D03*
D24*
X185500000Y-75925000D03*
D12*
X180500000Y-75925000D03*
X183000000Y-75925000D03*
D25*
X188600000Y-83425000D03*
X177400000Y-83425000D03*
D12*
X180500000Y-90425000D03*
X185500000Y-90425000D03*
%TD*%
D18*
%TO.C,VID1*%
X186810000Y-130000000D03*
D19*
X184270000Y-130000000D03*
X181730000Y-130000000D03*
X179190000Y-130000000D03*
%TD*%
D14*
%TO.C,RV1*%
X155500000Y-64050000D03*
D15*
X158000000Y-64050000D03*
X160500000Y-64050000D03*
D16*
X153600000Y-57050000D03*
X162400000Y-57050000D03*
%TD*%
D17*
%TO.C,H2*%
X222000000Y-24000000D03*
%TD*%
%TO.C,H4*%
X222000000Y-128000000D03*
%TD*%
D20*
%TO.C,D3*%
X208000000Y-49050000D03*
D21*
X208000000Y-47780000D03*
X208000000Y-46510000D03*
X208000000Y-45240000D03*
%TD*%
D10*
%TO.C,R2*%
X157636400Y-30315000D03*
D13*
X157636400Y-22695000D03*
%TD*%
D17*
%TO.C,H1*%
X144000000Y-24000000D03*
%TD*%
D10*
%TO.C,R5*%
X174545500Y-30315000D03*
D13*
X174545500Y-22695000D03*
%TD*%
D22*
%TO.C,SW1*%
X158000000Y-78925000D03*
D23*
X158000000Y-83425000D03*
D24*
X160500000Y-75925000D03*
D12*
X155500000Y-75925000D03*
X158000000Y-75925000D03*
D25*
X163600000Y-83425000D03*
X152400000Y-83425000D03*
D12*
X155500000Y-90425000D03*
X160500000Y-90425000D03*
%TD*%
M02*
