%TF.GenerationSoftware,KiCad,Pcbnew,9.0.2*%
%TF.CreationDate,2025-06-25T22:06:56+02:00*%
%TF.ProjectId,devkit,6465766b-6974-42e6-9b69-6361645f7063,rev?*%
%TF.SameCoordinates,Original*%
%TF.FileFunction,Legend,Bot*%
%TF.FilePolarity,Positive*%
%FSLAX46Y46*%
G04 Gerber Fmt 4.6, Leading zero omitted, Abs format (unit mm)*
G04 Created by KiCad (PCBNEW 9.0.2) date 2025-06-25 22:06:56*
%MOMM*%
%LPD*%
G01*
G04 APERTURE LIST*
%ADD10C,0.200000*%
%ADD11C,0.100000*%
G04 APERTURE END LIST*
D10*
X143476070Y-101939849D02*
X142476070Y-101939849D01*
X142618927Y-101939849D02*
X142547499Y-102011278D01*
X142547499Y-102011278D02*
X142476070Y-102154135D01*
X142476070Y-102154135D02*
X142476070Y-102368421D01*
X142476070Y-102368421D02*
X142547499Y-102511278D01*
X142547499Y-102511278D02*
X142690356Y-102582707D01*
X142690356Y-102582707D02*
X143476070Y-102582707D01*
X142690356Y-102582707D02*
X142547499Y-102654135D01*
X142547499Y-102654135D02*
X142476070Y-102796992D01*
X142476070Y-102796992D02*
X142476070Y-103011278D01*
X142476070Y-103011278D02*
X142547499Y-103154135D01*
X142547499Y-103154135D02*
X142690356Y-103225564D01*
X142690356Y-103225564D02*
X143476070Y-103225564D01*
X142476070Y-104582707D02*
X143476070Y-104582707D01*
X142476070Y-103939849D02*
X143261784Y-103939849D01*
X143261784Y-103939849D02*
X143404642Y-104011278D01*
X143404642Y-104011278D02*
X143476070Y-104154135D01*
X143476070Y-104154135D02*
X143476070Y-104368421D01*
X143476070Y-104368421D02*
X143404642Y-104511278D01*
X143404642Y-104511278D02*
X143333213Y-104582707D01*
X143476070Y-105511278D02*
X143404642Y-105368421D01*
X143404642Y-105368421D02*
X143261784Y-105296992D01*
X143261784Y-105296992D02*
X141976070Y-105296992D01*
X142476070Y-105868421D02*
X142476070Y-106439849D01*
X141976070Y-106082706D02*
X143261784Y-106082706D01*
X143261784Y-106082706D02*
X143404642Y-106154135D01*
X143404642Y-106154135D02*
X143476070Y-106296992D01*
X143476070Y-106296992D02*
X143476070Y-106439849D01*
X143476070Y-106939849D02*
X142476070Y-106939849D01*
X141976070Y-106939849D02*
X142047499Y-106868421D01*
X142047499Y-106868421D02*
X142118927Y-106939849D01*
X142118927Y-106939849D02*
X142047499Y-107011278D01*
X142047499Y-107011278D02*
X141976070Y-106939849D01*
X141976070Y-106939849D02*
X142118927Y-106939849D01*
X142904642Y-107654135D02*
X142904642Y-108796993D01*
X143404642Y-110082707D02*
X143476070Y-109939850D01*
X143476070Y-109939850D02*
X143476070Y-109654136D01*
X143476070Y-109654136D02*
X143404642Y-109511278D01*
X143404642Y-109511278D02*
X143261784Y-109439850D01*
X143261784Y-109439850D02*
X142690356Y-109439850D01*
X142690356Y-109439850D02*
X142547499Y-109511278D01*
X142547499Y-109511278D02*
X142476070Y-109654136D01*
X142476070Y-109654136D02*
X142476070Y-109939850D01*
X142476070Y-109939850D02*
X142547499Y-110082707D01*
X142547499Y-110082707D02*
X142690356Y-110154136D01*
X142690356Y-110154136D02*
X142833213Y-110154136D01*
X142833213Y-110154136D02*
X142976070Y-109439850D01*
X142476070Y-110582707D02*
X142476070Y-111154135D01*
X143476070Y-110796992D02*
X142190356Y-110796992D01*
X142190356Y-110796992D02*
X142047499Y-110868421D01*
X142047499Y-110868421D02*
X141976070Y-111011278D01*
X141976070Y-111011278D02*
X141976070Y-111154135D01*
X142476070Y-111439850D02*
X142476070Y-112011278D01*
X143476070Y-111654135D02*
X142190356Y-111654135D01*
X142190356Y-111654135D02*
X142047499Y-111725564D01*
X142047499Y-111725564D02*
X141976070Y-111868421D01*
X141976070Y-111868421D02*
X141976070Y-112011278D01*
X143404642Y-113082707D02*
X143476070Y-112939850D01*
X143476070Y-112939850D02*
X143476070Y-112654136D01*
X143476070Y-112654136D02*
X143404642Y-112511278D01*
X143404642Y-112511278D02*
X143261784Y-112439850D01*
X143261784Y-112439850D02*
X142690356Y-112439850D01*
X142690356Y-112439850D02*
X142547499Y-112511278D01*
X142547499Y-112511278D02*
X142476070Y-112654136D01*
X142476070Y-112654136D02*
X142476070Y-112939850D01*
X142476070Y-112939850D02*
X142547499Y-113082707D01*
X142547499Y-113082707D02*
X142690356Y-113154136D01*
X142690356Y-113154136D02*
X142833213Y-113154136D01*
X142833213Y-113154136D02*
X142976070Y-112439850D01*
X143404642Y-114439850D02*
X143476070Y-114296992D01*
X143476070Y-114296992D02*
X143476070Y-114011278D01*
X143476070Y-114011278D02*
X143404642Y-113868421D01*
X143404642Y-113868421D02*
X143333213Y-113796992D01*
X143333213Y-113796992D02*
X143190356Y-113725564D01*
X143190356Y-113725564D02*
X142761784Y-113725564D01*
X142761784Y-113725564D02*
X142618927Y-113796992D01*
X142618927Y-113796992D02*
X142547499Y-113868421D01*
X142547499Y-113868421D02*
X142476070Y-114011278D01*
X142476070Y-114011278D02*
X142476070Y-114296992D01*
X142476070Y-114296992D02*
X142547499Y-114439850D01*
X142476070Y-114868421D02*
X142476070Y-115439849D01*
X141976070Y-115082706D02*
X143261784Y-115082706D01*
X143261784Y-115082706D02*
X143404642Y-115154135D01*
X143404642Y-115154135D02*
X143476070Y-115296992D01*
X143476070Y-115296992D02*
X143476070Y-115439849D01*
X143404642Y-115868421D02*
X143476070Y-116011278D01*
X143476070Y-116011278D02*
X143476070Y-116296992D01*
X143476070Y-116296992D02*
X143404642Y-116439849D01*
X143404642Y-116439849D02*
X143261784Y-116511278D01*
X143261784Y-116511278D02*
X143190356Y-116511278D01*
X143190356Y-116511278D02*
X143047499Y-116439849D01*
X143047499Y-116439849D02*
X142976070Y-116296992D01*
X142976070Y-116296992D02*
X142976070Y-116082707D01*
X142976070Y-116082707D02*
X142904642Y-115939849D01*
X142904642Y-115939849D02*
X142761784Y-115868421D01*
X142761784Y-115868421D02*
X142690356Y-115868421D01*
X142690356Y-115868421D02*
X142547499Y-115939849D01*
X142547499Y-115939849D02*
X142476070Y-116082707D01*
X142476070Y-116082707D02*
X142476070Y-116296992D01*
X142476070Y-116296992D02*
X142547499Y-116439849D01*
X142904642Y-117154135D02*
X142904642Y-118296993D01*
X142476070Y-119011278D02*
X143976070Y-119011278D01*
X142547499Y-119011278D02*
X142476070Y-119154136D01*
X142476070Y-119154136D02*
X142476070Y-119439850D01*
X142476070Y-119439850D02*
X142547499Y-119582707D01*
X142547499Y-119582707D02*
X142618927Y-119654136D01*
X142618927Y-119654136D02*
X142761784Y-119725564D01*
X142761784Y-119725564D02*
X143190356Y-119725564D01*
X143190356Y-119725564D02*
X143333213Y-119654136D01*
X143333213Y-119654136D02*
X143404642Y-119582707D01*
X143404642Y-119582707D02*
X143476070Y-119439850D01*
X143476070Y-119439850D02*
X143476070Y-119154136D01*
X143476070Y-119154136D02*
X143404642Y-119011278D01*
X143476070Y-120368421D02*
X142476070Y-120368421D01*
X141976070Y-120368421D02*
X142047499Y-120296993D01*
X142047499Y-120296993D02*
X142118927Y-120368421D01*
X142118927Y-120368421D02*
X142047499Y-120439850D01*
X142047499Y-120439850D02*
X141976070Y-120368421D01*
X141976070Y-120368421D02*
X142118927Y-120368421D01*
X143404642Y-121725565D02*
X143476070Y-121582707D01*
X143476070Y-121582707D02*
X143476070Y-121296993D01*
X143476070Y-121296993D02*
X143404642Y-121154136D01*
X143404642Y-121154136D02*
X143333213Y-121082707D01*
X143333213Y-121082707D02*
X143190356Y-121011279D01*
X143190356Y-121011279D02*
X142761784Y-121011279D01*
X142761784Y-121011279D02*
X142618927Y-121082707D01*
X142618927Y-121082707D02*
X142547499Y-121154136D01*
X142547499Y-121154136D02*
X142476070Y-121296993D01*
X142476070Y-121296993D02*
X142476070Y-121582707D01*
X142476070Y-121582707D02*
X142547499Y-121725565D01*
X143476070Y-122582707D02*
X143404642Y-122439850D01*
X143404642Y-122439850D02*
X143333213Y-122368421D01*
X143333213Y-122368421D02*
X143190356Y-122296993D01*
X143190356Y-122296993D02*
X142761784Y-122296993D01*
X142761784Y-122296993D02*
X142618927Y-122368421D01*
X142618927Y-122368421D02*
X142547499Y-122439850D01*
X142547499Y-122439850D02*
X142476070Y-122582707D01*
X142476070Y-122582707D02*
X142476070Y-122796993D01*
X142476070Y-122796993D02*
X142547499Y-122939850D01*
X142547499Y-122939850D02*
X142618927Y-123011279D01*
X142618927Y-123011279D02*
X142761784Y-123082707D01*
X142761784Y-123082707D02*
X143190356Y-123082707D01*
X143190356Y-123082707D02*
X143333213Y-123011279D01*
X143333213Y-123011279D02*
X143404642Y-122939850D01*
X143404642Y-122939850D02*
X143476070Y-122796993D01*
X143476070Y-122796993D02*
X143476070Y-122582707D01*
X145890986Y-111939851D02*
X144390986Y-111939851D01*
X145819558Y-111939851D02*
X145890986Y-111796993D01*
X145890986Y-111796993D02*
X145890986Y-111511279D01*
X145890986Y-111511279D02*
X145819558Y-111368422D01*
X145819558Y-111368422D02*
X145748129Y-111296993D01*
X145748129Y-111296993D02*
X145605272Y-111225565D01*
X145605272Y-111225565D02*
X145176700Y-111225565D01*
X145176700Y-111225565D02*
X145033843Y-111296993D01*
X145033843Y-111296993D02*
X144962415Y-111368422D01*
X144962415Y-111368422D02*
X144890986Y-111511279D01*
X144890986Y-111511279D02*
X144890986Y-111796993D01*
X144890986Y-111796993D02*
X144962415Y-111939851D01*
X145819558Y-113225565D02*
X145890986Y-113082708D01*
X145890986Y-113082708D02*
X145890986Y-112796994D01*
X145890986Y-112796994D02*
X145819558Y-112654136D01*
X145819558Y-112654136D02*
X145676700Y-112582708D01*
X145676700Y-112582708D02*
X145105272Y-112582708D01*
X145105272Y-112582708D02*
X144962415Y-112654136D01*
X144962415Y-112654136D02*
X144890986Y-112796994D01*
X144890986Y-112796994D02*
X144890986Y-113082708D01*
X144890986Y-113082708D02*
X144962415Y-113225565D01*
X144962415Y-113225565D02*
X145105272Y-113296994D01*
X145105272Y-113296994D02*
X145248129Y-113296994D01*
X145248129Y-113296994D02*
X145390986Y-112582708D01*
X144890986Y-113796993D02*
X145890986Y-114154136D01*
X145890986Y-114154136D02*
X144890986Y-114511279D01*
X145890986Y-115082707D02*
X144390986Y-115082707D01*
X145319558Y-115225565D02*
X145890986Y-115654136D01*
X144890986Y-115654136D02*
X145462415Y-115082707D01*
X145890986Y-116296993D02*
X144890986Y-116296993D01*
X144390986Y-116296993D02*
X144462415Y-116225565D01*
X144462415Y-116225565D02*
X144533843Y-116296993D01*
X144533843Y-116296993D02*
X144462415Y-116368422D01*
X144462415Y-116368422D02*
X144390986Y-116296993D01*
X144390986Y-116296993D02*
X144533843Y-116296993D01*
X144890986Y-116796994D02*
X144890986Y-117368422D01*
X144390986Y-117011279D02*
X145676700Y-117011279D01*
X145676700Y-117011279D02*
X145819558Y-117082708D01*
X145819558Y-117082708D02*
X145890986Y-117225565D01*
X145890986Y-117225565D02*
X145890986Y-117368422D01*
X144890986Y-118868422D02*
X145890986Y-119225565D01*
X145890986Y-119225565D02*
X144890986Y-119582708D01*
X144390986Y-120439851D02*
X144390986Y-120582708D01*
X144390986Y-120582708D02*
X144462415Y-120725565D01*
X144462415Y-120725565D02*
X144533843Y-120796994D01*
X144533843Y-120796994D02*
X144676700Y-120868422D01*
X144676700Y-120868422D02*
X144962415Y-120939851D01*
X144962415Y-120939851D02*
X145319558Y-120939851D01*
X145319558Y-120939851D02*
X145605272Y-120868422D01*
X145605272Y-120868422D02*
X145748129Y-120796994D01*
X145748129Y-120796994D02*
X145819558Y-120725565D01*
X145819558Y-120725565D02*
X145890986Y-120582708D01*
X145890986Y-120582708D02*
X145890986Y-120439851D01*
X145890986Y-120439851D02*
X145819558Y-120296994D01*
X145819558Y-120296994D02*
X145748129Y-120225565D01*
X145748129Y-120225565D02*
X145605272Y-120154136D01*
X145605272Y-120154136D02*
X145319558Y-120082708D01*
X145319558Y-120082708D02*
X144962415Y-120082708D01*
X144962415Y-120082708D02*
X144676700Y-120154136D01*
X144676700Y-120154136D02*
X144533843Y-120225565D01*
X144533843Y-120225565D02*
X144462415Y-120296994D01*
X144462415Y-120296994D02*
X144390986Y-120439851D01*
X145748129Y-121582707D02*
X145819558Y-121654136D01*
X145819558Y-121654136D02*
X145890986Y-121582707D01*
X145890986Y-121582707D02*
X145819558Y-121511279D01*
X145819558Y-121511279D02*
X145748129Y-121582707D01*
X145748129Y-121582707D02*
X145890986Y-121582707D01*
X145890986Y-123082708D02*
X145890986Y-122225565D01*
X145890986Y-122654136D02*
X144390986Y-122654136D01*
X144390986Y-122654136D02*
X144605272Y-122511279D01*
X144605272Y-122511279D02*
X144748129Y-122368422D01*
X144748129Y-122368422D02*
X144819558Y-122225565D01*
D11*
X158409800Y-119566667D02*
X158457419Y-119709524D01*
X158457419Y-119709524D02*
X158457419Y-119947619D01*
X158457419Y-119947619D02*
X158409800Y-120042857D01*
X158409800Y-120042857D02*
X158362180Y-120090476D01*
X158362180Y-120090476D02*
X158266942Y-120138095D01*
X158266942Y-120138095D02*
X158171704Y-120138095D01*
X158171704Y-120138095D02*
X158076466Y-120090476D01*
X158076466Y-120090476D02*
X158028847Y-120042857D01*
X158028847Y-120042857D02*
X157981228Y-119947619D01*
X157981228Y-119947619D02*
X157933609Y-119757143D01*
X157933609Y-119757143D02*
X157885990Y-119661905D01*
X157885990Y-119661905D02*
X157838371Y-119614286D01*
X157838371Y-119614286D02*
X157743133Y-119566667D01*
X157743133Y-119566667D02*
X157647895Y-119566667D01*
X157647895Y-119566667D02*
X157552657Y-119614286D01*
X157552657Y-119614286D02*
X157505038Y-119661905D01*
X157505038Y-119661905D02*
X157457419Y-119757143D01*
X157457419Y-119757143D02*
X157457419Y-119995238D01*
X157457419Y-119995238D02*
X157505038Y-120138095D01*
X157457419Y-120471429D02*
X158457419Y-120709524D01*
X158457419Y-120709524D02*
X157743133Y-120900000D01*
X157743133Y-120900000D02*
X158457419Y-121090476D01*
X158457419Y-121090476D02*
X157457419Y-121328572D01*
X157457419Y-122185714D02*
X157457419Y-121709524D01*
X157457419Y-121709524D02*
X157933609Y-121661905D01*
X157933609Y-121661905D02*
X157885990Y-121709524D01*
X157885990Y-121709524D02*
X157838371Y-121804762D01*
X157838371Y-121804762D02*
X157838371Y-122042857D01*
X157838371Y-122042857D02*
X157885990Y-122138095D01*
X157885990Y-122138095D02*
X157933609Y-122185714D01*
X157933609Y-122185714D02*
X158028847Y-122233333D01*
X158028847Y-122233333D02*
X158266942Y-122233333D01*
X158266942Y-122233333D02*
X158362180Y-122185714D01*
X158362180Y-122185714D02*
X158409800Y-122138095D01*
X158409800Y-122138095D02*
X158457419Y-122042857D01*
X158457419Y-122042857D02*
X158457419Y-121804762D01*
X158457419Y-121804762D02*
X158409800Y-121709524D01*
X158409800Y-121709524D02*
X158362180Y-121661905D01*
X207590200Y-122433332D02*
X207542580Y-122290475D01*
X207542580Y-122290475D02*
X207542580Y-122052380D01*
X207542580Y-122052380D02*
X207590200Y-121957142D01*
X207590200Y-121957142D02*
X207637819Y-121909523D01*
X207637819Y-121909523D02*
X207733057Y-121861904D01*
X207733057Y-121861904D02*
X207828295Y-121861904D01*
X207828295Y-121861904D02*
X207923533Y-121909523D01*
X207923533Y-121909523D02*
X207971152Y-121957142D01*
X207971152Y-121957142D02*
X208018771Y-122052380D01*
X208018771Y-122052380D02*
X208066390Y-122242856D01*
X208066390Y-122242856D02*
X208114009Y-122338094D01*
X208114009Y-122338094D02*
X208161628Y-122385713D01*
X208161628Y-122385713D02*
X208256866Y-122433332D01*
X208256866Y-122433332D02*
X208352104Y-122433332D01*
X208352104Y-122433332D02*
X208447342Y-122385713D01*
X208447342Y-122385713D02*
X208494961Y-122338094D01*
X208494961Y-122338094D02*
X208542580Y-122242856D01*
X208542580Y-122242856D02*
X208542580Y-122004761D01*
X208542580Y-122004761D02*
X208494961Y-121861904D01*
X208542580Y-121528570D02*
X207542580Y-121290475D01*
X207542580Y-121290475D02*
X208256866Y-121099999D01*
X208256866Y-121099999D02*
X207542580Y-120909523D01*
X207542580Y-120909523D02*
X208542580Y-120671428D01*
X208542580Y-120385713D02*
X208542580Y-119719047D01*
X208542580Y-119719047D02*
X207542580Y-120147618D01*
X158409800Y-107666667D02*
X158457419Y-107809524D01*
X158457419Y-107809524D02*
X158457419Y-108047619D01*
X158457419Y-108047619D02*
X158409800Y-108142857D01*
X158409800Y-108142857D02*
X158362180Y-108190476D01*
X158362180Y-108190476D02*
X158266942Y-108238095D01*
X158266942Y-108238095D02*
X158171704Y-108238095D01*
X158171704Y-108238095D02*
X158076466Y-108190476D01*
X158076466Y-108190476D02*
X158028847Y-108142857D01*
X158028847Y-108142857D02*
X157981228Y-108047619D01*
X157981228Y-108047619D02*
X157933609Y-107857143D01*
X157933609Y-107857143D02*
X157885990Y-107761905D01*
X157885990Y-107761905D02*
X157838371Y-107714286D01*
X157838371Y-107714286D02*
X157743133Y-107666667D01*
X157743133Y-107666667D02*
X157647895Y-107666667D01*
X157647895Y-107666667D02*
X157552657Y-107714286D01*
X157552657Y-107714286D02*
X157505038Y-107761905D01*
X157505038Y-107761905D02*
X157457419Y-107857143D01*
X157457419Y-107857143D02*
X157457419Y-108095238D01*
X157457419Y-108095238D02*
X157505038Y-108238095D01*
X157457419Y-108571429D02*
X158457419Y-108809524D01*
X158457419Y-108809524D02*
X157743133Y-109000000D01*
X157743133Y-109000000D02*
X158457419Y-109190476D01*
X158457419Y-109190476D02*
X157457419Y-109428572D01*
X157790752Y-110238095D02*
X158457419Y-110238095D01*
X157409800Y-110000000D02*
X158124085Y-109761905D01*
X158124085Y-109761905D02*
X158124085Y-110380952D01*
X207590200Y-110433332D02*
X207542580Y-110290475D01*
X207542580Y-110290475D02*
X207542580Y-110052380D01*
X207542580Y-110052380D02*
X207590200Y-109957142D01*
X207590200Y-109957142D02*
X207637819Y-109909523D01*
X207637819Y-109909523D02*
X207733057Y-109861904D01*
X207733057Y-109861904D02*
X207828295Y-109861904D01*
X207828295Y-109861904D02*
X207923533Y-109909523D01*
X207923533Y-109909523D02*
X207971152Y-109957142D01*
X207971152Y-109957142D02*
X208018771Y-110052380D01*
X208018771Y-110052380D02*
X208066390Y-110242856D01*
X208066390Y-110242856D02*
X208114009Y-110338094D01*
X208114009Y-110338094D02*
X208161628Y-110385713D01*
X208161628Y-110385713D02*
X208256866Y-110433332D01*
X208256866Y-110433332D02*
X208352104Y-110433332D01*
X208352104Y-110433332D02*
X208447342Y-110385713D01*
X208447342Y-110385713D02*
X208494961Y-110338094D01*
X208494961Y-110338094D02*
X208542580Y-110242856D01*
X208542580Y-110242856D02*
X208542580Y-110004761D01*
X208542580Y-110004761D02*
X208494961Y-109861904D01*
X208542580Y-109528570D02*
X207542580Y-109290475D01*
X207542580Y-109290475D02*
X208256866Y-109099999D01*
X208256866Y-109099999D02*
X207542580Y-108909523D01*
X207542580Y-108909523D02*
X208542580Y-108671428D01*
X208542580Y-107861904D02*
X208542580Y-108052380D01*
X208542580Y-108052380D02*
X208494961Y-108147618D01*
X208494961Y-108147618D02*
X208447342Y-108195237D01*
X208447342Y-108195237D02*
X208304485Y-108290475D01*
X208304485Y-108290475D02*
X208114009Y-108338094D01*
X208114009Y-108338094D02*
X207733057Y-108338094D01*
X207733057Y-108338094D02*
X207637819Y-108290475D01*
X207637819Y-108290475D02*
X207590200Y-108242856D01*
X207590200Y-108242856D02*
X207542580Y-108147618D01*
X207542580Y-108147618D02*
X207542580Y-107957142D01*
X207542580Y-107957142D02*
X207590200Y-107861904D01*
X207590200Y-107861904D02*
X207637819Y-107814285D01*
X207637819Y-107814285D02*
X207733057Y-107766666D01*
X207733057Y-107766666D02*
X207971152Y-107766666D01*
X207971152Y-107766666D02*
X208066390Y-107814285D01*
X208066390Y-107814285D02*
X208114009Y-107861904D01*
X208114009Y-107861904D02*
X208161628Y-107957142D01*
X208161628Y-107957142D02*
X208161628Y-108147618D01*
X208161628Y-108147618D02*
X208114009Y-108242856D01*
X208114009Y-108242856D02*
X208066390Y-108290475D01*
X208066390Y-108290475D02*
X207971152Y-108338094D01*
M02*
