%TF.GenerationSoftware,KiCad,Pcbnew,9.0.2*%
%TF.CreationDate,2025-06-25T22:06:56+02:00*%
%TF.ProjectId,devkit,6465766b-6974-42e6-9b69-6361645f7063,rev?*%
%TF.SameCoordinates,Original*%
%TF.FileFunction,Legend,Top*%
%TF.FilePolarity,Positive*%
%FSLAX46Y46*%
G04 Gerber Fmt 4.6, Leading zero omitted, Abs format (unit mm)*
G04 Created by KiCad (PCBNEW 9.0.2) date 2025-06-25 22:06:56*
%MOMM*%
%LPD*%
G01*
G04 APERTURE LIST*
%ADD10C,0.150000*%
%ADD11C,0.120000*%
%ADD12C,0.100000*%
G04 APERTURE END LIST*
D10*
X201404819Y-38266904D02*
X202214342Y-38266904D01*
X202214342Y-38266904D02*
X202309580Y-38219285D01*
X202309580Y-38219285D02*
X202357200Y-38171666D01*
X202357200Y-38171666D02*
X202404819Y-38076428D01*
X202404819Y-38076428D02*
X202404819Y-37885952D01*
X202404819Y-37885952D02*
X202357200Y-37790714D01*
X202357200Y-37790714D02*
X202309580Y-37743095D01*
X202309580Y-37743095D02*
X202214342Y-37695476D01*
X202214342Y-37695476D02*
X201404819Y-37695476D01*
X202404819Y-36695476D02*
X202404819Y-37266904D01*
X202404819Y-36981190D02*
X201404819Y-36981190D01*
X201404819Y-36981190D02*
X201547676Y-37076428D01*
X201547676Y-37076428D02*
X201642914Y-37171666D01*
X201642914Y-37171666D02*
X201690533Y-37266904D01*
X161357519Y-26671666D02*
X160881328Y-27004999D01*
X161357519Y-27243094D02*
X160357519Y-27243094D01*
X160357519Y-27243094D02*
X160357519Y-26862142D01*
X160357519Y-26862142D02*
X160405138Y-26766904D01*
X160405138Y-26766904D02*
X160452757Y-26719285D01*
X160452757Y-26719285D02*
X160547995Y-26671666D01*
X160547995Y-26671666D02*
X160690852Y-26671666D01*
X160690852Y-26671666D02*
X160786090Y-26719285D01*
X160786090Y-26719285D02*
X160833709Y-26766904D01*
X160833709Y-26766904D02*
X160881328Y-26862142D01*
X160881328Y-26862142D02*
X160881328Y-27243094D01*
X160357519Y-26338332D02*
X160357519Y-25719285D01*
X160357519Y-25719285D02*
X160738471Y-26052618D01*
X160738471Y-26052618D02*
X160738471Y-25909761D01*
X160738471Y-25909761D02*
X160786090Y-25814523D01*
X160786090Y-25814523D02*
X160833709Y-25766904D01*
X160833709Y-25766904D02*
X160928947Y-25719285D01*
X160928947Y-25719285D02*
X161167042Y-25719285D01*
X161167042Y-25719285D02*
X161262280Y-25766904D01*
X161262280Y-25766904D02*
X161309900Y-25814523D01*
X161309900Y-25814523D02*
X161357519Y-25909761D01*
X161357519Y-25909761D02*
X161357519Y-26195475D01*
X161357519Y-26195475D02*
X161309900Y-26290713D01*
X161309900Y-26290713D02*
X161262280Y-26338332D01*
X206448419Y-27147857D02*
X205972228Y-27481190D01*
X206448419Y-27719285D02*
X205448419Y-27719285D01*
X205448419Y-27719285D02*
X205448419Y-27338333D01*
X205448419Y-27338333D02*
X205496038Y-27243095D01*
X205496038Y-27243095D02*
X205543657Y-27195476D01*
X205543657Y-27195476D02*
X205638895Y-27147857D01*
X205638895Y-27147857D02*
X205781752Y-27147857D01*
X205781752Y-27147857D02*
X205876990Y-27195476D01*
X205876990Y-27195476D02*
X205924609Y-27243095D01*
X205924609Y-27243095D02*
X205972228Y-27338333D01*
X205972228Y-27338333D02*
X205972228Y-27719285D01*
X206448419Y-26195476D02*
X206448419Y-26766904D01*
X206448419Y-26481190D02*
X205448419Y-26481190D01*
X205448419Y-26481190D02*
X205591276Y-26576428D01*
X205591276Y-26576428D02*
X205686514Y-26671666D01*
X205686514Y-26671666D02*
X205734133Y-26766904D01*
X206448419Y-25243095D02*
X206448419Y-25814523D01*
X206448419Y-25528809D02*
X205448419Y-25528809D01*
X205448419Y-25528809D02*
X205591276Y-25624047D01*
X205591276Y-25624047D02*
X205686514Y-25719285D01*
X205686514Y-25719285D02*
X205734133Y-25814523D01*
X175804819Y-58595238D02*
X175328628Y-58928571D01*
X175804819Y-59166666D02*
X174804819Y-59166666D01*
X174804819Y-59166666D02*
X174804819Y-58785714D01*
X174804819Y-58785714D02*
X174852438Y-58690476D01*
X174852438Y-58690476D02*
X174900057Y-58642857D01*
X174900057Y-58642857D02*
X174995295Y-58595238D01*
X174995295Y-58595238D02*
X175138152Y-58595238D01*
X175138152Y-58595238D02*
X175233390Y-58642857D01*
X175233390Y-58642857D02*
X175281009Y-58690476D01*
X175281009Y-58690476D02*
X175328628Y-58785714D01*
X175328628Y-58785714D02*
X175328628Y-59166666D01*
X174804819Y-58309523D02*
X175804819Y-57976190D01*
X175804819Y-57976190D02*
X174804819Y-57642857D01*
X174900057Y-57357142D02*
X174852438Y-57309523D01*
X174852438Y-57309523D02*
X174804819Y-57214285D01*
X174804819Y-57214285D02*
X174804819Y-56976190D01*
X174804819Y-56976190D02*
X174852438Y-56880952D01*
X174852438Y-56880952D02*
X174900057Y-56833333D01*
X174900057Y-56833333D02*
X174995295Y-56785714D01*
X174995295Y-56785714D02*
X175090533Y-56785714D01*
X175090533Y-56785714D02*
X175233390Y-56833333D01*
X175233390Y-56833333D02*
X175804819Y-57404761D01*
X175804819Y-57404761D02*
X175804819Y-56785714D01*
X183903019Y-26671666D02*
X183426828Y-27004999D01*
X183903019Y-27243094D02*
X182903019Y-27243094D01*
X182903019Y-27243094D02*
X182903019Y-26862142D01*
X182903019Y-26862142D02*
X182950638Y-26766904D01*
X182950638Y-26766904D02*
X182998257Y-26719285D01*
X182998257Y-26719285D02*
X183093495Y-26671666D01*
X183093495Y-26671666D02*
X183236352Y-26671666D01*
X183236352Y-26671666D02*
X183331590Y-26719285D01*
X183331590Y-26719285D02*
X183379209Y-26766904D01*
X183379209Y-26766904D02*
X183426828Y-26862142D01*
X183426828Y-26862142D02*
X183426828Y-27243094D01*
X182903019Y-26338332D02*
X182903019Y-25671666D01*
X182903019Y-25671666D02*
X183903019Y-26100237D01*
X214324819Y-38142857D02*
X213848628Y-38476190D01*
X214324819Y-38714285D02*
X213324819Y-38714285D01*
X213324819Y-38714285D02*
X213324819Y-38333333D01*
X213324819Y-38333333D02*
X213372438Y-38238095D01*
X213372438Y-38238095D02*
X213420057Y-38190476D01*
X213420057Y-38190476D02*
X213515295Y-38142857D01*
X213515295Y-38142857D02*
X213658152Y-38142857D01*
X213658152Y-38142857D02*
X213753390Y-38190476D01*
X213753390Y-38190476D02*
X213801009Y-38238095D01*
X213801009Y-38238095D02*
X213848628Y-38333333D01*
X213848628Y-38333333D02*
X213848628Y-38714285D01*
X214324819Y-37190476D02*
X214324819Y-37761904D01*
X214324819Y-37476190D02*
X213324819Y-37476190D01*
X213324819Y-37476190D02*
X213467676Y-37571428D01*
X213467676Y-37571428D02*
X213562914Y-37666666D01*
X213562914Y-37666666D02*
X213610533Y-37761904D01*
X213324819Y-36857142D02*
X213324819Y-36238095D01*
X213324819Y-36238095D02*
X213705771Y-36571428D01*
X213705771Y-36571428D02*
X213705771Y-36428571D01*
X213705771Y-36428571D02*
X213753390Y-36333333D01*
X213753390Y-36333333D02*
X213801009Y-36285714D01*
X213801009Y-36285714D02*
X213896247Y-36238095D01*
X213896247Y-36238095D02*
X214134342Y-36238095D01*
X214134342Y-36238095D02*
X214229580Y-36285714D01*
X214229580Y-36285714D02*
X214277200Y-36333333D01*
X214277200Y-36333333D02*
X214324819Y-36428571D01*
X214324819Y-36428571D02*
X214324819Y-36714285D01*
X214324819Y-36714285D02*
X214277200Y-36809523D01*
X214277200Y-36809523D02*
X214229580Y-36857142D01*
X150084819Y-26671666D02*
X149608628Y-27004999D01*
X150084819Y-27243094D02*
X149084819Y-27243094D01*
X149084819Y-27243094D02*
X149084819Y-26862142D01*
X149084819Y-26862142D02*
X149132438Y-26766904D01*
X149132438Y-26766904D02*
X149180057Y-26719285D01*
X149180057Y-26719285D02*
X149275295Y-26671666D01*
X149275295Y-26671666D02*
X149418152Y-26671666D01*
X149418152Y-26671666D02*
X149513390Y-26719285D01*
X149513390Y-26719285D02*
X149561009Y-26766904D01*
X149561009Y-26766904D02*
X149608628Y-26862142D01*
X149608628Y-26862142D02*
X149608628Y-27243094D01*
X150084819Y-25719285D02*
X150084819Y-26290713D01*
X150084819Y-26004999D02*
X149084819Y-26004999D01*
X149084819Y-26004999D02*
X149227676Y-26100237D01*
X149227676Y-26100237D02*
X149322914Y-26195475D01*
X149322914Y-26195475D02*
X149370533Y-26290713D01*
X200812119Y-27147857D02*
X200335928Y-27481190D01*
X200812119Y-27719285D02*
X199812119Y-27719285D01*
X199812119Y-27719285D02*
X199812119Y-27338333D01*
X199812119Y-27338333D02*
X199859738Y-27243095D01*
X199859738Y-27243095D02*
X199907357Y-27195476D01*
X199907357Y-27195476D02*
X200002595Y-27147857D01*
X200002595Y-27147857D02*
X200145452Y-27147857D01*
X200145452Y-27147857D02*
X200240690Y-27195476D01*
X200240690Y-27195476D02*
X200288309Y-27243095D01*
X200288309Y-27243095D02*
X200335928Y-27338333D01*
X200335928Y-27338333D02*
X200335928Y-27719285D01*
X200812119Y-26195476D02*
X200812119Y-26766904D01*
X200812119Y-26481190D02*
X199812119Y-26481190D01*
X199812119Y-26481190D02*
X199954976Y-26576428D01*
X199954976Y-26576428D02*
X200050214Y-26671666D01*
X200050214Y-26671666D02*
X200097833Y-26766904D01*
X199812119Y-25576428D02*
X199812119Y-25481190D01*
X199812119Y-25481190D02*
X199859738Y-25385952D01*
X199859738Y-25385952D02*
X199907357Y-25338333D01*
X199907357Y-25338333D02*
X200002595Y-25290714D01*
X200002595Y-25290714D02*
X200193071Y-25243095D01*
X200193071Y-25243095D02*
X200431166Y-25243095D01*
X200431166Y-25243095D02*
X200621642Y-25290714D01*
X200621642Y-25290714D02*
X200716880Y-25338333D01*
X200716880Y-25338333D02*
X200764500Y-25385952D01*
X200764500Y-25385952D02*
X200812119Y-25481190D01*
X200812119Y-25481190D02*
X200812119Y-25576428D01*
X200812119Y-25576428D02*
X200764500Y-25671666D01*
X200764500Y-25671666D02*
X200716880Y-25719285D01*
X200716880Y-25719285D02*
X200621642Y-25766904D01*
X200621642Y-25766904D02*
X200431166Y-25814523D01*
X200431166Y-25814523D02*
X200193071Y-25814523D01*
X200193071Y-25814523D02*
X200002595Y-25766904D01*
X200002595Y-25766904D02*
X199907357Y-25719285D01*
X199907357Y-25719285D02*
X199859738Y-25671666D01*
X199859738Y-25671666D02*
X199812119Y-25576428D01*
X154494819Y-47883094D02*
X153494819Y-47883094D01*
X153494819Y-47883094D02*
X153494819Y-47644999D01*
X153494819Y-47644999D02*
X153542438Y-47502142D01*
X153542438Y-47502142D02*
X153637676Y-47406904D01*
X153637676Y-47406904D02*
X153732914Y-47359285D01*
X153732914Y-47359285D02*
X153923390Y-47311666D01*
X153923390Y-47311666D02*
X154066247Y-47311666D01*
X154066247Y-47311666D02*
X154256723Y-47359285D01*
X154256723Y-47359285D02*
X154351961Y-47406904D01*
X154351961Y-47406904D02*
X154447200Y-47502142D01*
X154447200Y-47502142D02*
X154494819Y-47644999D01*
X154494819Y-47644999D02*
X154494819Y-47883094D01*
X154494819Y-46359285D02*
X154494819Y-46930713D01*
X154494819Y-46644999D02*
X153494819Y-46644999D01*
X153494819Y-46644999D02*
X153637676Y-46740237D01*
X153637676Y-46740237D02*
X153732914Y-46835475D01*
X153732914Y-46835475D02*
X153780533Y-46930713D01*
X200804819Y-58595238D02*
X200328628Y-58928571D01*
X200804819Y-59166666D02*
X199804819Y-59166666D01*
X199804819Y-59166666D02*
X199804819Y-58785714D01*
X199804819Y-58785714D02*
X199852438Y-58690476D01*
X199852438Y-58690476D02*
X199900057Y-58642857D01*
X199900057Y-58642857D02*
X199995295Y-58595238D01*
X199995295Y-58595238D02*
X200138152Y-58595238D01*
X200138152Y-58595238D02*
X200233390Y-58642857D01*
X200233390Y-58642857D02*
X200281009Y-58690476D01*
X200281009Y-58690476D02*
X200328628Y-58785714D01*
X200328628Y-58785714D02*
X200328628Y-59166666D01*
X199804819Y-58309523D02*
X200804819Y-57976190D01*
X200804819Y-57976190D02*
X199804819Y-57642857D01*
X199804819Y-57404761D02*
X199804819Y-56785714D01*
X199804819Y-56785714D02*
X200185771Y-57119047D01*
X200185771Y-57119047D02*
X200185771Y-56976190D01*
X200185771Y-56976190D02*
X200233390Y-56880952D01*
X200233390Y-56880952D02*
X200281009Y-56833333D01*
X200281009Y-56833333D02*
X200376247Y-56785714D01*
X200376247Y-56785714D02*
X200614342Y-56785714D01*
X200614342Y-56785714D02*
X200709580Y-56833333D01*
X200709580Y-56833333D02*
X200757200Y-56880952D01*
X200757200Y-56880952D02*
X200804819Y-56976190D01*
X200804819Y-56976190D02*
X200804819Y-57261904D01*
X200804819Y-57261904D02*
X200757200Y-57357142D01*
X200757200Y-57357142D02*
X200709580Y-57404761D01*
X195175719Y-26671666D02*
X194699528Y-27004999D01*
X195175719Y-27243094D02*
X194175719Y-27243094D01*
X194175719Y-27243094D02*
X194175719Y-26862142D01*
X194175719Y-26862142D02*
X194223338Y-26766904D01*
X194223338Y-26766904D02*
X194270957Y-26719285D01*
X194270957Y-26719285D02*
X194366195Y-26671666D01*
X194366195Y-26671666D02*
X194509052Y-26671666D01*
X194509052Y-26671666D02*
X194604290Y-26719285D01*
X194604290Y-26719285D02*
X194651909Y-26766904D01*
X194651909Y-26766904D02*
X194699528Y-26862142D01*
X194699528Y-26862142D02*
X194699528Y-27243094D01*
X195175719Y-26195475D02*
X195175719Y-26004999D01*
X195175719Y-26004999D02*
X195128100Y-25909761D01*
X195128100Y-25909761D02*
X195080480Y-25862142D01*
X195080480Y-25862142D02*
X194937623Y-25766904D01*
X194937623Y-25766904D02*
X194747147Y-25719285D01*
X194747147Y-25719285D02*
X194366195Y-25719285D01*
X194366195Y-25719285D02*
X194270957Y-25766904D01*
X194270957Y-25766904D02*
X194223338Y-25814523D01*
X194223338Y-25814523D02*
X194175719Y-25909761D01*
X194175719Y-25909761D02*
X194175719Y-26100237D01*
X194175719Y-26100237D02*
X194223338Y-26195475D01*
X194223338Y-26195475D02*
X194270957Y-26243094D01*
X194270957Y-26243094D02*
X194366195Y-26290713D01*
X194366195Y-26290713D02*
X194604290Y-26290713D01*
X194604290Y-26290713D02*
X194699528Y-26243094D01*
X194699528Y-26243094D02*
X194747147Y-26195475D01*
X194747147Y-26195475D02*
X194794766Y-26100237D01*
X194794766Y-26100237D02*
X194794766Y-25909761D01*
X194794766Y-25909761D02*
X194747147Y-25814523D01*
X194747147Y-25814523D02*
X194699528Y-25766904D01*
X194699528Y-25766904D02*
X194604290Y-25719285D01*
X189539319Y-26671666D02*
X189063128Y-27004999D01*
X189539319Y-27243094D02*
X188539319Y-27243094D01*
X188539319Y-27243094D02*
X188539319Y-26862142D01*
X188539319Y-26862142D02*
X188586938Y-26766904D01*
X188586938Y-26766904D02*
X188634557Y-26719285D01*
X188634557Y-26719285D02*
X188729795Y-26671666D01*
X188729795Y-26671666D02*
X188872652Y-26671666D01*
X188872652Y-26671666D02*
X188967890Y-26719285D01*
X188967890Y-26719285D02*
X189015509Y-26766904D01*
X189015509Y-26766904D02*
X189063128Y-26862142D01*
X189063128Y-26862142D02*
X189063128Y-27243094D01*
X188967890Y-26100237D02*
X188920271Y-26195475D01*
X188920271Y-26195475D02*
X188872652Y-26243094D01*
X188872652Y-26243094D02*
X188777414Y-26290713D01*
X188777414Y-26290713D02*
X188729795Y-26290713D01*
X188729795Y-26290713D02*
X188634557Y-26243094D01*
X188634557Y-26243094D02*
X188586938Y-26195475D01*
X188586938Y-26195475D02*
X188539319Y-26100237D01*
X188539319Y-26100237D02*
X188539319Y-25909761D01*
X188539319Y-25909761D02*
X188586938Y-25814523D01*
X188586938Y-25814523D02*
X188634557Y-25766904D01*
X188634557Y-25766904D02*
X188729795Y-25719285D01*
X188729795Y-25719285D02*
X188777414Y-25719285D01*
X188777414Y-25719285D02*
X188872652Y-25766904D01*
X188872652Y-25766904D02*
X188920271Y-25814523D01*
X188920271Y-25814523D02*
X188967890Y-25909761D01*
X188967890Y-25909761D02*
X188967890Y-26100237D01*
X188967890Y-26100237D02*
X189015509Y-26195475D01*
X189015509Y-26195475D02*
X189063128Y-26243094D01*
X189063128Y-26243094D02*
X189158366Y-26290713D01*
X189158366Y-26290713D02*
X189348842Y-26290713D01*
X189348842Y-26290713D02*
X189444080Y-26243094D01*
X189444080Y-26243094D02*
X189491700Y-26195475D01*
X189491700Y-26195475D02*
X189539319Y-26100237D01*
X189539319Y-26100237D02*
X189539319Y-25909761D01*
X189539319Y-25909761D02*
X189491700Y-25814523D01*
X189491700Y-25814523D02*
X189444080Y-25766904D01*
X189444080Y-25766904D02*
X189348842Y-25719285D01*
X189348842Y-25719285D02*
X189158366Y-25719285D01*
X189158366Y-25719285D02*
X189063128Y-25766904D01*
X189063128Y-25766904D02*
X189015509Y-25814523D01*
X189015509Y-25814523D02*
X188967890Y-25909761D01*
X212084819Y-27147857D02*
X211608628Y-27481190D01*
X212084819Y-27719285D02*
X211084819Y-27719285D01*
X211084819Y-27719285D02*
X211084819Y-27338333D01*
X211084819Y-27338333D02*
X211132438Y-27243095D01*
X211132438Y-27243095D02*
X211180057Y-27195476D01*
X211180057Y-27195476D02*
X211275295Y-27147857D01*
X211275295Y-27147857D02*
X211418152Y-27147857D01*
X211418152Y-27147857D02*
X211513390Y-27195476D01*
X211513390Y-27195476D02*
X211561009Y-27243095D01*
X211561009Y-27243095D02*
X211608628Y-27338333D01*
X211608628Y-27338333D02*
X211608628Y-27719285D01*
X212084819Y-26195476D02*
X212084819Y-26766904D01*
X212084819Y-26481190D02*
X211084819Y-26481190D01*
X211084819Y-26481190D02*
X211227676Y-26576428D01*
X211227676Y-26576428D02*
X211322914Y-26671666D01*
X211322914Y-26671666D02*
X211370533Y-26766904D01*
X211180057Y-25814523D02*
X211132438Y-25766904D01*
X211132438Y-25766904D02*
X211084819Y-25671666D01*
X211084819Y-25671666D02*
X211084819Y-25433571D01*
X211084819Y-25433571D02*
X211132438Y-25338333D01*
X211132438Y-25338333D02*
X211180057Y-25290714D01*
X211180057Y-25290714D02*
X211275295Y-25243095D01*
X211275295Y-25243095D02*
X211370533Y-25243095D01*
X211370533Y-25243095D02*
X211513390Y-25290714D01*
X211513390Y-25290714D02*
X212084819Y-25862142D01*
X212084819Y-25862142D02*
X212084819Y-25243095D01*
X179494819Y-71883094D02*
X178494819Y-71883094D01*
X178494819Y-71883094D02*
X178494819Y-71644999D01*
X178494819Y-71644999D02*
X178542438Y-71502142D01*
X178542438Y-71502142D02*
X178637676Y-71406904D01*
X178637676Y-71406904D02*
X178732914Y-71359285D01*
X178732914Y-71359285D02*
X178923390Y-71311666D01*
X178923390Y-71311666D02*
X179066247Y-71311666D01*
X179066247Y-71311666D02*
X179256723Y-71359285D01*
X179256723Y-71359285D02*
X179351961Y-71406904D01*
X179351961Y-71406904D02*
X179447200Y-71502142D01*
X179447200Y-71502142D02*
X179494819Y-71644999D01*
X179494819Y-71644999D02*
X179494819Y-71883094D01*
X178494819Y-70406904D02*
X178494819Y-70883094D01*
X178494819Y-70883094D02*
X178971009Y-70930713D01*
X178971009Y-70930713D02*
X178923390Y-70883094D01*
X178923390Y-70883094D02*
X178875771Y-70787856D01*
X178875771Y-70787856D02*
X178875771Y-70549761D01*
X178875771Y-70549761D02*
X178923390Y-70454523D01*
X178923390Y-70454523D02*
X178971009Y-70406904D01*
X178971009Y-70406904D02*
X179066247Y-70359285D01*
X179066247Y-70359285D02*
X179304342Y-70359285D01*
X179304342Y-70359285D02*
X179399580Y-70406904D01*
X179399580Y-70406904D02*
X179447200Y-70454523D01*
X179447200Y-70454523D02*
X179494819Y-70549761D01*
X179494819Y-70549761D02*
X179494819Y-70787856D01*
X179494819Y-70787856D02*
X179447200Y-70883094D01*
X179447200Y-70883094D02*
X179399580Y-70930713D01*
X179494819Y-47883094D02*
X178494819Y-47883094D01*
X178494819Y-47883094D02*
X178494819Y-47644999D01*
X178494819Y-47644999D02*
X178542438Y-47502142D01*
X178542438Y-47502142D02*
X178637676Y-47406904D01*
X178637676Y-47406904D02*
X178732914Y-47359285D01*
X178732914Y-47359285D02*
X178923390Y-47311666D01*
X178923390Y-47311666D02*
X179066247Y-47311666D01*
X179066247Y-47311666D02*
X179256723Y-47359285D01*
X179256723Y-47359285D02*
X179351961Y-47406904D01*
X179351961Y-47406904D02*
X179447200Y-47502142D01*
X179447200Y-47502142D02*
X179494819Y-47644999D01*
X179494819Y-47644999D02*
X179494819Y-47883094D01*
X178590057Y-46930713D02*
X178542438Y-46883094D01*
X178542438Y-46883094D02*
X178494819Y-46787856D01*
X178494819Y-46787856D02*
X178494819Y-46549761D01*
X178494819Y-46549761D02*
X178542438Y-46454523D01*
X178542438Y-46454523D02*
X178590057Y-46406904D01*
X178590057Y-46406904D02*
X178685295Y-46359285D01*
X178685295Y-46359285D02*
X178780533Y-46359285D01*
X178780533Y-46359285D02*
X178923390Y-46406904D01*
X178923390Y-46406904D02*
X179494819Y-46978332D01*
X179494819Y-46978332D02*
X179494819Y-46359285D01*
X178266619Y-26671666D02*
X177790428Y-27004999D01*
X178266619Y-27243094D02*
X177266619Y-27243094D01*
X177266619Y-27243094D02*
X177266619Y-26862142D01*
X177266619Y-26862142D02*
X177314238Y-26766904D01*
X177314238Y-26766904D02*
X177361857Y-26719285D01*
X177361857Y-26719285D02*
X177457095Y-26671666D01*
X177457095Y-26671666D02*
X177599952Y-26671666D01*
X177599952Y-26671666D02*
X177695190Y-26719285D01*
X177695190Y-26719285D02*
X177742809Y-26766904D01*
X177742809Y-26766904D02*
X177790428Y-26862142D01*
X177790428Y-26862142D02*
X177790428Y-27243094D01*
X177266619Y-25814523D02*
X177266619Y-26004999D01*
X177266619Y-26004999D02*
X177314238Y-26100237D01*
X177314238Y-26100237D02*
X177361857Y-26147856D01*
X177361857Y-26147856D02*
X177504714Y-26243094D01*
X177504714Y-26243094D02*
X177695190Y-26290713D01*
X177695190Y-26290713D02*
X178076142Y-26290713D01*
X178076142Y-26290713D02*
X178171380Y-26243094D01*
X178171380Y-26243094D02*
X178219000Y-26195475D01*
X178219000Y-26195475D02*
X178266619Y-26100237D01*
X178266619Y-26100237D02*
X178266619Y-25909761D01*
X178266619Y-25909761D02*
X178219000Y-25814523D01*
X178219000Y-25814523D02*
X178171380Y-25766904D01*
X178171380Y-25766904D02*
X178076142Y-25719285D01*
X178076142Y-25719285D02*
X177838047Y-25719285D01*
X177838047Y-25719285D02*
X177742809Y-25766904D01*
X177742809Y-25766904D02*
X177695190Y-25814523D01*
X177695190Y-25814523D02*
X177647571Y-25909761D01*
X177647571Y-25909761D02*
X177647571Y-26100237D01*
X177647571Y-26100237D02*
X177695190Y-26195475D01*
X177695190Y-26195475D02*
X177742809Y-26243094D01*
X177742809Y-26243094D02*
X177838047Y-26290713D01*
X215607200Y-80058332D02*
X215654819Y-79915475D01*
X215654819Y-79915475D02*
X215654819Y-79677380D01*
X215654819Y-79677380D02*
X215607200Y-79582142D01*
X215607200Y-79582142D02*
X215559580Y-79534523D01*
X215559580Y-79534523D02*
X215464342Y-79486904D01*
X215464342Y-79486904D02*
X215369104Y-79486904D01*
X215369104Y-79486904D02*
X215273866Y-79534523D01*
X215273866Y-79534523D02*
X215226247Y-79582142D01*
X215226247Y-79582142D02*
X215178628Y-79677380D01*
X215178628Y-79677380D02*
X215131009Y-79867856D01*
X215131009Y-79867856D02*
X215083390Y-79963094D01*
X215083390Y-79963094D02*
X215035771Y-80010713D01*
X215035771Y-80010713D02*
X214940533Y-80058332D01*
X214940533Y-80058332D02*
X214845295Y-80058332D01*
X214845295Y-80058332D02*
X214750057Y-80010713D01*
X214750057Y-80010713D02*
X214702438Y-79963094D01*
X214702438Y-79963094D02*
X214654819Y-79867856D01*
X214654819Y-79867856D02*
X214654819Y-79629761D01*
X214654819Y-79629761D02*
X214702438Y-79486904D01*
X214654819Y-79153570D02*
X215654819Y-78915475D01*
X215654819Y-78915475D02*
X214940533Y-78724999D01*
X214940533Y-78724999D02*
X215654819Y-78534523D01*
X215654819Y-78534523D02*
X214654819Y-78296428D01*
X214654819Y-78010713D02*
X214654819Y-77391666D01*
X214654819Y-77391666D02*
X215035771Y-77724999D01*
X215035771Y-77724999D02*
X215035771Y-77582142D01*
X215035771Y-77582142D02*
X215083390Y-77486904D01*
X215083390Y-77486904D02*
X215131009Y-77439285D01*
X215131009Y-77439285D02*
X215226247Y-77391666D01*
X215226247Y-77391666D02*
X215464342Y-77391666D01*
X215464342Y-77391666D02*
X215559580Y-77439285D01*
X215559580Y-77439285D02*
X215607200Y-77486904D01*
X215607200Y-77486904D02*
X215654819Y-77582142D01*
X215654819Y-77582142D02*
X215654819Y-77867856D01*
X215654819Y-77867856D02*
X215607200Y-77963094D01*
X215607200Y-77963094D02*
X215559580Y-78010713D01*
X209324819Y-38142857D02*
X208848628Y-38476190D01*
X209324819Y-38714285D02*
X208324819Y-38714285D01*
X208324819Y-38714285D02*
X208324819Y-38333333D01*
X208324819Y-38333333D02*
X208372438Y-38238095D01*
X208372438Y-38238095D02*
X208420057Y-38190476D01*
X208420057Y-38190476D02*
X208515295Y-38142857D01*
X208515295Y-38142857D02*
X208658152Y-38142857D01*
X208658152Y-38142857D02*
X208753390Y-38190476D01*
X208753390Y-38190476D02*
X208801009Y-38238095D01*
X208801009Y-38238095D02*
X208848628Y-38333333D01*
X208848628Y-38333333D02*
X208848628Y-38714285D01*
X209324819Y-37190476D02*
X209324819Y-37761904D01*
X209324819Y-37476190D02*
X208324819Y-37476190D01*
X208324819Y-37476190D02*
X208467676Y-37571428D01*
X208467676Y-37571428D02*
X208562914Y-37666666D01*
X208562914Y-37666666D02*
X208610533Y-37761904D01*
X208658152Y-36333333D02*
X209324819Y-36333333D01*
X208277200Y-36571428D02*
X208991485Y-36809523D01*
X208991485Y-36809523D02*
X208991485Y-36190476D01*
X204494819Y-71883094D02*
X203494819Y-71883094D01*
X203494819Y-71883094D02*
X203494819Y-71644999D01*
X203494819Y-71644999D02*
X203542438Y-71502142D01*
X203542438Y-71502142D02*
X203637676Y-71406904D01*
X203637676Y-71406904D02*
X203732914Y-71359285D01*
X203732914Y-71359285D02*
X203923390Y-71311666D01*
X203923390Y-71311666D02*
X204066247Y-71311666D01*
X204066247Y-71311666D02*
X204256723Y-71359285D01*
X204256723Y-71359285D02*
X204351961Y-71406904D01*
X204351961Y-71406904D02*
X204447200Y-71502142D01*
X204447200Y-71502142D02*
X204494819Y-71644999D01*
X204494819Y-71644999D02*
X204494819Y-71883094D01*
X203494819Y-70454523D02*
X203494819Y-70644999D01*
X203494819Y-70644999D02*
X203542438Y-70740237D01*
X203542438Y-70740237D02*
X203590057Y-70787856D01*
X203590057Y-70787856D02*
X203732914Y-70883094D01*
X203732914Y-70883094D02*
X203923390Y-70930713D01*
X203923390Y-70930713D02*
X204304342Y-70930713D01*
X204304342Y-70930713D02*
X204399580Y-70883094D01*
X204399580Y-70883094D02*
X204447200Y-70835475D01*
X204447200Y-70835475D02*
X204494819Y-70740237D01*
X204494819Y-70740237D02*
X204494819Y-70549761D01*
X204494819Y-70549761D02*
X204447200Y-70454523D01*
X204447200Y-70454523D02*
X204399580Y-70406904D01*
X204399580Y-70406904D02*
X204304342Y-70359285D01*
X204304342Y-70359285D02*
X204066247Y-70359285D01*
X204066247Y-70359285D02*
X203971009Y-70406904D01*
X203971009Y-70406904D02*
X203923390Y-70454523D01*
X203923390Y-70454523D02*
X203875771Y-70549761D01*
X203875771Y-70549761D02*
X203875771Y-70740237D01*
X203875771Y-70740237D02*
X203923390Y-70835475D01*
X203923390Y-70835475D02*
X203971009Y-70883094D01*
X203971009Y-70883094D02*
X204066247Y-70930713D01*
X154494819Y-71693094D02*
X153494819Y-71693094D01*
X153494819Y-71693094D02*
X153494819Y-71454999D01*
X153494819Y-71454999D02*
X153542438Y-71312142D01*
X153542438Y-71312142D02*
X153637676Y-71216904D01*
X153637676Y-71216904D02*
X153732914Y-71169285D01*
X153732914Y-71169285D02*
X153923390Y-71121666D01*
X153923390Y-71121666D02*
X154066247Y-71121666D01*
X154066247Y-71121666D02*
X154256723Y-71169285D01*
X154256723Y-71169285D02*
X154351961Y-71216904D01*
X154351961Y-71216904D02*
X154447200Y-71312142D01*
X154447200Y-71312142D02*
X154494819Y-71454999D01*
X154494819Y-71454999D02*
X154494819Y-71693094D01*
X153828152Y-70264523D02*
X154494819Y-70264523D01*
X153447200Y-70502618D02*
X154161485Y-70740713D01*
X154161485Y-70740713D02*
X154161485Y-70121666D01*
X166993919Y-26671666D02*
X166517728Y-27004999D01*
X166993919Y-27243094D02*
X165993919Y-27243094D01*
X165993919Y-27243094D02*
X165993919Y-26862142D01*
X165993919Y-26862142D02*
X166041538Y-26766904D01*
X166041538Y-26766904D02*
X166089157Y-26719285D01*
X166089157Y-26719285D02*
X166184395Y-26671666D01*
X166184395Y-26671666D02*
X166327252Y-26671666D01*
X166327252Y-26671666D02*
X166422490Y-26719285D01*
X166422490Y-26719285D02*
X166470109Y-26766904D01*
X166470109Y-26766904D02*
X166517728Y-26862142D01*
X166517728Y-26862142D02*
X166517728Y-27243094D01*
X166327252Y-25814523D02*
X166993919Y-25814523D01*
X165946300Y-26052618D02*
X166660585Y-26290713D01*
X166660585Y-26290713D02*
X166660585Y-25671666D01*
X190607200Y-80058332D02*
X190654819Y-79915475D01*
X190654819Y-79915475D02*
X190654819Y-79677380D01*
X190654819Y-79677380D02*
X190607200Y-79582142D01*
X190607200Y-79582142D02*
X190559580Y-79534523D01*
X190559580Y-79534523D02*
X190464342Y-79486904D01*
X190464342Y-79486904D02*
X190369104Y-79486904D01*
X190369104Y-79486904D02*
X190273866Y-79534523D01*
X190273866Y-79534523D02*
X190226247Y-79582142D01*
X190226247Y-79582142D02*
X190178628Y-79677380D01*
X190178628Y-79677380D02*
X190131009Y-79867856D01*
X190131009Y-79867856D02*
X190083390Y-79963094D01*
X190083390Y-79963094D02*
X190035771Y-80010713D01*
X190035771Y-80010713D02*
X189940533Y-80058332D01*
X189940533Y-80058332D02*
X189845295Y-80058332D01*
X189845295Y-80058332D02*
X189750057Y-80010713D01*
X189750057Y-80010713D02*
X189702438Y-79963094D01*
X189702438Y-79963094D02*
X189654819Y-79867856D01*
X189654819Y-79867856D02*
X189654819Y-79629761D01*
X189654819Y-79629761D02*
X189702438Y-79486904D01*
X189654819Y-79153570D02*
X190654819Y-78915475D01*
X190654819Y-78915475D02*
X189940533Y-78724999D01*
X189940533Y-78724999D02*
X190654819Y-78534523D01*
X190654819Y-78534523D02*
X189654819Y-78296428D01*
X189750057Y-77963094D02*
X189702438Y-77915475D01*
X189702438Y-77915475D02*
X189654819Y-77820237D01*
X189654819Y-77820237D02*
X189654819Y-77582142D01*
X189654819Y-77582142D02*
X189702438Y-77486904D01*
X189702438Y-77486904D02*
X189750057Y-77439285D01*
X189750057Y-77439285D02*
X189845295Y-77391666D01*
X189845295Y-77391666D02*
X189940533Y-77391666D01*
X189940533Y-77391666D02*
X190083390Y-77439285D01*
X190083390Y-77439285D02*
X190654819Y-78010713D01*
X190654819Y-78010713D02*
X190654819Y-77391666D01*
X188644819Y-131547618D02*
X189644819Y-131214285D01*
X189644819Y-131214285D02*
X188644819Y-130880952D01*
X189644819Y-130547618D02*
X188644819Y-130547618D01*
X189644819Y-130071428D02*
X188644819Y-130071428D01*
X188644819Y-130071428D02*
X188644819Y-129833333D01*
X188644819Y-129833333D02*
X188692438Y-129690476D01*
X188692438Y-129690476D02*
X188787676Y-129595238D01*
X188787676Y-129595238D02*
X188882914Y-129547619D01*
X188882914Y-129547619D02*
X189073390Y-129500000D01*
X189073390Y-129500000D02*
X189216247Y-129500000D01*
X189216247Y-129500000D02*
X189406723Y-129547619D01*
X189406723Y-129547619D02*
X189501961Y-129595238D01*
X189501961Y-129595238D02*
X189597200Y-129690476D01*
X189597200Y-129690476D02*
X189644819Y-129833333D01*
X189644819Y-129833333D02*
X189644819Y-130071428D01*
X189644819Y-128547619D02*
X189644819Y-129119047D01*
X189644819Y-128833333D02*
X188644819Y-128833333D01*
X188644819Y-128833333D02*
X188787676Y-128928571D01*
X188787676Y-128928571D02*
X188882914Y-129023809D01*
X188882914Y-129023809D02*
X188930533Y-129119047D01*
X150804819Y-58595238D02*
X150328628Y-58928571D01*
X150804819Y-59166666D02*
X149804819Y-59166666D01*
X149804819Y-59166666D02*
X149804819Y-58785714D01*
X149804819Y-58785714D02*
X149852438Y-58690476D01*
X149852438Y-58690476D02*
X149900057Y-58642857D01*
X149900057Y-58642857D02*
X149995295Y-58595238D01*
X149995295Y-58595238D02*
X150138152Y-58595238D01*
X150138152Y-58595238D02*
X150233390Y-58642857D01*
X150233390Y-58642857D02*
X150281009Y-58690476D01*
X150281009Y-58690476D02*
X150328628Y-58785714D01*
X150328628Y-58785714D02*
X150328628Y-59166666D01*
X149804819Y-58309523D02*
X150804819Y-57976190D01*
X150804819Y-57976190D02*
X149804819Y-57642857D01*
X150804819Y-56785714D02*
X150804819Y-57357142D01*
X150804819Y-57071428D02*
X149804819Y-57071428D01*
X149804819Y-57071428D02*
X149947676Y-57166666D01*
X149947676Y-57166666D02*
X150042914Y-57261904D01*
X150042914Y-57261904D02*
X150090533Y-57357142D01*
X204494819Y-47883094D02*
X203494819Y-47883094D01*
X203494819Y-47883094D02*
X203494819Y-47644999D01*
X203494819Y-47644999D02*
X203542438Y-47502142D01*
X203542438Y-47502142D02*
X203637676Y-47406904D01*
X203637676Y-47406904D02*
X203732914Y-47359285D01*
X203732914Y-47359285D02*
X203923390Y-47311666D01*
X203923390Y-47311666D02*
X204066247Y-47311666D01*
X204066247Y-47311666D02*
X204256723Y-47359285D01*
X204256723Y-47359285D02*
X204351961Y-47406904D01*
X204351961Y-47406904D02*
X204447200Y-47502142D01*
X204447200Y-47502142D02*
X204494819Y-47644999D01*
X204494819Y-47644999D02*
X204494819Y-47883094D01*
X203494819Y-46978332D02*
X203494819Y-46359285D01*
X203494819Y-46359285D02*
X203875771Y-46692618D01*
X203875771Y-46692618D02*
X203875771Y-46549761D01*
X203875771Y-46549761D02*
X203923390Y-46454523D01*
X203923390Y-46454523D02*
X203971009Y-46406904D01*
X203971009Y-46406904D02*
X204066247Y-46359285D01*
X204066247Y-46359285D02*
X204304342Y-46359285D01*
X204304342Y-46359285D02*
X204399580Y-46406904D01*
X204399580Y-46406904D02*
X204447200Y-46454523D01*
X204447200Y-46454523D02*
X204494819Y-46549761D01*
X204494819Y-46549761D02*
X204494819Y-46835475D01*
X204494819Y-46835475D02*
X204447200Y-46930713D01*
X204447200Y-46930713D02*
X204399580Y-46978332D01*
X155721219Y-26671666D02*
X155245028Y-27004999D01*
X155721219Y-27243094D02*
X154721219Y-27243094D01*
X154721219Y-27243094D02*
X154721219Y-26862142D01*
X154721219Y-26862142D02*
X154768838Y-26766904D01*
X154768838Y-26766904D02*
X154816457Y-26719285D01*
X154816457Y-26719285D02*
X154911695Y-26671666D01*
X154911695Y-26671666D02*
X155054552Y-26671666D01*
X155054552Y-26671666D02*
X155149790Y-26719285D01*
X155149790Y-26719285D02*
X155197409Y-26766904D01*
X155197409Y-26766904D02*
X155245028Y-26862142D01*
X155245028Y-26862142D02*
X155245028Y-27243094D01*
X154816457Y-26290713D02*
X154768838Y-26243094D01*
X154768838Y-26243094D02*
X154721219Y-26147856D01*
X154721219Y-26147856D02*
X154721219Y-25909761D01*
X154721219Y-25909761D02*
X154768838Y-25814523D01*
X154768838Y-25814523D02*
X154816457Y-25766904D01*
X154816457Y-25766904D02*
X154911695Y-25719285D01*
X154911695Y-25719285D02*
X155006933Y-25719285D01*
X155006933Y-25719285D02*
X155149790Y-25766904D01*
X155149790Y-25766904D02*
X155721219Y-26338332D01*
X155721219Y-26338332D02*
X155721219Y-25719285D01*
X172630319Y-26671666D02*
X172154128Y-27004999D01*
X172630319Y-27243094D02*
X171630319Y-27243094D01*
X171630319Y-27243094D02*
X171630319Y-26862142D01*
X171630319Y-26862142D02*
X171677938Y-26766904D01*
X171677938Y-26766904D02*
X171725557Y-26719285D01*
X171725557Y-26719285D02*
X171820795Y-26671666D01*
X171820795Y-26671666D02*
X171963652Y-26671666D01*
X171963652Y-26671666D02*
X172058890Y-26719285D01*
X172058890Y-26719285D02*
X172106509Y-26766904D01*
X172106509Y-26766904D02*
X172154128Y-26862142D01*
X172154128Y-26862142D02*
X172154128Y-27243094D01*
X171630319Y-25766904D02*
X171630319Y-26243094D01*
X171630319Y-26243094D02*
X172106509Y-26290713D01*
X172106509Y-26290713D02*
X172058890Y-26243094D01*
X172058890Y-26243094D02*
X172011271Y-26147856D01*
X172011271Y-26147856D02*
X172011271Y-25909761D01*
X172011271Y-25909761D02*
X172058890Y-25814523D01*
X172058890Y-25814523D02*
X172106509Y-25766904D01*
X172106509Y-25766904D02*
X172201747Y-25719285D01*
X172201747Y-25719285D02*
X172439842Y-25719285D01*
X172439842Y-25719285D02*
X172535080Y-25766904D01*
X172535080Y-25766904D02*
X172582700Y-25814523D01*
X172582700Y-25814523D02*
X172630319Y-25909761D01*
X172630319Y-25909761D02*
X172630319Y-26147856D01*
X172630319Y-26147856D02*
X172582700Y-26243094D01*
X172582700Y-26243094D02*
X172535080Y-26290713D01*
X165607200Y-80058332D02*
X165654819Y-79915475D01*
X165654819Y-79915475D02*
X165654819Y-79677380D01*
X165654819Y-79677380D02*
X165607200Y-79582142D01*
X165607200Y-79582142D02*
X165559580Y-79534523D01*
X165559580Y-79534523D02*
X165464342Y-79486904D01*
X165464342Y-79486904D02*
X165369104Y-79486904D01*
X165369104Y-79486904D02*
X165273866Y-79534523D01*
X165273866Y-79534523D02*
X165226247Y-79582142D01*
X165226247Y-79582142D02*
X165178628Y-79677380D01*
X165178628Y-79677380D02*
X165131009Y-79867856D01*
X165131009Y-79867856D02*
X165083390Y-79963094D01*
X165083390Y-79963094D02*
X165035771Y-80010713D01*
X165035771Y-80010713D02*
X164940533Y-80058332D01*
X164940533Y-80058332D02*
X164845295Y-80058332D01*
X164845295Y-80058332D02*
X164750057Y-80010713D01*
X164750057Y-80010713D02*
X164702438Y-79963094D01*
X164702438Y-79963094D02*
X164654819Y-79867856D01*
X164654819Y-79867856D02*
X164654819Y-79629761D01*
X164654819Y-79629761D02*
X164702438Y-79486904D01*
X164654819Y-79153570D02*
X165654819Y-78915475D01*
X165654819Y-78915475D02*
X164940533Y-78724999D01*
X164940533Y-78724999D02*
X165654819Y-78534523D01*
X165654819Y-78534523D02*
X164654819Y-78296428D01*
X165654819Y-77391666D02*
X165654819Y-77963094D01*
X165654819Y-77677380D02*
X164654819Y-77677380D01*
X164654819Y-77677380D02*
X164797676Y-77772618D01*
X164797676Y-77772618D02*
X164892914Y-77867856D01*
X164892914Y-77867856D02*
X164940533Y-77963094D01*
D11*
%TO.C,U1*%
X200950000Y-38505000D02*
G75*
G02*
X200950000Y-36505000I0J1000000D01*
G01*
X200950000Y-40155000D02*
X200950000Y-38505000D01*
X200950000Y-36505000D02*
X200950000Y-34855000D01*
X200950000Y-34855000D02*
X165270000Y-34855000D01*
X165270000Y-40155000D02*
X200950000Y-40155000D01*
X165270000Y-34855000D02*
X165270000Y-40155000D01*
D12*
%TO.C,SW5*%
X155000000Y-119900000D02*
X155000000Y-118900000D01*
X155000000Y-121900000D02*
X155000000Y-122900000D01*
X156000000Y-123900000D02*
X160000000Y-123900000D01*
X160000000Y-117900000D02*
X156000000Y-117900000D01*
X161000000Y-119900000D02*
X161000000Y-118900000D01*
X161000000Y-122900000D02*
X161000000Y-121900000D01*
X155000000Y-118900000D02*
G75*
G02*
X156000000Y-117900000I1000000J0D01*
G01*
X156000000Y-123900000D02*
G75*
G02*
X155000000Y-122900000I0J1000000D01*
G01*
X160000000Y-117900000D02*
G75*
G02*
X161000000Y-118900000I0J-1000000D01*
G01*
X161000000Y-122900000D02*
G75*
G02*
X160000000Y-123900000I-1000000J0D01*
G01*
D11*
%TO.C,R3*%
X161902700Y-23235000D02*
X162232700Y-23235000D01*
X161902700Y-29775000D02*
X161902700Y-23235000D01*
X162232700Y-29775000D02*
X161902700Y-29775000D01*
X164312700Y-29775000D02*
X164642700Y-29775000D01*
X164642700Y-23235000D02*
X164312700Y-23235000D01*
X164642700Y-29775000D02*
X164642700Y-23235000D01*
%TO.C,R11*%
X206993600Y-23235000D02*
X207323600Y-23235000D01*
X206993600Y-29775000D02*
X206993600Y-23235000D01*
X207323600Y-29775000D02*
X206993600Y-29775000D01*
X209403600Y-29775000D02*
X209733600Y-29775000D01*
X209733600Y-23235000D02*
X209403600Y-23235000D01*
X209733600Y-29775000D02*
X209733600Y-23235000D01*
D12*
%TO.C,SW7*%
X205000000Y-119100000D02*
X205000000Y-120100000D01*
X205000000Y-122100000D02*
X205000000Y-123100000D01*
X206000000Y-124100000D02*
X210000000Y-124100000D01*
X210000000Y-118100000D02*
X206000000Y-118100000D01*
X211000000Y-120100000D02*
X211000000Y-119100000D01*
X211000000Y-122100000D02*
X211000000Y-123100000D01*
X205000000Y-119100000D02*
G75*
G02*
X206000000Y-118100000I1000000J0D01*
G01*
X206000000Y-124100000D02*
G75*
G02*
X205000000Y-123100000I0J1000000D01*
G01*
X210000000Y-118100000D02*
G75*
G02*
X211000000Y-119100000I0J-1000000D01*
G01*
X211000000Y-123100000D02*
G75*
G02*
X210000000Y-124100000I-1000000J0D01*
G01*
D11*
%TO.C,RV2*%
X177979000Y-50930000D02*
X188020000Y-50930000D01*
X177979000Y-54866000D02*
X177979000Y-50930000D01*
X177979000Y-63170000D02*
X177979000Y-59233000D01*
X177979000Y-63170000D02*
X179300000Y-63170000D01*
X181750000Y-63170000D02*
X182130000Y-63170000D01*
X183871000Y-63170000D02*
X184630000Y-63170000D01*
X186370000Y-63170000D02*
X188020000Y-63170000D01*
X188020000Y-54866000D02*
X188020000Y-50930000D01*
X188020000Y-63170000D02*
X188020000Y-59233000D01*
%TO.C,R7*%
X184448200Y-23235000D02*
X184778200Y-23235000D01*
X184448200Y-29775000D02*
X184448200Y-23235000D01*
X184778200Y-29775000D02*
X184448200Y-29775000D01*
X186858200Y-29775000D02*
X187188200Y-29775000D01*
X187188200Y-23235000D02*
X186858200Y-23235000D01*
X187188200Y-29775000D02*
X187188200Y-23235000D01*
%TO.C,R13*%
X210130000Y-34230000D02*
X210130000Y-40770000D01*
X210130000Y-40770000D02*
X210460000Y-40770000D01*
X210460000Y-34230000D02*
X210130000Y-34230000D01*
X212540000Y-34230000D02*
X212870000Y-34230000D01*
X212870000Y-34230000D02*
X212870000Y-40770000D01*
X212870000Y-40770000D02*
X212540000Y-40770000D01*
%TO.C,R1*%
X150630000Y-23235000D02*
X150960000Y-23235000D01*
X150630000Y-29775000D02*
X150630000Y-23235000D01*
X150960000Y-29775000D02*
X150630000Y-29775000D01*
X153040000Y-29775000D02*
X153370000Y-29775000D01*
X153370000Y-23235000D02*
X153040000Y-23235000D01*
X153370000Y-29775000D02*
X153370000Y-23235000D01*
%TO.C,R10*%
X201357300Y-23235000D02*
X201687300Y-23235000D01*
X201357300Y-29775000D02*
X201357300Y-23235000D01*
X201687300Y-29775000D02*
X201357300Y-29775000D01*
X203767300Y-29775000D02*
X204097300Y-29775000D01*
X204097300Y-23235000D02*
X203767300Y-23235000D01*
X204097300Y-29775000D02*
X204097300Y-23235000D01*
D12*
%TO.C,SW4*%
X155000000Y-107900000D02*
X155000000Y-106900000D01*
X155000000Y-109900000D02*
X155000000Y-110900000D01*
X156000000Y-111900000D02*
X160000000Y-111900000D01*
X160000000Y-105900000D02*
X156000000Y-105900000D01*
X161000000Y-107900000D02*
X161000000Y-106900000D01*
X161000000Y-110900000D02*
X161000000Y-109900000D01*
X155000000Y-106900000D02*
G75*
G02*
X156000000Y-105900000I1000000J0D01*
G01*
X156000000Y-111900000D02*
G75*
G02*
X155000000Y-110900000I0J1000000D01*
G01*
X160000000Y-105900000D02*
G75*
G02*
X161000000Y-106900000I0J-1000000D01*
G01*
X161000000Y-110900000D02*
G75*
G02*
X160000000Y-111900000I-1000000J0D01*
G01*
D11*
%TO.C,J3*%
X219420000Y-29620000D02*
X219420000Y-70380000D01*
X219420000Y-29620000D02*
X222020000Y-29620000D01*
X219420000Y-70380000D02*
X224620000Y-70380000D01*
X222020000Y-29620000D02*
X222020000Y-32220000D01*
X222020000Y-32220000D02*
X224620000Y-32220000D01*
X223290000Y-29620000D02*
X224620000Y-29620000D01*
X224620000Y-29620000D02*
X224620000Y-30950000D01*
X224620000Y-32220000D02*
X224620000Y-70380000D01*
%TO.C,D1*%
X156455000Y-49705000D02*
X156920000Y-49705000D01*
X159080000Y-49705000D02*
X159545000Y-49705000D01*
X156455170Y-49705000D02*
G75*
G02*
X156919925Y-44356893I1544830J2560000D01*
G01*
X156920000Y-49399684D02*
G75*
G02*
X156919941Y-44890344I1080000J2254684D01*
G01*
X159080059Y-44890344D02*
G75*
G02*
X159080000Y-49399684I-1080059J-2254656D01*
G01*
X159080075Y-44356893D02*
G75*
G02*
X159544830Y-49705000I-1080075J-2788107D01*
G01*
%TO.C,RV3*%
X202979000Y-50930000D02*
X213020000Y-50930000D01*
X202979000Y-54866000D02*
X202979000Y-50930000D01*
X202979000Y-63170000D02*
X202979000Y-59233000D01*
X202979000Y-63170000D02*
X204300000Y-63170000D01*
X206750000Y-63170000D02*
X207130000Y-63170000D01*
X208871000Y-63170000D02*
X209630000Y-63170000D01*
X211370000Y-63170000D02*
X213020000Y-63170000D01*
X213020000Y-54866000D02*
X213020000Y-50930000D01*
X213020000Y-63170000D02*
X213020000Y-59233000D01*
%TO.C,R9*%
X195720900Y-23235000D02*
X196050900Y-23235000D01*
X195720900Y-29775000D02*
X195720900Y-23235000D01*
X196050900Y-29775000D02*
X195720900Y-29775000D01*
X198130900Y-29775000D02*
X198460900Y-29775000D01*
X198460900Y-23235000D02*
X198130900Y-23235000D01*
X198460900Y-29775000D02*
X198460900Y-23235000D01*
%TO.C,R8*%
X190084500Y-23235000D02*
X190414500Y-23235000D01*
X190084500Y-29775000D02*
X190084500Y-23235000D01*
X190414500Y-29775000D02*
X190084500Y-29775000D01*
X192494500Y-29775000D02*
X192824500Y-29775000D01*
X192824500Y-23235000D02*
X192494500Y-23235000D01*
X192824500Y-29775000D02*
X192824500Y-23235000D01*
%TO.C,R12*%
X212630000Y-23235000D02*
X212960000Y-23235000D01*
X212630000Y-29775000D02*
X212630000Y-23235000D01*
X212960000Y-29775000D02*
X212630000Y-29775000D01*
X215040000Y-29775000D02*
X215370000Y-29775000D01*
X215370000Y-23235000D02*
X215040000Y-23235000D01*
X215370000Y-29775000D02*
X215370000Y-23235000D01*
%TO.C,D5*%
X181455000Y-73705000D02*
X181920000Y-73705000D01*
X184080000Y-73705000D02*
X184545000Y-73705000D01*
X181455170Y-73705000D02*
G75*
G02*
X181919925Y-68356893I1544830J2560000D01*
G01*
X181920000Y-73399684D02*
G75*
G02*
X181919941Y-68890344I1080000J2254684D01*
G01*
X184080059Y-68890344D02*
G75*
G02*
X184080000Y-73399684I-1080059J-2254656D01*
G01*
X184080075Y-68356893D02*
G75*
G02*
X184544830Y-73705000I-1080075J-2788107D01*
G01*
%TO.C,D2*%
X181455000Y-49705000D02*
X181920000Y-49705000D01*
X184080000Y-49705000D02*
X184545000Y-49705000D01*
X181455170Y-49705000D02*
G75*
G02*
X181919925Y-44356893I1544830J2560000D01*
G01*
X181920000Y-49399684D02*
G75*
G02*
X181919941Y-44890344I1080000J2254684D01*
G01*
X184080059Y-44890344D02*
G75*
G02*
X184080000Y-49399684I-1080059J-2254656D01*
G01*
X184080075Y-44356893D02*
G75*
G02*
X184544830Y-49705000I-1080075J-2788107D01*
G01*
%TO.C,R6*%
X178811800Y-23235000D02*
X179141800Y-23235000D01*
X178811800Y-29775000D02*
X178811800Y-23235000D01*
X179141800Y-29775000D02*
X178811800Y-29775000D01*
X181221800Y-29775000D02*
X181551800Y-29775000D01*
X181551800Y-23235000D02*
X181221800Y-23235000D01*
X181551800Y-29775000D02*
X181551800Y-23235000D01*
D12*
%TO.C,SW6*%
X205000000Y-107100000D02*
X205000000Y-108100000D01*
X205000000Y-110100000D02*
X205000000Y-111100000D01*
X206000000Y-112100000D02*
X210000000Y-112100000D01*
X210000000Y-106100000D02*
X206000000Y-106100000D01*
X211000000Y-108100000D02*
X211000000Y-107100000D01*
X211000000Y-110100000D02*
X211000000Y-111100000D01*
X205000000Y-107100000D02*
G75*
G02*
X206000000Y-106100000I1000000J0D01*
G01*
X206000000Y-112100000D02*
G75*
G02*
X205000000Y-111100000I0J1000000D01*
G01*
X210000000Y-106100000D02*
G75*
G02*
X211000000Y-107100000I0J-1000000D01*
G01*
X211000000Y-111100000D02*
G75*
G02*
X210000000Y-112100000I-1000000J0D01*
G01*
D11*
%TO.C,SW3*%
X202100000Y-81425000D02*
X202100000Y-77325000D01*
X202100000Y-89525000D02*
X202100000Y-85425000D01*
X204500000Y-89525000D02*
X202100000Y-89525000D01*
X209300000Y-89525000D02*
X206700000Y-89525000D01*
X211800000Y-75925000D02*
X212100000Y-75625000D01*
X212100000Y-75625000D02*
X212100000Y-76225000D01*
X212100000Y-76225000D02*
X211800000Y-75925000D01*
X213900000Y-77325000D02*
X202100000Y-77325000D01*
X213900000Y-81425000D02*
X213900000Y-77325000D01*
X213900000Y-85425000D02*
X213900000Y-89525000D01*
X213900000Y-89525000D02*
X211500000Y-89525000D01*
X211000000Y-83425000D02*
G75*
G02*
X205000000Y-83425000I-3000000J0D01*
G01*
X205000000Y-83425000D02*
G75*
G02*
X211000000Y-83425000I3000000J0D01*
G01*
%TO.C,R14*%
X205130000Y-34230000D02*
X205130000Y-40770000D01*
X205130000Y-40770000D02*
X205460000Y-40770000D01*
X205460000Y-34230000D02*
X205130000Y-34230000D01*
X207540000Y-34230000D02*
X207870000Y-34230000D01*
X207870000Y-34230000D02*
X207870000Y-40770000D01*
X207870000Y-40770000D02*
X207540000Y-40770000D01*
%TO.C,D6*%
X206455000Y-73705000D02*
X206920000Y-73705000D01*
X209080000Y-73705000D02*
X209545000Y-73705000D01*
X206455170Y-73705000D02*
G75*
G02*
X206919925Y-68356893I1544830J2560000D01*
G01*
X206920000Y-73399684D02*
G75*
G02*
X206919941Y-68890344I1080000J2254684D01*
G01*
X209080059Y-68890344D02*
G75*
G02*
X209080000Y-73399684I-1080059J-2254656D01*
G01*
X209080075Y-68356893D02*
G75*
G02*
X209544830Y-73705000I-1080075J-2788107D01*
G01*
%TO.C,D4*%
X156455000Y-73515000D02*
X156920000Y-73515000D01*
X159080000Y-73515000D02*
X159545000Y-73515000D01*
X156455170Y-73515000D02*
G75*
G02*
X156919925Y-68166893I1544830J2560000D01*
G01*
X156920000Y-73209684D02*
G75*
G02*
X156919941Y-68700344I1080000J2254684D01*
G01*
X159080059Y-68700344D02*
G75*
G02*
X159080000Y-73209684I-1080059J-2254656D01*
G01*
X159080075Y-68166893D02*
G75*
G02*
X159544830Y-73515000I-1080075J-2788107D01*
G01*
%TO.C,R4*%
X167539100Y-23235000D02*
X167869100Y-23235000D01*
X167539100Y-29775000D02*
X167539100Y-23235000D01*
X167869100Y-29775000D02*
X167539100Y-29775000D01*
X169949100Y-29775000D02*
X170279100Y-29775000D01*
X170279100Y-23235000D02*
X169949100Y-23235000D01*
X170279100Y-29775000D02*
X170279100Y-23235000D01*
%TO.C,SW2*%
X177100000Y-81425000D02*
X177100000Y-77325000D01*
X177100000Y-89525000D02*
X177100000Y-85425000D01*
X179500000Y-89525000D02*
X177100000Y-89525000D01*
X184300000Y-89525000D02*
X181700000Y-89525000D01*
X186800000Y-75925000D02*
X187100000Y-75625000D01*
X187100000Y-75625000D02*
X187100000Y-76225000D01*
X187100000Y-76225000D02*
X186800000Y-75925000D01*
X188900000Y-77325000D02*
X177100000Y-77325000D01*
X188900000Y-81425000D02*
X188900000Y-77325000D01*
X188900000Y-85425000D02*
X188900000Y-89525000D01*
X188900000Y-89525000D02*
X186500000Y-89525000D01*
X186000000Y-83425000D02*
G75*
G02*
X180000000Y-83425000I-3000000J0D01*
G01*
X180000000Y-83425000D02*
G75*
G02*
X186000000Y-83425000I3000000J0D01*
G01*
%TO.C,VID1*%
X177810000Y-128620000D02*
X177810000Y-131380000D01*
X185540000Y-128620000D02*
X177810000Y-128620000D01*
X185540000Y-128620000D02*
X185540000Y-131380000D01*
X185540000Y-131380000D02*
X177810000Y-131380000D01*
X186810000Y-128620000D02*
X188190000Y-128620000D01*
X188190000Y-128620000D02*
X188190000Y-130000000D01*
%TO.C,RV1*%
X152979000Y-50930000D02*
X163020000Y-50930000D01*
X152979000Y-54866000D02*
X152979000Y-50930000D01*
X152979000Y-63170000D02*
X152979000Y-59233000D01*
X152979000Y-63170000D02*
X154300000Y-63170000D01*
X156750000Y-63170000D02*
X157130000Y-63170000D01*
X158871000Y-63170000D02*
X159630000Y-63170000D01*
X161370000Y-63170000D02*
X163020000Y-63170000D01*
X163020000Y-54866000D02*
X163020000Y-50930000D01*
X163020000Y-63170000D02*
X163020000Y-59233000D01*
%TO.C,D3*%
X206455000Y-49705000D02*
X206920000Y-49705000D01*
X209080000Y-49705000D02*
X209545000Y-49705000D01*
X206455170Y-49705000D02*
G75*
G02*
X206919925Y-44356893I1544830J2560000D01*
G01*
X206920000Y-49399684D02*
G75*
G02*
X206919941Y-44890344I1080000J2254684D01*
G01*
X209080059Y-44890344D02*
G75*
G02*
X209080000Y-49399684I-1080059J-2254656D01*
G01*
X209080075Y-44356893D02*
G75*
G02*
X209544830Y-49705000I-1080075J-2788107D01*
G01*
%TO.C,R2*%
X156266400Y-23235000D02*
X156596400Y-23235000D01*
X156266400Y-29775000D02*
X156266400Y-23235000D01*
X156596400Y-29775000D02*
X156266400Y-29775000D01*
X158676400Y-29775000D02*
X159006400Y-29775000D01*
X159006400Y-23235000D02*
X158676400Y-23235000D01*
X159006400Y-29775000D02*
X159006400Y-23235000D01*
%TO.C,R5*%
X173175500Y-23235000D02*
X173505500Y-23235000D01*
X173175500Y-29775000D02*
X173175500Y-23235000D01*
X173505500Y-29775000D02*
X173175500Y-29775000D01*
X175585500Y-29775000D02*
X175915500Y-29775000D01*
X175915500Y-23235000D02*
X175585500Y-23235000D01*
X175915500Y-29775000D02*
X175915500Y-23235000D01*
%TO.C,SW1*%
X152100000Y-81425000D02*
X152100000Y-77325000D01*
X152100000Y-89525000D02*
X152100000Y-85425000D01*
X154500000Y-89525000D02*
X152100000Y-89525000D01*
X159300000Y-89525000D02*
X156700000Y-89525000D01*
X161800000Y-75925000D02*
X162100000Y-75625000D01*
X162100000Y-75625000D02*
X162100000Y-76225000D01*
X162100000Y-76225000D02*
X161800000Y-75925000D01*
X163900000Y-77325000D02*
X152100000Y-77325000D01*
X163900000Y-81425000D02*
X163900000Y-77325000D01*
X163900000Y-85425000D02*
X163900000Y-89525000D01*
X163900000Y-89525000D02*
X161500000Y-89525000D01*
X161000000Y-83425000D02*
G75*
G02*
X155000000Y-83425000I-3000000J0D01*
G01*
X155000000Y-83425000D02*
G75*
G02*
X161000000Y-83425000I3000000J0D01*
G01*
%TD*%
M02*
